<?xml version="1.0" encoding="utf-8"?>
<!-- Generator: Adobe Illustrator 20.1.0, SVG Export Plug-In . SVG Version: 6.00 Build 0)  -->
<svg version="1.1" id="Ebene_1" xmlns="http://www.w3.org/2000/svg" xmlns:xlink="http://www.w3.org/1999/xlink" x="0px" y="0px"
	 viewBox="0 0 471.5 56.9" style="enable-background:new 0 0 471.5 56.9;" xml:space="preserve">
<style type="text/css">
	.st0{clip-path:url(#SVGID_2_);fill:#1A4E9D;}
	.st1{clip-path:url(#SVGID_4_);}
	.st2{clip-path:url(#SVGID_6_);fill:#1E4F9C;}
	.st3{clip-path:url(#SVGID_8_);fill:#1E4F9C;}
	.st4{clip-path:url(#SVGID_10_);fill:#1E4F9C;}
	.st5{clip-path:url(#SVGID_12_);fill:#1E4F9C;}
	.st6{clip-path:url(#SVGID_14_);fill:#1E4F9C;}
	.st7{clip-path:url(#SVGID_16_);fill:#1E4F9C;}
	.st8{clip-path:url(#SVGID_18_);fill:#1E4F9C;}
	.st9{clip-path:url(#SVGID_20_);fill:#1E4F9C;}
	.st10{clip-path:url(#SVGID_22_);fill:#1E4F9C;}
	.st11{clip-path:url(#SVGID_24_);fill:#1E4F9C;}
	.st12{clip-path:url(#SVGID_26_);fill:#1E4F9C;}
	.st13{clip-path:url(#SVGID_28_);fill:#1E4F9C;}
	.st14{clip-path:url(#SVGID_30_);fill:#1E4F9C;}
	.st15{clip-path:url(#SVGID_32_);fill:#010202;}
	.st16{clip-path:url(#SVGID_34_);fill:#010202;}
	.st17{clip-path:url(#SVGID_36_);fill:#010202;}
	.st18{clip-path:url(#SVGID_38_);fill:#010202;}
	.st19{clip-path:url(#SVGID_40_);fill:#010202;}
	.st20{clip-path:url(#SVGID_42_);fill:#010202;}
	.st21{clip-path:url(#SVGID_44_);fill:#010202;}
	.st22{clip-path:url(#SVGID_46_);fill:#010202;}
	.st23{clip-path:url(#SVGID_48_);fill:#010202;}
</style>
<g>
	<g>
		<defs>
			<rect id="SVGID_1_" width="471.5" height="56.9"/>
		</defs>
		<clipPath id="SVGID_2_">
			<use xlink:href="#SVGID_1_"  style="overflow:visible;"/>
		</clipPath>
		<path class="st0" d="M308.6,49.4l-15.2-8.2l7.7-17.1c0,0,16.5-0.2,24-0.1c0,0-4,9.2-7.3,14.3C311.5,48.1,308.6,49.4,308.6,49.4"/>
	</g>
	<g>
		<defs>
			<rect id="SVGID_3_" width="471.5" height="56.9"/>
		</defs>
		<clipPath id="SVGID_4_">
			<use xlink:href="#SVGID_3_"  style="overflow:visible;"/>
		</clipPath>
		<path class="st1" d="M293.5,41.2l-6.9,16c0,0-17.3-18.7-20.9-33.2c-0.6-2.5,16.5-18,45.7-24l-10.1,24.2l-23.2,0.1c0,0-0.3-0.4,0,0
			C285.4,35.4,293.5,41.2,293.5,41.2"/>
	</g>
	<g>
		<defs>
			<rect id="SVGID_5_" width="471.5" height="56.9"/>
		</defs>
		<clipPath id="SVGID_6_">
			<use xlink:href="#SVGID_5_"  style="overflow:visible;"/>
		</clipPath>
		<path class="st2" d="M4.6,13.8c0.2-0.9,0.3-1.9,0.3-2.1c0-0.9-1.7-1-2.6-1c-0.1,0-0.1-0.2-0.1-0.3c0-0.4,0.2-0.8,0.4-1
			c2.1-0.1,5.7-1.1,6.9-1.6c0.3,0.1,0.4,0.5,0.4,1s-0.5,2.8-0.7,3.9L4.9,34.9c0,0.2-0.1,0.9-0.1,1.1c0,0.4,0,1.2,0.5,1.2
			c1,0,3.1-2.3,3.3-2.5c0.1,0,0.8,0.8,0.8,1.1c-0.5,1.2-4.5,5-7.1,5c-1.2,0-2.1-0.9-2.1-2.6c0-0.6,0.3-2.3,0.4-3L4.6,13.8z"/>
	</g>
	<g>
		<defs>
			<rect id="SVGID_7_" width="471.5" height="56.9"/>
		</defs>
		<clipPath id="SVGID_8_">
			<use xlink:href="#SVGID_7_"  style="overflow:visible;"/>
		</clipPath>
		<path class="st3" d="M28.9,20.4l-2.8,14.5c0,0.2-0.1,0.9-0.1,1.1c0,0.4,0,1.2,0.5,1.2c1,0,3.1-2.3,3.3-2.5c0.1,0,0.8,0.8,0.8,1.1
			c-0.6,1.2-4.5,5-7.1,5c-1.2,0-2.1-1-2.1-2.5c0-0.3,0.1-1,0.2-1.6c0.1-0.6,0.1-0.8,0.2-1c-0.9,1.6-3.3,5-5.9,5c-3.2,0-5-3-5-6.7
			c0-6.7,6.7-14.5,14.2-14.5C26.9,19.5,28.2,20,28.9,20.4 M15.5,33.9c0,2.3,0.5,3.6,1.9,3.6c2.3,0,5.1-5.9,5.9-10.4l0.9-4.5
			c-0.3-0.4-1.1-0.5-1.6-0.5C18.8,22.1,15.5,29.5,15.5,33.9"/>
	</g>
	<g>
		<defs>
			<rect id="SVGID_9_" width="471.5" height="56.9"/>
		</defs>
		<clipPath id="SVGID_10_">
			<use xlink:href="#SVGID_9_"  style="overflow:visible;"/>
		</clipPath>
		<path class="st4" d="M41.2,22.1c0,0.6-0.2,1.9-0.3,2.8l-0.5,2.8c1-2.1,5.5-8.1,8.2-8.1c2.4,0,3.2,1.9,3.2,4.1
			c0,1.6-0.4,3.5-0.7,5.1l-1.2,6.1c0,0.2-0.1,0.9-0.1,1.1c0,0.4,0,1.2,0.5,1.2c1,0,3.1-2.3,3.3-2.5c0.1,0,0.8,0.8,0.8,1.1
			c-0.6,1.2-4.5,5-7.1,5c-1.2,0-2.1-0.9-2.1-2.6c0-0.6,0.3-2.3,0.4-3l1.4-6.7c0.1-0.5,0.4-2.1,0.4-2.6c0-1.2-0.2-2-1.1-2
			c-1.7,0-6.3,6.8-7.3,12.2l-0.9,4.3c-0.5,0.1-1.6,0.2-2.1,0.2s-1.6-0.1-2.2-0.2l2.8-14.7c0-0.3,0.2-1.2,0.2-1.5
			c0-0.4,0-1.2-0.5-1.2c-0.9,0-2.8,2.1-3,2.4c-0.1,0-0.8-0.8-0.8-1.1c0.6-1.2,4.4-4.8,6.8-4.8C40.4,19.5,41.2,20.5,41.2,22.1"/>
	</g>
	<g>
		<defs>
			<rect id="SVGID_11_" width="471.5" height="56.9"/>
		</defs>
		<clipPath id="SVGID_12_">
			<use xlink:href="#SVGID_11_"  style="overflow:visible;"/>
		</clipPath>
		<path class="st5" d="M73.7,20.8H76c0.3,0,0.3,0.2,0.3,0.5c0,0.5-0.3,1.3-0.5,1.6h-2.5c-0.2,0-0.3,0.1-0.3,0.3
			c0,0.3,0.2,1.2,0.2,2.5c0,4.6-3,7-4.4,7.9c-2,1.3-5.9,2.2-5.9,3.4c0,1.2,9.7,1.3,9.7,6.4c0,3.7-3.5,7.7-11.3,7.7
			c-4.3,0-7.6-1.9-7.6-4.7c0-2.9,3.8-4.6,6.1-5.4c-0.2-0.1-1-0.5-1.2-0.7c-0.7-0.5-1.2-1-1.2-1.9c0-1.2,3.1-2.9,5.1-3.6
			c-2.5-0.4-4.7-2.7-4.7-5.7c0-5.2,4.5-9.6,9.4-9.6C70.1,19.5,70.5,20.8,73.7,20.8 M61.9,41.7c-1.5,0.6-4,1.6-4,3.7
			c0,2.3,1.8,3.5,5.4,3.5c3.4,0,5.3-1.6,5.3-3.4C68.6,43.4,64.2,42.2,61.9,41.7 M62.4,29.5c0,2,0.8,3.4,2.3,3.4c2.7,0,4-4.4,4-7.1
			c0-2-0.8-3.8-2.3-3.8C63.8,21.9,62.4,26.2,62.4,29.5"/>
	</g>
	<g>
		<defs>
			<rect id="SVGID_13_" width="471.5" height="56.9"/>
		</defs>
		<clipPath id="SVGID_14_">
			<use xlink:href="#SVGID_13_"  style="overflow:visible;"/>
		</clipPath>
		<path class="st6" d="M85.9,22.1c0,0.6-0.2,2.3-0.4,3l-1.4,6.7c-0.1,0.5-0.4,2.1-0.4,2.6c0,1.2,0.2,2,1.1,2c1.7,0,6.1-6.8,7.1-12.2
			l0.9-4.3c0.5-0.1,1.6-0.2,2.1-0.2s1.6,0.1,2.2,0.2l-2.9,15c0,0.2-0.1,0.9-0.1,1.1c0,0.4,0,1.2,0.5,1.2c1,0,3.1-2.3,3.3-2.5
			c0.1,0,0.8,0.8,0.8,1.1c-0.6,1.2-4.5,5-7.1,5c-1.2,0-2.1-0.9-2.1-2.6c0-0.6,0.2-1.8,0.4-2.8l0.5-2.8c-1,2.1-5.3,8.1-8,8.1
			c-2.4,0-3.2-1.9-3.2-4.1c0-1.6,0.4-3.5,0.7-5.1l1.2-5.8c0-0.2,0.2-1.2,0.2-1.5c0-0.4,0-1.2-0.5-1.2c-0.9,0-2.8,2.1-3,2.4
			c-0.1,0-0.8-0.8-0.8-1.1c0.6-1.2,4.4-4.8,6.8-4.8C85,19.5,85.9,20.5,85.9,22.1"/>
	</g>
	<g>
		<defs>
			<rect id="SVGID_15_" width="471.5" height="56.9"/>
		</defs>
		<clipPath id="SVGID_16_">
			<use xlink:href="#SVGID_15_"  style="overflow:visible;"/>
		</clipPath>
		<path class="st7" d="M118.3,20.4l-2.8,14.5c0,0.2-0.1,0.9-0.1,1.1c0,0.4,0,1.2,0.5,1.2c1,0,3.1-2.3,3.3-2.5c0.1,0,0.8,0.8,0.8,1.1
			c-0.6,1.2-4.5,5-7.1,5c-1.2,0-2.1-1-2.1-2.5c0-0.3,0.1-1,0.2-1.6s0.1-0.8,0.2-1c-0.9,1.6-3.3,5-5.9,5c-3.2,0-5-3-5-6.7
			c0-6.7,6.7-14.5,14.2-14.5C116.3,19.5,117.5,20,118.3,20.4 M104.8,33.9c0,2.3,0.5,3.6,1.9,3.6c2.3,0,5.1-5.9,5.9-10.4l0.9-4.5
			c-0.3-0.4-1.1-0.5-1.6-0.5C108.1,22.1,104.8,29.5,104.8,33.9"/>
	</g>
	<g>
		<defs>
			<rect id="SVGID_17_" width="471.5" height="56.9"/>
		</defs>
		<clipPath id="SVGID_18_">
			<use xlink:href="#SVGID_17_"  style="overflow:visible;"/>
		</clipPath>
		<path class="st8" d="M139.3,20.8h2.3c0.3,0,0.3,0.2,0.3,0.5c0,0.5-0.3,1.3-0.5,1.6h-2.5c-0.2,0-0.3,0.1-0.3,0.3
			c0,0.3,0.2,1.2,0.2,2.5c0,4.6-3,7-4.4,7.9c-2,1.3-5.9,2.2-5.9,3.4c0,1.2,9.7,1.3,9.7,6.4c0,3.7-3.5,7.7-11.3,7.7
			c-4.3,0-7.6-1.9-7.6-4.7c0-2.9,3.8-4.6,6.1-5.4c-0.2-0.1-1-0.5-1.2-0.7c-0.7-0.5-1.2-1-1.2-1.9c0-1.2,3.1-2.9,5.1-3.6
			c-2.5-0.4-4.7-2.7-4.7-5.7c0-5.2,4.5-9.6,9.4-9.6C135.7,19.5,136.2,20.8,139.3,20.8 M127.5,41.7c-1.5,0.6-4,1.6-4,3.7
			c0,2.3,1.8,3.5,5.4,3.5c3.4,0,5.3-1.6,5.3-3.4C134.2,43.4,129.8,42.2,127.5,41.7 M128.1,29.5c0,2,0.8,3.4,2.3,3.4
			c2.7,0,4-4.4,4-7.1c0-2-0.8-3.8-2.3-3.8C129.5,21.9,128.1,26.2,128.1,29.5"/>
	</g>
	<g>
		<defs>
			<rect id="SVGID_19_" width="471.5" height="56.9"/>
		</defs>
		<clipPath id="SVGID_20_">
			<use xlink:href="#SVGID_19_"  style="overflow:visible;"/>
		</clipPath>
		<path class="st9" d="M158.5,23.5c0,4.8-8.4,8.4-11.1,8.4c-0.2,0-0.2,0.9-0.2,1.1c0,3.5,1.4,4.6,3,4.6c2.2,0,4.4-2.4,4.6-2.7
			c0.1,0,0.8,0.8,0.8,1.1c-0.5,1.2-4,4.8-7.2,4.8c-4,0-5.9-2.8-5.9-7.4c0-6.5,5.5-13.7,10.9-13.7C156.6,19.5,158.5,21.4,158.5,23.5
			 M147.7,29.7c0,0.1,0.1,0.2,0.2,0.2c2.5,0,6.3-3.6,6.3-6.4c0-0.8-0.3-1.6-1.2-1.6C150.6,21.8,147.7,27,147.7,29.7"/>
	</g>
	<g>
		<defs>
			<rect id="SVGID_21_" width="471.5" height="56.9"/>
		</defs>
		<clipPath id="SVGID_22_">
			<use xlink:href="#SVGID_21_"  style="overflow:visible;"/>
		</clipPath>
		<path class="st10" d="M182.1,21.4c0.1,0.3,0.2,0.8,0.2,1.2c0,1.3-0.7,2.5-1.9,2.5c-2,0-1.7-3.3-3.5-3.3c-2.5,0-5.7,5.3-5.7,10.8
			c0,2.2,0.4,4.9,3.1,4.9c2.2,0,4.4-2.4,4.6-2.7c0.1,0,0.8,0.8,0.8,1.1c-0.5,1.2-4,4.8-7.2,4.8c-4.1,0-5.9-2.9-5.9-7.4
			c0-6.6,5.6-13.7,11-13.7C179.5,19.5,181,20.3,182.1,21.4"/>
	</g>
	<g>
		<defs>
			<rect id="SVGID_23_" width="471.5" height="56.9"/>
		</defs>
		<clipPath id="SVGID_24_">
			<use xlink:href="#SVGID_23_"  style="overflow:visible;"/>
		</clipPath>
		<path class="st11" d="M200.7,27c0,6.8-5.4,13.7-10.9,13.7c-4.5,0-6.4-3-6.4-7.4c0-6.5,5.4-13.8,10.9-13.8
			C198.8,19.5,200.7,22.7,200.7,27 M188.1,34.1c0,2.7,0.9,4.4,2.3,4.4c3.3,0,5.6-7.5,5.5-12.3c0-2.6-0.8-4.4-2.2-4.4
			C190.7,21.8,188.1,28.8,188.1,34.1"/>
	</g>
	<g>
		<defs>
			<rect id="SVGID_25_" width="471.5" height="56.9"/>
		</defs>
		<clipPath id="SVGID_26_">
			<use xlink:href="#SVGID_25_"  style="overflow:visible;"/>
		</clipPath>
		<path class="st12" d="M220.2,20.4l-2.8,14.5c0,0.2-0.1,0.9-0.1,1.1c0,0.4,0,1.2,0.5,1.2c1,0,3.1-2.3,3.3-2.5
			c0.1,0,0.8,0.8,0.8,1.1c-0.6,1.2-4.5,5-7.1,5c-1.2,0-2.1-1-2.1-2.5c0-0.3,0.1-1,0.2-1.6s0.1-0.8,0.2-1c-0.9,1.6-3.3,5-5.9,5
			c-3.2,0-5-3-5-6.7c0-6.7,6.7-14.5,14.2-14.5C218.2,19.5,219.5,20,220.2,20.4 M206.8,33.9c0,2.3,0.5,3.6,1.9,3.6
			c2.3,0,5.1-5.9,5.9-10.4l0.9-4.5c-0.3-0.4-1.1-0.5-1.6-0.5C210.1,22.1,206.8,29.5,206.8,33.9"/>
	</g>
	<g>
		<defs>
			<rect id="SVGID_27_" width="471.5" height="56.9"/>
		</defs>
		<clipPath id="SVGID_28_">
			<use xlink:href="#SVGID_27_"  style="overflow:visible;"/>
		</clipPath>
		<path class="st13" d="M238.8,21.4c0.1,0.3,0.2,0.8,0.2,1.2c0,1.3-0.7,2.5-1.9,2.5c-2,0-1.7-3.3-3.5-3.3c-2.5,0-5.7,5.3-5.7,10.8
			c0,2.2,0.4,4.9,3.1,4.9c2.2,0,4.4-2.4,4.6-2.7c0.1,0,0.8,0.8,0.8,1.1c-0.5,1.2-4,4.8-7.2,4.8c-4.1,0-5.9-2.9-5.9-7.4
			c0-6.6,5.6-13.7,11-13.7C236.1,19.5,237.7,20.3,238.8,21.4"/>
	</g>
	<g>
		<defs>
			<rect id="SVGID_29_" width="471.5" height="56.9"/>
		</defs>
		<clipPath id="SVGID_30_">
			<use xlink:href="#SVGID_29_"  style="overflow:visible;"/>
		</clipPath>
		<path class="st14" d="M257.7,23.7c0,1.6-0.4,3.5-0.7,5.1l-1.2,6.1c0,0.2-0.1,0.9-0.1,1.1c0,0.4,0,1.2,0.5,1.2c1,0,3.1-2.3,3.3-2.5
			c0.1,0,0.8,0.8,0.8,1.1c-0.6,1.2-4.5,5-7.1,5c-1.2,0-2.1-0.9-2.1-2.6c0-0.6,0.3-2.3,0.4-3l1.4-6.7c0.1-0.5,0.4-2.1,0.4-2.6
			c0-1.2-0.2-2-1.1-2c-1.7,0-6.3,6.8-7.3,12.2l-0.9,4.3c-0.5,0.1-1.6,0.2-2.1,0.2s-1.7-0.1-2.2-0.2c0.1-0.7,5.3-27.3,5.3-27.4
			c0.1-0.9-0.5-1.5-0.9-1.8c0-0.4-1.1-0.5-1.5-0.6c0-0.2,0.1-0.6,0.1-0.7c0.8-0.2,3.3-1,4.1-1.4c1.4,0,2.7-0.2,3.2-0.1
			c0.1,0.4-0.2,2-0.3,2.5c0,0.2-1.5,7.7-1.6,8.4c0.7-1.5-1.1,5.6-1.2,6.2c0.7-1.5-0.4,2.1-0.4,2.2c1-2.1,5.5-8.1,8.2-8.1
			C256.9,19.5,257.7,21.4,257.7,23.7"/>
	</g>
	<g>
		<defs>
			<rect id="SVGID_31_" width="471.5" height="56.9"/>
		</defs>
		<clipPath id="SVGID_32_">
			<use xlink:href="#SVGID_31_"  style="overflow:visible;"/>
		</clipPath>
		<path class="st15" d="M337.1,24.1c0,0.6-0.2,2.3-0.4,3l-1.9,9.8c0,0.2-0.1,0.9-0.1,1.1c0,0.4,0,1.2,0.5,1.2c1,0,3.1-2.3,3.3-2.5
			c0.1,0,0.8,0.8,0.8,1.1c-0.6,1.2-4.5,5-7.1,5c-1.2,0-2.1-0.9-2.1-2.6c0-0.6,0.3-2.3,0.4-3l1.8-9.4c0.1-0.3,0.2-1.3,0.2-1.5
			c0-0.4,0-1.2-0.5-1.2c-0.9,0-2.8,2.1-3,2.4c-0.1,0-0.8-0.8-0.8-1.1c0.6-1.2,4.4-4.8,6.8-4.8C336.2,21.6,337.1,22.5,337.1,24.1
			 M338.7,13.4c0,1.8-1.4,3.4-3.1,3.4c-1.3,0-2.2-1.2-2.2-2.5c0-1.7,1.4-3.3,3.1-3.3C337.8,11,338.7,12.1,338.7,13.4"/>
	</g>
	<g>
		<defs>
			<rect id="SVGID_33_" width="471.5" height="56.9"/>
		</defs>
		<clipPath id="SVGID_34_">
			<use xlink:href="#SVGID_33_"  style="overflow:visible;"/>
		</clipPath>
		<path class="st16" d="M350.2,24.1c0,0.6-0.2,1.9-0.3,2.8l-0.5,2.8c1-2.1,5.5-8.1,8.2-8.1c2.4,0,3.2,1.9,3.2,4.1
			c0,1.6-0.4,3.5-0.7,5.1l-1.3,6.1c0,0.2-0.1,0.9-0.1,1.1c0,0.4,0,1.2,0.5,1.2c1,0,3.1-2.3,3.3-2.5c0.1,0,0.8,0.8,0.8,1.1
			c-0.6,1.2-4.5,5-7.1,5c-1.2,0-2.1-0.9-2.1-2.6c0-0.6,0.3-2.3,0.4-3l1.4-6.7c0.1-0.5,0.4-2.1,0.4-2.6c0-1.2-0.2-2-1.1-2
			c-1.7,0-6.3,6.8-7.3,12.2l-0.9,4.3c-0.5,0.1-1.6,0.2-2.1,0.2s-1.6-0.1-2.2-0.2l2.8-14.7c0-0.3,0.2-1.2,0.2-1.5
			c0-0.4,0-1.2-0.5-1.2c-0.9,0-2.8,2.1-3,2.4c-0.1,0-0.8-0.8-0.8-1.1c0.6-1.2,4.4-4.8,6.8-4.8C349.3,21.6,350.2,22.5,350.2,24.1"/>
	</g>
	<g>
		<defs>
			<rect id="SVGID_35_" width="471.5" height="56.9"/>
		</defs>
		<clipPath id="SVGID_36_">
			<use xlink:href="#SVGID_35_"  style="overflow:visible;"/>
		</clipPath>
		<path class="st17" d="M378.6,23.1c0.3,0.4,0.4,1,0.4,1.4c0,1.4-0.7,2.5-1.7,2.5c-2,0-1.9-3.2-4.5-3.2c-1.3,0-1.9,0.9-1.9,2.1
			c0,3.2,5.9,6.9,5.9,11.1c0,3.5-3.3,5.9-7.3,5.9c-2,0-3.5-0.7-4.5-1.7c-0.2-0.3-0.3-0.9-0.3-1.2c0-1.4,0.7-2.5,1.7-2.5
			c2,0,2,3.2,4.5,3.2c1.3,0,2-0.9,2-2.1c0-3.2-5.9-6.9-5.9-11.1c0-3,3.2-5.9,7.2-5.9C376.2,21.5,377.6,22.1,378.6,23.1"/>
	</g>
	<g>
		<defs>
			<rect id="SVGID_37_" width="471.5" height="56.9"/>
		</defs>
		<clipPath id="SVGID_38_">
			<use xlink:href="#SVGID_37_"  style="overflow:visible;"/>
		</clipPath>
		<path class="st18" d="M388.6,16.7c0.5,0,0.9,0,1.2,0.1l-1.1,5.6h4.2c0.2,0,0.4,0.4,0.4,0.7c0,0.6-0.2,1.3-0.5,1.7h-4.5l-2.4,12.1
			c0,0.2-0.1,0.9-0.1,1.1c0,0.4,0,1.2,0.5,1.2c1,0,3.1-2.3,3.3-2.5c0.1,0,0.8,0.8,0.8,1.1c-0.6,1.2-4.5,5-7.1,5
			c-1.2,0-2.1-0.9-2.1-2.6c0-0.6,0.3-2.3,0.4-3l2.4-12.4h-3c-0.1,0-0.2-0.4-0.2-0.5c0-0.7,0.4-1.6,0.6-1.8h3l1-5.2
			C385.5,16.8,387.5,16.7,388.6,16.7"/>
	</g>
	<g>
		<defs>
			<rect id="SVGID_39_" width="471.5" height="56.9"/>
		</defs>
		<clipPath id="SVGID_40_">
			<use xlink:href="#SVGID_39_"  style="overflow:visible;"/>
		</clipPath>
		<path class="st19" d="M402.3,24.1c0,0.6-0.2,2.3-0.4,3l-1.9,9.8c0,0.2-0.1,0.9-0.1,1.1c0,0.4,0,1.2,0.5,1.2c1,0,3.1-2.3,3.3-2.5
			c0.1,0,0.8,0.8,0.8,1.1c-0.6,1.2-4.5,5-7.1,5c-1.2,0-2.1-0.9-2.1-2.6c0-0.6,0.3-2.3,0.4-3l1.8-9.4c0.1-0.3,0.2-1.3,0.2-1.5
			c0-0.4,0-1.2-0.5-1.2c-0.9,0-2.8,2.1-3,2.4c-0.1,0-0.8-0.8-0.8-1.1c0.6-1.2,4.4-4.8,6.8-4.8C401.4,21.6,402.3,22.5,402.3,24.1
			 M403.9,13.4c0,1.8-1.4,3.4-3.1,3.4c-1.3,0-2.2-1.2-2.2-2.5c0-1.7,1.4-3.3,3.1-3.3C403,11,403.9,12.1,403.9,13.4"/>
	</g>
	<g>
		<defs>
			<rect id="SVGID_41_" width="471.5" height="56.9"/>
		</defs>
		<clipPath id="SVGID_42_">
			<use xlink:href="#SVGID_41_"  style="overflow:visible;"/>
		</clipPath>
		<path class="st20" d="M414.9,16.7c0.5,0,0.9,0,1.2,0.1l-1.1,5.6h4.2c0.2,0,0.4,0.4,0.4,0.7c0,0.6-0.2,1.3-0.5,1.7h-4.5l-2.4,12.1
			c0,0.2-0.1,0.9-0.1,1.1c0,0.4,0,1.2,0.5,1.2c1,0,3.1-2.3,3.3-2.5c0.1,0,0.8,0.8,0.8,1.1c-0.6,1.2-4.5,5-7.1,5
			c-1.2,0-2.1-0.9-2.1-2.6c0-0.6,0.3-2.3,0.4-3l2.4-12.4h-3c-0.1,0-0.2-0.4-0.2-0.5c0-0.7,0.4-1.6,0.6-1.8h3l1-5.2
			C411.8,16.8,413.8,16.7,414.9,16.7"/>
	</g>
	<g>
		<defs>
			<rect id="SVGID_43_" width="471.5" height="56.9"/>
		</defs>
		<clipPath id="SVGID_44_">
			<use xlink:href="#SVGID_43_"  style="overflow:visible;"/>
		</clipPath>
		<path class="st21" d="M428.2,24.1c0,0.6-0.2,2.3-0.4,3l-1.4,6.7c-0.1,0.5-0.4,2.1-0.4,2.6c0,1.2,0.2,2,1.1,2
			c1.7,0,6.1-6.8,7.1-12.2l0.9-4.3c0.5-0.1,1.6-0.2,2.1-0.2s1.6,0.1,2.2,0.2l-2.9,15c0,0.2-0.1,0.9-0.1,1.1c0,0.4,0,1.2,0.5,1.2
			c1,0,3.1-2.3,3.3-2.5c0.1,0,0.8,0.8,0.8,1.1c-0.6,1.2-4.5,5-7.1,5c-1.2,0-2.1-0.9-2.1-2.6c0-0.6,0.2-1.8,0.4-2.8l0.5-2.8
			c-1,2.1-5.3,8.1-8,8.1c-2.4,0-3.2-1.9-3.2-4.1c0-1.6,0.4-3.5,0.7-5.1l1.2-5.8c0-0.2,0.2-1.2,0.2-1.5c0-0.4,0-1.2-0.5-1.2
			c-0.9,0-2.8,2.1-3,2.4c-0.1,0-0.8-0.8-0.8-1.1c0.6-1.2,4.4-4.8,6.8-4.8C427.3,21.6,428.2,22.5,428.2,24.1"/>
	</g>
	<g>
		<defs>
			<rect id="SVGID_45_" width="471.5" height="56.9"/>
		</defs>
		<clipPath id="SVGID_46_">
			<use xlink:href="#SVGID_45_"  style="overflow:visible;"/>
		</clipPath>
		<path class="st22" d="M451.2,16.7c0.5,0,0.9,0,1.2,0.1l-1.1,5.6h4.2c0.2,0,0.4,0.4,0.4,0.7c0,0.6-0.2,1.3-0.5,1.7h-4.5l-2.4,12.1
			c0,0.2-0.1,0.9-0.1,1.1c0,0.4,0,1.2,0.5,1.2c1,0,3.1-2.3,3.3-2.5c0.1,0,0.8,0.8,0.8,1.1c-0.6,1.2-4.5,5-7.1,5
			c-1.2,0-2.1-0.9-2.1-2.6c0-0.6,0.3-2.3,0.4-3l2.4-12.4h-3c-0.1,0-0.2-0.4-0.2-0.5c0-0.7,0.4-1.6,0.6-1.8h3l1-5.2
			C448,16.8,450.1,16.7,451.2,16.7"/>
	</g>
	<g>
		<defs>
			<rect id="SVGID_47_" width="471.5" height="56.9"/>
		</defs>
		<clipPath id="SVGID_48_">
			<use xlink:href="#SVGID_47_"  style="overflow:visible;"/>
		</clipPath>
		<path class="st23" d="M471.5,25.5c0,4.8-8.4,8.4-11.1,8.4c-0.2,0-0.2,0.9-0.2,1.1c0,3.5,1.4,4.6,3,4.6c2.2,0,4.4-2.4,4.6-2.7
			c0.1,0,0.8,0.8,0.8,1.1c-0.5,1.2-4,4.8-7.2,4.8c-4,0-5.9-2.8-5.9-7.4c0-6.5,5.5-13.7,10.9-13.7C469.6,21.6,471.5,23.4,471.5,25.5
			 M460.6,31.7c0,0.1,0.1,0.2,0.2,0.2c2.5,0,6.3-3.6,6.3-6.4c0-0.8-0.3-1.6-1.2-1.6C463.5,23.8,460.6,29,460.6,31.7"/>
	</g>
</g>
</svg>
