<?xml version="1.0" encoding="utf-8"?>
<!-- Generator: Adobe Illustrator 26.0.0, SVG Export Plug-In . SVG Version: 6.00 Build 0)  -->
<svg version="1.1" id="Layer_1" xmlns="http://www.w3.org/2000/svg" xmlns:xlink="http://www.w3.org/1999/xlink" x="0px" y="0px"
	 viewBox="0 0 500 500" style="enable-background:new 0 0 500 500;" xml:space="preserve">
<style type="text/css">
	.st0{fill:#E0E0E0;}
	.st1{fill:#F5F5F5;}
	.st2{fill:#EBEBEB;}
	.st3{fill:#FAFAFA;}
	.st4{opacity:0.6;}
	.st5{fill:#263238;}
	.st6{fill:#455A64;}
	.st7{fill:#E8F3FC;}
	.st8{fill:#FFFFFF;}
	.st9{opacity:0.1;}
	.st10{opacity:0.7;}
	.st11{opacity:0.3;}
	.st12{fill:#FFBF9D;}
	.st13{fill:#FF9A6C;}
	.st14{fill:#FC0000;}
	.st15{fill:#27B9DA;}
	.st16{fill:#212122;}
</style>
<g>
	<path d="M542.5,957l0.4,0.8c0.2,0.3,0.3,0.6,0.3,1.1v0.6c0,0.5-0.3,1.1-0.7,1.6c-0.4,0.4-0.7,0.5-1,0.5c-0.4,0-0.9-0.2-1.5-0.5
		l0.1-0.2c0.2,0.1,0.4,0.1,0.7,0.1c0.8,0,1.7-0.7,2.1-1.6c0-0.1,0.1-0.2,0.1-0.3c0-0.1,0-0.2-0.1-0.3c-0.2-0.5-0.4-0.9-0.7-1.3
		C542.2,957.5,542.3,957.2,542.5,957L542.5,957z"/>
	<path d="M547.6,957.7c0.2,0.3,0.3,0.6,0.4,0.9c0.1,0.2,0.1,0.5,0.5,0.5c0.1,0,0.3,0,0.4-0.1c0.2-0.1,0.3-0.2,0.3-0.5l0.1-0.6
		l0.4-0.2l0,0c0,0.2-0.1,0.4-0.1,0.6c0,0.5,0.4,0.7,0.6,0.7c0.2,0,0.3-0.1,0.3-0.3c0-0.2-0.1-0.6-0.2-1c0.2-0.2,0.3-0.4,0.5-0.5l0,0
		c0.1,0.4,0.1,0.8,0.1,1.1c0,0.3-0.1,0.6-0.2,0.8c-0.2,0.4-0.5,0.7-0.8,0.7c-0.3,0-0.6-0.2-0.8-0.5h0c-0.2,0.3-0.5,0.6-1,0.6h-0.2
		c0,0.4-0.1,0.7-0.2,0.9c-0.3,0.7-1.2,1.1-2,1.1c-1.1,0-1.7-0.8-1.7-1.8c0-0.6,0.2-1.2,0.4-1.6l0.2,0.1c-0.2,0.4-0.3,0.7-0.3,1.1
		c0,1,0.7,1.4,1.4,1.4c0.7,0,1.6-0.5,1.7-1.1c-0.1-0.7-0.3-1-0.6-1.6C547.3,958.1,547.4,957.9,547.6,957.7L547.6,957.7z"/>
	<path d="M553.4,959c-0.6,0-1,0.3-1,0.4c0,0.6,0.4,1.7,0.8,3c0,0.1,0.1,0.4,0.1,0.5c0,0.3-0.1,0.6-0.1,0.9l-0.1,0
		c0-0.7-0.5-1.9-0.9-3.1c-0.1-0.2-0.1-0.5-0.1-0.7c0-0.3,0.1-0.5,0.2-0.8c0.1-0.3,0.3-0.6,0.5-0.8c0-0.3-0.1-0.6-0.1-0.8
		c0-0.2,0.2-0.6,0.3-0.7s0.3-0.2,0.5-0.2c0.3,0,0.5,0.1,0.7,0.3c0.4,0.3,0.7,0.7,0.9,1.1c0,0.1,0.1,0.3,0.1,0.4
		c0,0.2-0.1,0.4-0.2,0.6C554.5,959.1,554,959,553.4,959z M554.6,958.3c-0.3-0.4-0.7-0.9-1.2-0.9c-0.1,0-0.2,0-0.4,0.1l0,0.3
		c0,0.2-0.1,0.4-0.1,0.6c0.2-0.1,0.5-0.1,0.8-0.1C553.9,958.3,554.3,958.3,554.6,958.3L554.6,958.3z"/>
	<path d="M558.7,960.1c0.1-0.4,0.1-0.8,0.1-1.2v-0.6c0-1.1-0.1-2.6-0.2-3.6c0.2-0.2,0.4-0.5,0.6-0.6l0.1,0c0.1,1.3,0.2,2.8,0.2,4.1
		c0,0.4,0,0.7,0,1C559.3,959.5,559.1,959.8,558.7,960.1L558.7,960.1z"/>
	<path d="M564.1,954c0,0.4,0.2,0.9,0.5,1.4c-0.1,0.1-0.2,0.2-0.4,0.3c0,0.8,0.1,1.7,0.1,2.4c0,0.4,0,0.9-0.3,1.7
		c-0.2,0.3-0.4,0.5-0.7,0.7c-0.4,0.2-0.8,0.4-1.2,0.4c-0.5,0-0.9-0.2-1.2-0.5c-0.3-0.3-0.4-0.8-0.4-1.3c0-0.5,0.2-1,0.4-1.5l0.2,0.1
		c-0.1,0.3-0.2,0.7-0.2,1c0,0.3,0.1,0.6,0.3,0.9c0.2,0.3,0.6,0.5,1,0.5c0.4,0,0.7-0.1,1-0.3c0.3-0.2,0.5-0.3,0.6-0.6
		c0-0.1,0-0.2,0-0.4c0-0.9-0.1-2-0.2-3.3c0-0.2-0.1-0.5-0.1-0.8c0-0.2,0-0.3,0.1-0.5C563.8,954.2,563.9,954.1,564.1,954L564.1,954z"
		/>
	<path d="M565.8,958.4c0,0.5,0.2,0.9,1,0.9c0.5,0,0.8-0.1,1.3-0.4c0.1,0,0.1-0.1,0.1-0.1c0-0.3-0.2-0.7-0.6-1.1
		c-0.3-0.4-0.8-0.7-1.2-0.9c-0.1-0.1-0.2-0.1-0.2-0.2c0-0.1,0.2-0.5,0.3-0.7l0,0c0.5,0.3,1,0.7,1.4,1.2c0.4,0.4,0.6,0.9,0.6,1.4
		c0,0.4-0.1,0.7-0.2,1c-0.5,0.3-1.1,0.5-1.6,0.5c-0.7,0-1.1-0.4-1.1-1.2c0-0.1,0-0.2,0-0.4H565.8z"/>
	<path d="M572.3,958.1c-0.7-0.3-1.1-0.3-1.6-0.3c-0.3,0-0.6,0.1-0.7,0.3l0.1,0.5l-0.2,0.5l-0.1,0l-0.3-0.9c0-0.7,0.6-1.1,1.3-1.1
		c0.4,0,1,0.1,1.9,0.5c0.3,0.1,0.6,0.2,1,0.2l0.5,0l0,0l-0.4,0.6c-0.4,0-1.3,0.3-1.6,0.4c-1.3,0.5-2.2,1.2-2.2,2
		c0,1.2,1.3,1.9,2.9,1.9c0.5,0,1-0.1,1.5-0.1l0,0.1c-0.3,0.2-0.6,0.5-1,0.7c-0.3,0.1-0.7,0.1-1.1,0.1c-1.5,0-2.8-0.8-2.8-2.4
		C569.7,959.6,570.9,958.4,572.3,958.1L572.3,958.1z M571.5,955c0.2,0.2,0.5,0.4,0.7,0.6c-0.1,0.2-0.3,0.4-0.5,0.6
		c-0.2-0.2-0.5-0.4-0.7-0.6C571.2,955.4,571.4,955.2,571.5,955z"/>
	<path d="M577.1,959.4c-0.7,0-1.3-0.3-1.3-1.1c0-0.4,0.1-0.7,0.4-1c0.3-0.3,0.6-0.5,0.8-0.5c0.3,0,0.7,0.2,0.9,0.7
		c0.2,0.4,0.4,1,0.4,1.6c0,0.5-0.1,1.1-0.4,1.5c-0.5,0.8-1,1.1-1.5,1.1c-0.5,0-1.1-0.2-1.7-0.6l0.1-0.2c0.3,0.1,0.6,0.2,0.9,0.2
		c0.6,0,1.2-0.3,1.7-0.9c0.3-0.3,0.5-0.6,0.6-1C577.6,959.3,577.3,959.4,577.1,959.4z M576.8,957.5c-0.3,0-0.7,0.3-0.7,0.5
		c0,0.4,0.5,0.6,1,0.6c0.2,0,0.5,0,0.7-0.1C577.7,958,577.3,957.5,576.8,957.5z"/>
	<path d="M582.9,954c0,0.4,0.2,0.9,0.5,1.4c-0.1,0.1-0.2,0.2-0.4,0.3c0,0.8,0.1,1.7,0.1,2.4c0,0.4,0,0.9-0.3,1.7
		c-0.2,0.3-0.4,0.5-0.7,0.7c-0.4,0.2-0.8,0.4-1.2,0.4c-0.5,0-0.9-0.2-1.2-0.5c-0.3-0.3-0.4-0.8-0.4-1.3c0-0.5,0.2-1,0.4-1.5l0.2,0.1
		c-0.1,0.3-0.2,0.7-0.2,1c0,0.3,0.1,0.6,0.3,0.9c0.2,0.3,0.6,0.5,1,0.5c0.4,0,0.7-0.1,1-0.3c0.3-0.2,0.5-0.3,0.6-0.6
		c0-0.1,0-0.2,0-0.4c0-0.9-0.1-2-0.2-3.3c0-0.2-0.1-0.5-0.1-0.8c0-0.2,0-0.3,0.1-0.5C582.6,954.2,582.7,954.1,582.9,954L582.9,954z"
		/>
	<path d="M587.2,956.9c0.4-0.1,0.8-0.3,1-0.3c1.1,0,1.7,0.7,1.7,1.4c0,0.5-0.3,1-0.8,1.4c-0.5,0.4-1.1,0.6-1.5,0.6
		c-0.4,0-0.8-0.2-0.9-0.3c-0.1-0.1-0.2-0.2-0.2-0.3c0-0.1,0.1-0.2,0.2-0.3c0.1-0.1,0.2-0.1,0.2,0c0.2,0.2,0.6,0.5,1.1,0.5
		c0.7,0,1-0.6,1-1.2c0-0.8-0.5-1.3-1.4-1.3c-0.4,0-0.7,0.1-0.9,0.2l0.4-2.6h2.5l0.1,0.1l-0.2,0.6h-2.1L587.2,956.9z"/>
	<path d="M592.5,954.6c1.3,0,1.8,1.4,1.8,2.8c0,1.2-0.5,2.8-1.8,2.8s-1.8-1.4-1.8-2.8C590.7,956.1,591.1,954.6,592.5,954.6
		L592.5,954.6z M592.5,954.9c-0.8,0-1,1.3-1,2.4c0,1.2,0.2,2.5,1,2.5c0.8,0,0.9-1.3,0.9-2.5C593.4,956.1,593.2,954.9,592.5,954.9
		L592.5,954.9z"/>
	<path d="M596.7,954.6c1.3,0,1.8,1.4,1.8,2.8c0,1.2-0.5,2.8-1.8,2.8s-1.8-1.4-1.8-2.8C594.9,956.1,595.4,954.6,596.7,954.6
		L596.7,954.6z M596.7,954.9c-0.8,0-1,1.3-1,2.4c0,1.2,0.2,2.5,1,2.5c0.8,0,0.9-1.3,0.9-2.5C597.7,956.1,597.5,954.9,596.7,954.9
		L596.7,954.9z"/>
	<path d="M605.4,954c0,0.4,0.2,0.9,0.5,1.4c-0.1,0.1-0.2,0.2-0.4,0.3c0,0.8,0.1,1.7,0.1,2.4c0,0.4,0,0.9-0.3,1.7
		c-0.2,0.3-0.4,0.5-0.7,0.7c-0.4,0.2-0.8,0.4-1.2,0.4c-0.5,0-0.9-0.2-1.2-0.5c-0.3-0.3-0.4-0.8-0.4-1.3c0-0.5,0.2-1,0.4-1.5l0.2,0.1
		c-0.1,0.3-0.2,0.7-0.2,1c0,0.3,0.1,0.6,0.3,0.9c0.2,0.3,0.6,0.5,1,0.5c0.4,0,0.7-0.1,1-0.3c0.3-0.2,0.5-0.3,0.6-0.6
		c0-0.1,0-0.2,0-0.4c0-0.9-0.1-2-0.2-3.3c0-0.2-0.1-0.5-0.1-0.8c0-0.2,0-0.3,0.1-0.5C605.1,954.2,605.2,954.1,605.4,954L605.4,954z"
		/>
	<path d="M607.2,960.1c-0.3,0-0.5-0.2-0.5-0.5c0-0.3,0.2-0.5,0.5-0.5s0.5,0.2,0.5,0.5C607.8,959.9,607.5,960.1,607.2,960.1
		L607.2,960.1z"/>
	<path d="M614.5,957.7c0.2,0.3,0.3,0.6,0.4,0.9c0.1,0.2,0.1,0.5,0.5,0.5c0.1,0,0.3,0,0.4-0.1c0.2-0.1,0.3-0.2,0.3-0.5l0.1-0.6
		l0.4-0.2l0,0c0,0.2-0.1,0.4-0.1,0.6c0,0.5,0.4,0.7,0.6,0.7c0.2,0,0.3-0.1,0.3-0.3c0-0.2-0.1-0.6-0.2-1c0.2-0.2,0.3-0.4,0.5-0.5l0,0
		c0.1,0.4,0.1,0.8,0.1,1.1c0,0.3-0.1,0.6-0.2,0.8c-0.2,0.4-0.5,0.7-0.8,0.7c-0.3,0-0.6-0.2-0.8-0.5h0c-0.2,0.3-0.5,0.6-1,0.6H615
		c0,0.4-0.1,0.7-0.2,0.9c-0.3,0.7-1.2,1.1-2,1.1c-1.1,0-1.7-0.8-1.7-1.8c0-0.6,0.2-1.2,0.4-1.6l0.2,0.1c-0.2,0.4-0.3,0.7-0.3,1.1
		c0,1,0.7,1.4,1.4,1.4c0.7,0,1.6-0.5,1.7-1.1c-0.1-0.7-0.3-1-0.6-1.6C614.2,958.1,614.3,957.9,614.5,957.7L614.5,957.7z"/>
	<path d="M618.4,960v-6h4.3v6H618.4z M618.9,959.2l1.4-2.2l-1.4-2.2V959.2z M619.1,954.5l1.4,2.2l1.5-2.2H619.1z M622,959.6
		l-1.5-2.2l-1.4,2.2H622z M622.3,954.8l-1.4,2.2l1.4,2.2V954.8z"/>
</g>
<g id="freepik--background-complete--inject-6">
	<path class="st0" d="M65.7,281.1c23.5-12.7,46.9-5.5,46.9-5.5C95.9,290.8,65.7,281.1,65.7,281.1z"/>
	<path class="st0" d="M140.2,258.1c4.6,15.8-2.8,29.8-2.8,29.8C130.4,276.2,140.2,258.1,140.2,258.1z"/>
	<path class="st0" d="M137.6,295.3c-17.5,9.1-35.7,3.7-35.7,3.7C114.1,288,137.6,295.3,137.6,295.3z"/>
	<path class="st0" d="M100.8,261.4c0.2-0.3,11.6,8.4,25.3,19.4s24.7,20.1,24.5,20.4s-11.6-8.4-25.3-19.4S100.6,261.7,100.8,261.4z"
		/>
	<path class="st0" d="M64.4,239.6c0,0,30.5,1.6,41.6,26.5C106,266.1,80,265.1,64.4,239.6z"/>
	<path class="st0" d="M106.9,230.4c0,0,23.5,19.5,17.6,46.1C124.5,276.5,104.2,260.1,106.9,230.4z"/>
	<path class="st0" d="M458.9,211.7c-27.7-5.5-49,8.9-49,8.9C431.4,230.8,458.9,211.7,458.9,211.7z"/>
	<path class="st0" d="M376.7,211.5c0.2,17.3,12,29.2,12,29.2C392.1,226.6,376.7,211.5,376.7,211.5z"/>
	<path class="st0" d="M390.8,248.2c20.5,3.8,37.1-7.3,37.1-7.3C412.2,233.6,390.8,248.2,390.8,248.2z"/>
	<path class="st0" d="M417.4,202.7c-0.3-0.2-9.1,12-19.5,27.3s-18.7,27.9-18.4,28.1s9.1-12,19.5-27.3S417.7,202.9,417.4,202.7z"/>
	<path class="st0" d="M447.3,169.4c0,0-30.2,11.1-33.8,39.6C413.6,209,439.5,199.9,447.3,169.4z"/>
	<path class="st0" d="M401.7,173.2c0,0-17.7,26.9-3.5,51.9C398.2,225.1,413.6,202.4,401.7,173.2z"/>
	<path class="st0" d="M390.4,76c-11.8-2.2-24.1,0-34.4,6.3C371.1,89.4,390.4,76,390.4,76z"/>
	<path class="st0" d="M332.7,75.9c0.1,12.2,8.4,20.5,8.4,20.5C343.6,86.5,332.7,75.9,332.7,75.9z"/>
	<path class="st0" d="M342.6,101.6c14.4,2.6,26-5.1,26-5.1C357.6,91.4,342.6,101.6,342.6,101.6z"/>
	<path class="st0" d="M361.3,69.7c-0.2-0.2-6.4,8.4-13.7,19.2s-13.1,19.6-12.9,19.7s6.4-8.4,13.7-19.2S361.5,69.8,361.3,69.7z"/>
	<path class="st0" d="M382.3,46.3c0,0-21.2,7.8-23.7,27.8C370.5,69.1,379.2,58.8,382.3,46.3z"/>
	<path class="st0" d="M350.3,49c0,0-12.4,18.9-2.5,36.4C354.3,74.4,355.3,60.9,350.3,49z"/>
	
		<rect x="58.4" y="171.2" transform="matrix(0.1028 -0.9947 0.9947 0.1028 -125.2514 256.2207)" class="st1" width="42.1" height="52.6"/>
	
		<rect x="61" y="173.1" transform="matrix(0.1028 -0.9947 0.9947 0.1028 -125.2698 256.1778)" class="st2" width="36.8" height="48.9"/>
	<polygon class="st0" points="53.2,213.3 72.5,192.3 81.6,207.6 89.5,200.8 101.8,218.3 	"/>
	<path class="st0" d="M87.8,191.1c-0.2,2.1-2.1,3.7-4.2,3.4c-2.1-0.2-3.7-2.1-3.4-4.2s2.1-3.7,4.2-3.4c0,0,0,0,0,0
		C86.5,187.1,88,189,87.8,191.1z"/>
	
		<rect x="379.8" y="380.3" transform="matrix(0.1452 -0.9894 0.9894 0.1452 -57.4773 732.0915)" class="st1" width="30.4" height="38"/>
	
		<rect x="381.7" y="381.6" transform="matrix(0.1452 -0.9894 0.9894 0.1452 -57.4959 732.0582)" class="st2" width="26.5" height="35.3"/>
	<polygon class="st0" points="375.5,409.9 390.1,395.4 396.2,406.7 402.1,402 410.5,415 	"/>
	<path class="st0" d="M401.2,395c-0.2,1.5-1.6,2.6-3.2,2.3c-1.5-0.2-2.6-1.6-2.3-3.2c0.2-1.5,1.6-2.6,3.1-2.3
		C400.4,392.1,401.4,393.5,401.2,395z"/>
	
		<rect x="70.7" y="342.5" transform="matrix(0.8827 -0.4699 0.4699 0.8827 -157.5596 84.1172)" class="st1" width="38" height="30.4"/>
	
		<rect x="72" y="344.4" transform="matrix(0.8827 -0.4699 0.4699 0.8827 -157.5652 84.1155)" class="st2" width="35.3" height="26.5"/>
	<polygon class="st0" points="80.4,377.7 83.5,357.3 95.1,362.9 97.1,355.5 111.6,361.1 	"/>
	<path class="st0" d="M92.2,350.4c0.7,1.4,0.2,3-1.2,3.8c-1.4,0.7-3,0.2-3.8-1.2c-0.7-1.4-0.2-3,1.1-3.8
		C89.8,348.6,91.4,349.1,92.2,350.4C92.2,350.4,92.2,350.4,92.2,350.4z"/>
</g>
<g id="freepik--Globe--inject-6">
	<path class="st3" d="M375.4,185.8c-1.3-2.9-1.6-6.2-2.5-9.3c-0.5-1.7-1.2-3.4-2.8-4.2c-1.1-0.3-2.2-0.6-3.4-0.8
		c-4-1.2-5-6.7-8.8-8.4c-1.2-0.4-2.5-0.7-3.8-0.8c-5-0.6-10.2-2.3-13.3-6.2c-0.9-1.4-1.9-2.6-3.1-3.8c-1.3-1-3.3-1.5-4.5-0.4
		l3.1,6.3c0.8,2,2,3.7,3.5,5.3c1.6,1.4,4,2.2,5.9,1.3c0.6-0.4,1.3-0.7,2-0.7c0.5,0.1,1,0.4,1.3,0.8c2.7,3,1.8,8-0.8,11.1
		s-6.6,4.7-10.4,6.2c-1.3,0.7-2.8,0.9-4.2,0.8c-2.6-0.5-4-3.3-4.8-5.9c-1.7-5.7-2.5-11.8-6-16.6c-1.1-1.5-2.5-2.9-3.2-4.6
		c-0.7-1.9-0.5-4.1-1.7-5.8s-3.7-2.8-3.9-4.9c-0.1-1.5,1.1-2.8,2.5-3.4s2.9-0.8,4.3-1.4c0.5-0.2,1.2-0.6,1.2-1.2
		c0-0.9-1.2-1.2-1.5-2.1s0.6-1.8,1-2.7c0.9-2.1-1.3-4.2-3.4-5s-4.6-1.5-5.6-3.5c-0.3-1-0.6-2-0.7-3c-0.5-2.6-2.4-5-4.9-5.4
		s-5.5,1.9-5,4.5c0.2,1.4,1.3,2.5,1.9,3.8s0.4,3.2-0.9,3.7c-2.2,0.7-4.4-3.4-6.2-2c0.8,2.6,1.5,5.2,2.3,7.8
		c-2.9,1.5-6.4-1.2-7.6-4.2s-1.3-6.5-2.8-9.4s-5.5-5.1-8-3c-0.1,3.8,4.8,5.3,7,8.3c1.6,2.2,1.4,5.8-1,7.2s-6-1-5.1-3.6
		c0.3-0.9,1.1-1.6,1.1-2.6c0.1-1.2-0.9-2.1-1.8-2.9l-4.2-3.6c-0.9-0.8-1.9-1.5-3-1.9c-2.9-0.8-5.8,1.5-7.4,4.1s-2.4,5.7-4.5,7.9
		c-3.1,3.2-8.9,3.4-11.7,0s-1.4-9.5,2.8-10.7c1.6-0.4,3.6-0.4,4.5-1.8c1.5-2.5-2.8-5.7-1.3-8.3c1.1-1.9,4.1-1,6.2-1.7
		s3.3-2.8,4.6-4.7s3.2-3.7,5.4-3.2c-0.3-1.3-0.2-2.6,0.2-3.8c0.6-1.2,2.2-2,3.2-1.2c-1.1,1.8,0.2,4.2,2.1,5.1s4.1,0.7,6.1,0.4
		s4.7-1,4.8-3.1c-0.1-0.7-0.1-1.3,0.1-2c0.9-2.5,5.5,0.9,7.2-1.1c1-1-0.1-2.9-1.5-3.2s-2.9,0.2-4.3,0.2s-3.2-0.7-3.2-2.1
		s1.5-2.4,1.7-3.8c0.3-2.4-3.7-3-5.1-1.1s-0.9,4.6-0.5,6.9s0.7,5.1-1.1,6.8c-0.7,1.1-2.7,0.5-3.3-0.7s-0.5-2.6-0.6-4s-0.7-2.9-2-3.2
		c-0.9-0.1-1.9,0-2.8,0.3c-3.7,0.4-6.2-4.3-5.1-7.8s4.5-5.8,7.7-7.6c2.4-1.3,5.3-2.5,7.6-1.2c1.1,0.6,1.9,1.7,2.9,2.3
		c1.9,1.1,4.2,0.7,6.3,0.7c3.4,0.1,6.6,1.4,9.2,3.6c1,0.9,1.8,2.3,1.1,3.3s-3.1,1.3-2.7,2.6c2.4,0.7,5-0.7,5.6-3.2
		c0-0.2,0.1-0.3,0.1-0.5c1.3,0.6,2.1,1.8,2.2,3.2c2.8-2.5,7.1-2.4,9.7,0.4c0.1,0.1,0.2,0.3,0.3,0.4c0.5,0.9,1.1,1.7,1.9,2.3
		c0.9,0.6,2.3,0.3,2.4-0.7c0-0.3,0-0.6-0.2-0.9c-0.5-1.4-1-2.8-1.5-4.3c2-1.1,4.3,0.6,5.6,2.4c4.9,6.6,8.5,2.6,15.4,3.7
		c4.7,0.7,6.8,3.7,9.5,7.4c8.1,11.2,18.9,20.5,26.3,32.2c0.8,1.2,1.5,2.5,2.2,3.7c-0.1-0.3-0.2-0.6-0.4-0.9
		c-2.9-7.6-6.5-15-10.8-21.9c-0.9-1.5-1.8-2.9-2.8-4.4c-0.6-0.9-1.2-1.8-1.8-2.7c-0.8-1.1-1.6-2.2-2.4-3.3c-0.7-0.9-1.3-1.8-2-2.6
		c-0.5-0.6-1-1.2-1.4-1.8s-1.1-1.3-1.6-2l-1.8-2c-0.2-0.2-0.4-0.4-0.6-0.6c-0.6-0.7-1.3-1.4-1.9-2.1c0-0.1-0.1-0.2-0.2-0.2
		c-0.2-0.2-0.4-0.4-0.5-0.6c-0.5-0.6-1.1-1.2-1.6-1.7c-0.9-0.9-1.8-1.9-2.8-2.8c-0.8-0.8-1.6-1.5-2.4-2.3s-1.4-1.3-2.2-1.9
		s-1.4-1.2-2.2-1.9c-0.9-0.8-1.8-1.5-2.7-2.2l0,0c-2.6-2.1-5.2-4-7.9-5.8c-0.7-0.5-1.3-0.9-2-1.3s-1.4-0.9-2-1.3s-1.4-0.9-2.1-1.3
		s-1.4-0.8-2.1-1.2s-1.1-0.7-1.7-1c-0.3-0.2-0.6-0.3-0.9-0.5c-1.2-0.7-2.4-1.3-3.6-1.9c-0.6-0.3-1.2-0.6-1.9-0.9s-1.6-0.8-2.4-1.1
		c-0.1-0.1-0.2-0.1-0.4-0.2c-0.7-0.3-1.4-0.7-2.2-1l-3.1-1.3c-1.2-0.5-2.4-1-3.6-1.4s-2.7-1-4-1.4s-2.7-0.9-4.1-1.3
		s-2.8-0.8-4.1-1.2c-2.8-0.7-5.5-1.4-8.4-2h-0.1c-1.1-0.2-2.1-0.4-3.2-0.6c-0.1,0-0.1,0-0.2,0c-0.5-0.1-1-0.2-1.4-0.2
		c-2-0.3-4-0.6-6.1-0.8c-0.2,0-0.5-0.1-0.7-0.1c-0.6-0.1-1.2-0.1-1.8-0.2c-1.4-0.1-2.7-0.2-4.1-0.3s-2.9-0.2-4.3-0.2s-3-0.1-4.5-0.1
		c-4,0-7.9,0.2-11.8,0.5c-0.9,0.1-1.8,0.2-2.8,0.2l-2.9,0.3l-2.8,0.4c-0.9,0.2-1.9,0.3-2.8,0.5s-1.6,0.3-2.4,0.4
		c-2,0.4-3.9,0.8-5.9,1.3c-0.9,0.2-1.8,0.4-2.7,0.7s-1.8,0.5-2.7,0.7c-1.5,0.4-3,0.9-4.4,1.3l0,0l-3.6,1.2h-0.1
		c-1.2,0.4-2.4,0.9-3.5,1.3l-0.2,0.1c-1.1,0.4-2.2,0.9-3.2,1.3c-1.3,0.5-2.6,1.1-3.9,1.7c-1.1,0.5-2.2,1-3.2,1.5s-2.3,1.1-3.4,1.7
		l-0.1,0.1c-1.1,0.6-2.1,1.2-3.2,1.8c-1.1,0.6-2.2,1.2-3.2,1.9l0,0c-1,0.6-2,1.2-3,1.9c-0.4,0.2-0.7,0.5-1.1,0.7
		c-1.1,0.7-2.1,1.4-3.1,2.1c-1.3,0.9-2.5,1.8-3.7,2.7c-1.1,0.8-2.1,1.6-3.2,2.4c-6,4.8-11.5,10-16.6,15.7c-1.8,2-3.5,4-5.1,6.1
		c-1.4,1.8-2.8,3.6-4,5.4c-1.2,1.6-2.3,3.3-3.4,4.9c1.1-1.7,2.2-3.3,3.4-4.9c0.3,0,0.7-0.1,1-0.1c1.9-0.2,3.9-0.1,5.6-0.9
		s2.7-2.2,4.1-3.2c3.7-2.6,9.7-3.1,10.7-7.5c0.3-1.5-0.1-3.1,0.5-4.5c1-2.6,4.6-3,7.4-3c1.2,0,2.6,0.2,3.2,1.2
		c0.3,0.8,0.3,1.7-0.1,2.5c-1.8,5-5.2,9.2-9.7,11.9c-3.7,2.2-8.5,4-9.5,8.2c0.5,1.4,3.1,1.3,3.3,2.8c0.1,1.2-1.4,1.8-1.9,2.9
		c-0.8,1.5,1,3.4,2.8,3.3s3.2-1.3,4.5-2.5c3.8-3.6,7.9-7.4,9.3-12.5c0.6-2.1,0.8-4.5,2.5-5.9c1.9-1.3,4.4-0.9,5.8,1
		c0.2,0.3,0.4,0.7,0.5,1c1.7-0.9,4.3-1.6,5.1,0.1c0.2,0.7,0.3,1.3,0.4,2c0.6,2.7,4.2,3.9,4.6,6.7c0.4,3.2-3.6,4.8-6.7,5.3l-8.6,1.3
		c-1.3,0.1-2.5,0.5-3.6,1.1c-1.1,0.7-1.5,2.1-1.1,3.3c0.4,0.6,0.9,1.1,1.5,1.5c2.4,2.4,0.4,7.2-2.9,7.3c-1.1,0-2.3-0.4-3.4-0.4
		c-3.4-0.2-6.1,2.8-7.7,5.8s-2.8,6.4-5.5,8.4c-4.4,3.3-11.9,2.5-14,7.5c-0.8,2-0.4,4.3-0.1,6.5s0.5,4.6-0.8,6.4s-4.5,2.1-5.4,0.2
		c-0.3-0.9-0.4-1.9-0.1-2.8c0.5-3.1,1-6.3,1.5-9.4c0.4-2.3,0.7-4.9-0.7-6.8c-1.9-2.7-6.2-2.4-8.7-0.3s-3.5,5.5-4.2,8.7
		c-0.5,2.9-1.3,5.7-2.4,8.4l0,0c-0.4,2.6-0.8,5.3-1.1,8s-0.5,5.5-0.6,8.3c0.4-0.3,0.7-0.6,1.1-1c1.3-1.4,4-7.2,6.4-4.3
		c0.6,0.8,0.6,1.9,0,2.6c-0.7,0.9-2.2,1.2-2.8,2.2c-0.7,1.2,0.3,2.7,1.4,3.5s2.5,1.3,3.3,2.5c1.6,2.2,0.1,5.6,1.6,7.8
		c1.3,1.9,4,2.1,6.4,2.3l0.8,0.1c0.6-4.6,2.8-8.4,9.2-9.9c8.7-2,20.2,5.3,25.2,11.9c5.5,7.4,8.1,17.8,16.5,21.5
		c6,2.6,14.6,1.7,17.5,7.6c2.6,5.3-1.9,11.2-2.6,17.1c-0.4,3.9,0.8,7.7,1.1,11.6s-0.9,8.4-4.4,10c-2,0.9-4.4,0.8-6,2.3
		c-2.8,2.7-0.5,8.1-3.3,10.8c-1,0.9-2.4,1.3-3.6,1.9c-6.3,3.2-6.1,12.5-3.2,18.9c0.1,0.2,0.2,0.5,0.3,0.7
		c20.7,12.4,44.4,18.9,68.5,18.9c21.8,0,43.4-5.3,62.6-15.6l0,0c4.1-2.2,8-4.5,11.8-7.1c5.9-3.9,11.4-8.4,16.6-13.2
		c3.6-3.3,7-6.9,10.1-10.6c2.2-2.6,4.4-5.3,6.4-8c1-1.4,2-2.8,3-4.3c2.9-4.3,5.6-8.7,8-13.3c7-13.6,11.7-28.3,13.7-43.4
		c0.4-3,0.7-6,0.9-9.1c-1.4,1.5-3.3,2.3-5.4,2.4C379.3,191.5,376.6,188.8,375.4,185.8z"/>
	<path class="st2" d="M222.8,81.8c-2.6,1.6-4,4.6-6.1,6.9s-5.7,4-8.1,2c-1.1-1-1.8-2.4-1.8-3.9c-0.2-2.1,0.3-4.3,1.4-6.1
		c1.1-1.9,2.9-3.3,3.9-5.3s0.8-4.9-1.2-5.8c-1.1-0.5-2.4-0.3-3.4-1c-1.7-1.3-0.5-4.3,1.5-5s4.2-0.2,6.4,0c7.7,0.5,13.4-4.6,19.2-8.8
		c4.5-3.3,14.2-7.1,19.4-3.8c2.1,1.3,2.9,4.8,0.9,6.3c-0.9,0.7-2.1,0.8-2.9,1.6c-1,0.9-1.1,2.4-1.7,3.6c-1.5,3.1-5.7,4.3-7,7.5
		c-0.8,1.9-0.4,4.3-1.7,6c-1,1.3-2.7,1.8-4.3,2.2l-10.1,2.4C225.7,80.6,224.2,81.1,222.8,81.8z"/>
	<path class="st2" d="M313,246.1c-3.4,5-4,11.4-4.9,17.3s-2.5,12.3-7.1,16.3s-13,3.7-15.6-1.8c-1.4-3-0.7-6.5-1.4-9.7
		c-1-4.2-4.3-7.4-5.9-11.4c-1.3-3.4-1.4-7.1-1.5-10.8c-0.6-19.9-5.5-40.8-19-55.4c-1.7-1.8-3.6-3.6-5.9-4.2
		c-2.9-0.7-5.9,0.3-7.8,2.7c-1.1,1.4-1.6,3.3-3,4.5c-2.9,2.6-8,0.8-9.9-2.7s-1.7-7.6-1.3-11.5l1.2-14.6c0.2-2.5,0.5-5.3,2.2-7.2
		c2.4-2.7,6.6-2.9,9.5-5c3.8-2.9,4.3-8.3,6.7-12.4s9.9-5.8,11-1.2c7.9-17,25.5,8.2,35.9,6.4c3-0.6,6-2,9-1.6
		c5.4,0.8,8.2,6.7,10,11.8c3.1,8.5,6.1,17,9.1,25.5c1.2,3.2,2.6,6.8,5.9,8.1c2.5,0.9,5.3,0.2,7.8,1.1c6.5,2.4,4.4,12.7-0.9,17.2
		s-12.6,7.4-15.1,13.9c-1.9,4.9-0.4,10.6-2.4,15.5C318.1,240.5,315.1,243,313,246.1z"/>
	<path class="st2" d="M337.9,251.6c-2.1,0.3-4.7-0.8-6.3,0.7c-1,0.8-1.2,2.2-1.5,3.4c-0.5,1.7-1.6,3.2-3,4.2c-1.5,1-3.5,0.9-5-0.1
		c-1.5-1.1-1.8-3.2-0.7-4.7c0.6-0.5,1.2-1,1.9-1.5c2.9-2.7,0.9-7.7,3.1-10.9c1.3-1.9,3.3-3.8,4.7-5.7c1.1-1.5,1.5-2.6,3.5-3
		C343.1,232.2,347,250.4,337.9,251.6z"/>
	<g class="st4">
		<path class="st5" d="M180.4,291.2c1.1,0.8,2.3,1.5,3.4,2.2c0.8,0.5,1.6,1,2.4,1.5c-0.8-0.5-1.6-1-2.4-1.5
			C182.6,292.7,181.5,291.9,180.4,291.2z"/>
	</g>
	<g class="st4">
		<path class="st5" d="M121.3,174.8L121.3,174.8L121.3,174.8L121.3,174.8c0,0.3,0,0.5,0,0.7c0,0.8,0,1.6,0,2.4c0-0.8,0-1.6,0-2.4
			C121.3,175.2,121.3,175,121.3,174.8z"/>
	</g>
	<path class="st2" d="M138.6,215.4c-0.4-3.8,0.8-7.6,0.9-11.5c0-2.7-0.1-5.5-0.2-8.2c-2.3-0.1-4.6-0.4-6.8-0.9
		c-0.5-0.1-0.9-0.3-1.2-0.6c-0.2-0.4-0.3-0.9-0.3-1.4c-0.2-3-3.1-5-5.7-6.5c-1.3-0.8-2.7-1.5-4.1-2c0,0.3,0,0.6,0,0.9
		c0.5,14.5,3.4,28.8,8.5,42.4c2.3,6,5,11.9,8.2,17.5c1.3,2.4,2.8,4.8,4.2,7.2c1.9,2.9,3.8,5.7,5.9,8.5s4,5.2,6.2,7.6
		c3,3.4,6.1,6.7,9.4,9.8c2.9,2.7,6,5.3,9.2,7.8c-7.3-19.6-14.2-39.5-26.6-56.2C143,225.2,139.2,220.8,138.6,215.4z"/>
	<path class="st2" d="M139.6,190.6l-0.8-0.1c-2.4-0.2-5.1-0.4-6.4-2.3c-1.5-2.3,0-5.6-1.6-7.8c-0.8-1.2-2.2-1.7-3.3-2.5
		s-2.1-2.3-1.4-3.5c0.6-1,2.1-1.2,2.8-2.2c0.6-0.8,0.6-1.9,0-2.6c-2.4-2.9-5.1,3-6.4,4.3c-0.3,0.4-0.7,0.7-1.1,1l0,0
		c0,0.3,0,0.5,0,0.7c0,0.8,0,1.6,0,2.4s0,1.6,0,2.4c0,0.6,0,0.6,0,1.3s0,2,0.1,2.6c1.4,0.5,2.8,1.2,4.1,2c2.6,1.5,5.5,3.5,5.7,6.5
		c0,0.5,0.1,1,0.3,1.4c0.3,0.4,0.8,0.6,1.2,0.6c2.2,0.5,4.5,0.8,6.8,0.9"/>
	<path class="st2" d="M139.3,195.7c0,2.7,0.2,5.5,0.2,8.2c-0.1,3.9-1.3,7.7-0.9,11.5c0.6,5.4,4.4,9.9,7.6,14.2
		c12.5,16.6,19.3,36.6,26.6,56.2l0,0c1.4,1.1,2.7,2.1,4.1,3.1c1.1,0.8,2.2,1.6,3.3,2.3s2.3,1.5,3.4,2.2c0.8,0.5,1.6,1,2.4,1.5
		c-0.1-0.2-0.2-0.4-0.3-0.7c-2.9-6.4-3.1-15.7,3.2-18.9c1.2-0.6,2.6-1,3.6-1.9c2.8-2.7,0.5-8.1,3.3-10.8c1.6-1.5,4.1-1.4,6-2.3
		c3.5-1.6,4.7-6.1,4.4-10s-1.6-7.7-1.1-11.6c0.7-5.9,5.3-11.8,2.6-17.1c-2.9-5.9-11.5-4.9-17.5-7.6c-8.4-3.7-11-14.1-16.5-21.5
		c-4.9-6.6-16.4-13.9-25.1-11.9c-6.3,1.4-8.5,5.2-9.2,9.9"/>
	<path class="st2" d="M129.6,141.4c2.5-2.1,6.8-2.4,8.7,0.3c1.4,1.9,1.1,4.5,0.7,6.8c-0.5,3.1-1,6.2-1.5,9.4
		c-0.2,0.9-0.2,1.9,0.1,2.8c0.9,2,4.2,1.6,5.4-0.2s1.1-4.2,0.8-6.4s-0.8-4.5,0.1-6.5c2.1-5,9.6-4.3,14-7.5c2.7-2,3.9-5.4,5.5-8.4
		s4.3-6,7.7-5.8c1.1,0,2.3,0.5,3.4,0.4c3.3-0.1,5.3-5,2.9-7.3c-0.6-0.4-1.1-1-1.5-1.5c-0.5-1.2,0-2.6,1.1-3.3c1.1-0.7,2.3-1,3.6-1.1
		l8.6-1.3c3.1-0.5,7.2-2.1,6.7-5.3c-0.4-2.7-4.1-4-4.6-6.7c0-0.7-0.2-1.3-0.4-2c-0.9-1.7-3.5-1-5.1-0.1c-0.8-2.2-3.1-3.3-5.3-2.5
		c-0.4,0.1-0.7,0.3-1,0.5c-1.7,1.4-1.9,3.8-2.5,5.9c-1.4,5.1-5.4,8.9-9.3,12.5c-1.3,1.2-2.8,2.4-4.5,2.5s-3.6-1.8-2.8-3.3
		c0.6-1.1,2.1-1.7,1.9-2.9c-0.2-1.5-2.8-1.4-3.3-2.8c1-4.2,5.8-5.9,9.5-8.2c4.5-2.7,7.9-6.9,9.7-11.9c0.4-0.8,0.4-1.7,0.1-2.5
		c-0.6-1-2-1.2-3.2-1.2c-2.8,0-6.4,0.3-7.4,3c-0.6,1.4-0.1,3-0.5,4.5c-1,4.4-7,4.9-10.7,7.5c-1.4,1-2.6,2.4-4.1,3.2
		s-3.7,0.8-5.6,0.9c-0.3,0-0.7,0.1-1,0.1c-1.2,1.6-2.3,3.3-3.4,4.9c-1.1,1.7-2.1,3.4-3.1,5.1c-4.8,8.2-8.7,16.8-11.6,25.8
		c-1,3.1-2,6.4-2.7,9.6s-1.5,6.6-2,9.9c1.1-2.7,1.9-5.5,2.4-8.4C126.1,146.9,127.1,143.6,129.6,141.4z"/>
	<path class="st2" d="M388.1,178.5l-0.2,10.6c0,0-3.4,2.5-5.4,2.4c-3.2,0-5.9-2.7-7.2-5.7c-1.3-3-1.6-6.2-2.5-9.3
		c-0.5-1.7-1.2-3.5-2.8-4.2c-1.1-0.3-2.2-0.6-3.4-0.8c-4-1.2-5-6.7-8.8-8.4c-1.2-0.4-2.5-0.7-3.8-0.8c-5-0.6-10.2-2.3-13.3-6.2
		c-0.9-1.4-1.9-2.6-3.1-3.8c-1.3-1-3.3-1.5-4.5-0.4l3.1,6.3c0.8,2,2,3.8,3.5,5.3c1.6,1.4,4,2.2,5.9,1.3c0.6-0.4,1.3-0.7,2-0.7
		c0.5,0.1,1,0.4,1.3,0.8c2.7,3,1.8,8-0.8,11.1c-2.7,3.1-6.6,4.7-10.4,6.2c-1.3,0.7-2.8,0.9-4.2,0.8c-2.6-0.5-4-3.3-4.8-5.9
		c-1.7-5.7-2.5-11.8-6-16.6c-1.1-1.5-2.5-2.9-3.2-4.6c-0.7-1.9-0.5-4.1-1.7-5.8c-1.1-1.7-3.7-2.8-3.9-4.9c-0.1-1.5,1.1-2.8,2.5-3.4
		c1.3-0.6,2.9-0.8,4.3-1.4c0.5-0.2,1.2-0.6,1.2-1.2c0-0.9-1.2-1.2-1.5-2.1c-0.3-0.8,0.6-1.8,1-2.7c0.9-2.1-1.3-4.2-3.4-5
		c-2.1-0.8-4.6-1.5-5.6-3.5c-0.3-1-0.6-2-0.7-3c-0.5-2.5-2.4-5-4.9-5.5c-2.6-0.4-5.5,1.9-5,4.5c0.2,1.4,1.3,2.5,1.9,3.8
		c0.6,1.3,0.4,3.2-0.9,3.7c-2.2,0.7-4.4-3.4-6.2-2c0.8,2.6,1.5,5.2,2.3,7.8c-2.9,1.5-6.4-1.2-7.7-4.2s-1.3-6.5-2.8-9.4
		c-1.5-2.9-5.5-5.1-8-3c-0.1,3.8,4.8,5.3,7,8.3c1.6,2.2,1.4,5.8-1,7.2c-2.3,1.4-6-1-5.1-3.6c0.3-0.9,1.1-1.6,1.1-2.6
		c0.1-1.2-0.9-2.1-1.8-2.9l-4.2-3.6c-0.9-0.8-1.9-1.5-3-1.9c-2.9-0.8-5.8,1.5-7.4,4.1c-1.5,2.6-2.4,5.7-4.5,7.9
		c-3.1,3.2-8.9,3.4-11.7,0c-2.9-3.4-1.4-9.5,2.8-10.7c1.6-0.4,3.6-0.4,4.5-1.8c1.5-2.5-2.8-5.7-1.3-8.3c1.1-1.9,4.1-1,6.2-1.7
		c2.2-0.7,3.3-2.8,4.6-4.7c1.2-1.8,3-3.5,5-3.3l-0.3,1.6l0.9,2.7l0.8,4.4l4.3,4.6l3.7,0.2l2.1-2.9l2.3,0.4v-4.9l-1.1-5.6
		c1.9-0.3,4.1-1.1,4.2-3c-0.1-0.7,0-1.3,0.1-2c0.9-2.5,5.5,0.9,7.2-1.1c1-1-0.1-2.9-1.5-3.2c-1.4-0.3-2.9,0.2-4.3,0.2
		c-1.4,0-3.2-0.7-3.2-2.1s1.5-2.4,1.7-3.8c0.3-2.4-3.7-3-5.1-1.1c-1.4,1.9-0.9,4.6-0.5,6.9c0.4,2.3,0.7,5.1-1.1,6.8
		c-0.7,1.1-2.7,0.5-3.3-0.7c-0.6-1.2-0.5-2.6-0.6-4c-0.1-1.4-0.7-2.9-2-3.2c-0.9-0.1-1.9,0-2.8,0.3c-3.7,0.4-6.2-4.3-5.1-7.8
		c1.2-3.5,4.5-5.8,7.7-7.6c2.4-1.3,5.3-2.5,7.7-1.2c1.1,0.6,1.9,1.7,2.9,2.3c1.9,1.1,4.2,0.7,6.3,0.7c3.4,0.1,6.6,1.4,9.2,3.6
		c1,0.9,1.8,2.3,1.1,3.3c-0.7,1-3.1,1.3-2.7,2.6c2.4,0.7,5-0.8,5.6-3.2c0-0.2,0.1-0.3,0.1-0.5c1.3,0.6,2.1,1.8,2.2,3.2
		c2.8-2.5,7.1-2.4,9.7,0.4c0.1,0.1,0.2,0.3,0.3,0.4c0.5,0.9,1.1,1.7,1.9,2.3c0.8,0.6,2.3,0.3,2.4-0.7c0-0.3,0-0.6-0.2-0.9
		c-0.5-1.4-1-2.9-1.5-4.3c2-1.1,4.3,0.6,5.6,2.4c4.9,6.6,8.5,2.6,15.4,3.7c4.7,0.7,6.8,3.7,9.4,7.4c8.2,11.2,18.9,20.5,26.3,32.2
		c0.8,1.2,1.5,2.5,2.2,3.7c0.6,1.7,1.2,3.4,1.8,5.1c0.6,1.7,1.1,3.4,1.6,5.2c1.3,4.3,2.4,8.7,3.2,13.1c0,0,0.9,7.5,1.1,10
		c0.2,1.9,0.3,3.8,0.4,5.7C388,174.6,388.1,176.5,388.1,178.5z"/>
	<path class="st5" d="M388.7,180.3c0,0,0-0.7-0.1-2.2c0-0.7,0-1.6-0.1-2.7s0-2.3-0.2-3.7l-0.4-4.7c-0.2-1.7-0.5-3.6-0.7-5.6
		c-0.6-4.1-1.5-8.7-2.7-13.9c-1.5-5.7-3.3-11.3-5.5-16.8c-2.6-6.5-5.7-12.8-9.3-18.9c-8.8-14.7-20.4-27.6-34-38.1
		c-16.6-12.6-35.9-21.2-56.4-25c-17.4-3.2-35.2-3-52.4,0.6c-6.1,1.3-12.1,3-17.9,5.1c-12.1,4.4-23.5,10.6-33.9,18.2
		c-5.3,4-10.4,8.3-15.1,13c-4.8,4.8-9.2,10-13.2,15.4c-4.1,5.6-7.7,11.4-10.9,17.6c-0.8,1.6-1.6,3.1-2.3,4.7s-1.4,3.2-2.2,4.8
		c-1.3,3.3-2.6,6.5-3.7,9.9c-2.3,6.7-4,13.7-5.1,20.7c-1.1,7.1-1.7,14.3-1.8,21.5c0,7.2,0.6,14.4,1.8,21.5c1.1,7,2.8,13.9,5.1,20.7
		l0.9,2.5l0.4,1.2l0.5,1.2c0.7,1.6,1.3,3.3,1.9,4.9c0.6,1.6,1.3,3.2,2.2,4.8c0.7,1.6,1.6,3.1,2.3,4.7c3.2,6.1,6.8,12,10.9,17.6
		c4,5.5,8.5,10.6,13.2,15.4c4.7,4.7,9.8,9,15.1,13c5.2,3.9,10.7,7.4,16.5,10.4c5.6,3,11.4,5.6,17.4,7.8c5.8,2.1,11.8,3.8,17.9,5.1
		c17.3,3.6,35.1,3.8,52.4,0.6c20.5-3.8,39.8-12.4,56.4-25c13.6-10.4,25.2-23.3,34-38.1c3.6-6,6.7-12.3,9.3-18.9
		c2.2-5.5,4.1-11.1,5.5-16.9c1.3-5.2,2.1-9.8,2.7-13.9c0.2-2,0.5-3.9,0.7-5.6s0.3-3.3,0.4-4.7s0.2-2.6,0.2-3.7s0.1-2,0.1-2.7
		C388.6,181,388.7,180.3,388.7,180.3c0,0,0,0.7,0,2.1c0,0.7,0,1.6-0.1,2.7s0,2.3-0.2,3.7s-0.2,3-0.4,4.7s-0.4,3.6-0.7,5.6
		c-0.7,4.7-1.5,9.3-2.7,13.9c-3.2,12.6-8.1,24.7-14.8,35.8c-8.8,14.8-20.3,27.7-34,38.2c-16.6,12.7-36,21.3-56.5,25.1
		c-17.4,3.2-35.3,3-52.6-0.6c-12.4-2.6-24.3-6.9-35.4-12.9c-5.8-3.1-11.3-6.6-16.6-10.5c-5.3-4-10.4-8.4-15.2-13
		c-4.8-4.8-9.2-10-13.3-15.5c-4.1-5.6-7.8-11.5-10.9-17.6c-0.8-1.6-1.6-3.1-2.3-4.7l-2.2-4.8c-0.7-1.6-1.3-3.3-1.9-4.9l-0.5-1.2
		l-0.4-1.3l-0.8-2.5c-2.3-6.8-4-13.7-5.1-20.8c-1.1-7.2-1.7-14.4-1.8-21.6c0-7.2,0.6-14.5,1.8-21.6c1.1-7.1,2.8-14,5.1-20.8
		c1.1-3.4,2.4-6.7,3.7-9.9l2.2-4.8c0.7-1.6,1.6-3.1,2.3-4.7c3.2-6.2,6.8-12,10.9-17.6c4.1-5.5,8.5-10.6,13.3-15.5
		c4.7-4.7,9.8-9,15.1-13.1c10.4-7.7,21.8-13.8,34-18.3c5.9-2.1,11.9-3.8,18-5.1c17.3-3.6,35.2-3.8,52.6-0.6
		c20.5,3.9,39.9,12.5,56.5,25.1c13.7,10.5,25.2,23.4,34,38.2c3.6,6,6.7,12.4,9.3,18.9c2.2,5.5,4,11.1,5.5,16.9
		c1.1,4.6,2,9.2,2.7,13.9c0.2,2,0.5,3.9,0.7,5.6s0.2,3.3,0.4,4.7s0.1,2.6,0.2,3.7s0,2,0.1,2.7C388.7,179.6,388.7,180.3,388.7,180.3z
		"/>
</g>
<g id="freepik--Airplane--inject-6">
	<polygon class="st5" points="229,129.8 228.3,94.3 216.2,100.6 211,121.9 	"/>
	<polygon class="st5" points="215.2,146.1 202.5,152.4 197.7,151.9 206.1,145.3 214.3,143.6 	"/>
	<polygon class="st0" points="129.1,124.7 81.6,161.6 135,127.2 	"/>
	<path class="st5" d="M158.8,134.6c-0.7,0.4-69.6,27.8-69.6,27.8l-7.6-0.8l52.3-37.2L158.8,134.6z"/>
	<path class="st6" d="M144.4,143.2l-5.8-2.4c-1-0.4-1.5-1.6-1.1-2.6l0-0.1c0.4-1,1.6-1.5,2.6-1.1l5.8,2.4c1,0.4,1.5,1.6,1.1,2.6
		l0,0.1C146.6,143.1,145.4,143.6,144.4,143.2z"/>
	<path class="st6" d="M111.4,158.9l-5.8-2.4c-1-0.4-1.5-1.6-1.1-2.6l0-0.1c0.4-1,1.6-1.5,2.6-1.1l5.8,2.4c1,0.4,1.5,1.6,1.1,2.6
		l0,0.1C113.7,158.8,112.5,159.3,111.4,158.9z"/>
	<path class="st7" d="M114.9,129.1c0,0,20.7,2.9,17.8,13.7s-23.4-0.6-23.4-0.6s-3-1.7-1.9-7.5S114.9,129.1,114.9,129.1z"/>
	<path class="st5" d="M109.3,134.3c0.4-1.4,1.1-2.6,2.2-3.6c1.1-1,2.8-1,4-0.1l0.6,0.4c1.5,1.6,2,4,1.2,6.1c0.1-0.2,0.1-0.4,0.2-0.7
		c-0.4,2.2-1.7,4.2-3.5,5.6c-0.5,0.4-1,0.6-1.6,0.7c-0.8,0-1.5-0.3-2.1-0.9c-0.9-1-1.5-2.2-1.5-3.6
		C108.7,136.9,108.9,135.6,109.3,134.3z"/>
	<path class="st8" d="M239.9,134.7c0,0,8.5,8.5-7.6,10.5s-44,1-75.4-9.7s-59.3-25.8-64.2-29.7c-3.6-2.9-9.4-7.9-7.4-15.1
		c1.2-3.7,4-6.7,7.7-7.9c6.9-2.6,14.4-3.1,21.6-1.3C128.6,85.1,239.9,134.7,239.9,134.7z"/>
	<path class="st5" d="M239.9,134.7c0,0-0.3-0.1-0.8-0.4l-2.4-1.1l-9.4-4.1L192.6,114c-14.6-6.3-32.1-13.9-51.6-22.1
		c-4.9-2-9.9-4.1-15-6.1c-2.6-1-5.2-2-7.8-3c-1.3-0.4-2.7-0.9-4-1.3c-1.4-0.3-2.8-0.6-4.2-0.7c-5.8-0.6-11.6,0.1-17.1,2.2
		c-2.8,1-5.1,3-6.5,5.6c-1.4,2.6-1.6,5.8-0.6,8.6c1.2,2.7,3.1,5.1,5.4,7c2.3,1.9,4.7,3.6,7.3,5c5.1,3,10.3,5.6,15.5,8.2
		c10.3,5,20.5,9.4,30.3,13.3c9.3,3.7,18.8,6.8,28.4,9.4c8.4,2.2,17,3.8,25.6,4.8c7.1,0.9,14.3,1.2,21.5,1.1c3.2,0,6.1-0.2,8.8-0.4
		c2.5-0.2,4.9-0.5,7.3-1.1c1.9-0.4,3.7-1.3,5.1-2.7c0.5-0.6,0.8-1.3,0.9-2.1c0-0.6-0.1-1.3-0.3-1.9c-0.3-0.8-0.7-1.6-1.3-2.3
		C240.1,134.9,239.9,134.7,239.9,134.7c0.2,0.2,0.4,0.4,0.6,0.7c0.6,0.7,1,1.5,1.3,2.3c0.2,0.6,0.4,1.3,0.3,2
		c-0.1,0.8-0.4,1.6-0.9,2.2c-1.1,1.4-3.1,2.2-5.2,2.8c-2.4,0.6-4.9,0.9-7.4,1.1c-2.7,0.2-5.6,0.4-8.8,0.5
		c-7.2,0.1-14.4-0.2-21.5-1.1c-8.7-1-17.2-2.6-25.7-4.7c-9.7-2.5-19.2-5.6-28.5-9.3c-9.9-3.8-20-8.2-30.4-13.2
		c-5.2-2.5-10.4-5.2-15.5-8.2c-2.6-1.4-5.1-3.1-7.4-5.1c-2.4-1.9-4.3-4.4-5.6-7.2c-1.1-2.9-0.9-6.2,0.6-9c1.5-2.7,3.9-4.8,6.8-5.9
		c5.5-2.1,11.5-2.9,17.3-2.2c1.4,0.2,2.9,0.4,4.2,0.8c1.4,0.4,2.7,0.9,4.1,1.3c2.6,1,5.3,2,7.8,3c5.1,2,10.1,4.1,15,6.1
		c19.5,8.2,36.9,15.8,51.5,22.2l34.6,15.3l9.4,4.2l2.4,1.1L239.9,134.7z"/>
	<polygon class="st5" points="213.5,125.8 213.5,129.1 190.8,119.3 194.2,117.4 	"/>
	<polygon class="st8" points="211.7,123.9 211.7,129.6 209.7,128.6 209.7,122.9 	"/>
	<polygon class="st8" points="207.4,121.5 207.4,127.2 205.3,126.3 205.3,120.5 	"/>
	<polygon class="st8" points="203,119.8 203,125.5 200.9,124.6 200.9,118.8 	"/>
	<polygon class="st8" points="194.4,116.4 194.4,122 192.3,121.1 192.3,115.3 	"/>
	<polygon class="st5" points="283,69.1 185.5,122.2 163.5,111.6 271.3,68.1 	"/>
	<polyline class="st8" points="167.6,103 271.3,68.1 163.5,111.6 	"/>
	<path class="st5" d="M163.5,111.6c0,0,0.2-0.1,0.5-0.2l1.6-0.7l6.1-2.5l22.4-9.1L268,69.2l3.2-1.3l0.2,0.5L197.9,93l-22.2,7.4l-6,2
		l-1.6,0.5c-0.4,0.1-0.5,0.2-0.5,0.2l0.5-0.2l1.6-0.6l6-2.1l22.1-7.5l73.4-24.8l0.2,0.5l-3.2,1.3l-74,29.8l-22.4,9l-6.1,2.4
		l-1.6,0.6C163.9,111.5,163.7,111.6,163.5,111.6z"/>
	<path class="st6" d="M236.6,98l-5-3.7c-0.9-0.7-1.1-1.9-0.4-2.8l0.1-0.1c0.7-0.9,1.9-1.1,2.8-0.4l5,3.7c0.9,0.7,1.1,1.9,0.4,2.8
		l-0.1,0.1C238.8,98.4,237.5,98.6,236.6,98z"/>
	<path class="st5" d="M271.9,119.9c-0.3,0.2-31,16-31,16l-6.7-3.8l29.4-12.7L271.9,119.9z"/>
	<polygon class="st8" points="263,119.4 260.9,119.4 230.6,130.5 234.2,132.1 	"/>
	<polygon class="st5" points="164.2,104.4 161.3,106.5 115.7,87.1 116.2,83.8 	"/>
	<polygon class="st8" points="161.6,101.8 161.6,107.5 159.6,106.6 159.6,100.8 	"/>
	<polygon class="st8" points="157,99.7 157,105.4 154.9,104.5 154.9,98.7 	"/>
	<polygon class="st8" points="152.3,97.6 152.3,103.2 150.2,102.3 150.2,96.6 	"/>
	<polygon class="st8" points="147.7,95.5 147.7,101.1 145.6,100.2 145.6,94.5 	"/>
	<polygon class="st8" points="143,93.4 143,99 140.9,98.1 140.9,92.4 	"/>
	<polygon class="st8" points="138.4,91.3 138.4,96.9 136.3,96 136.3,90.2 	"/>
	<polygon class="st8" points="133.7,89.6 133.7,95.2 131.6,94.3 131.6,88.5 	"/>
	<polygon class="st8" points="198.8,118.1 198.8,123.8 196.7,122.8 196.7,117.1 	"/>
	<polygon class="st8" points="129.1,87.6 129.1,93.2 127,92.3 127,86.5 	"/>
	<polygon class="st8" points="124.3,85.7 124.3,91.3 122.3,90.4 122.3,84.7 	"/>
	<polygon class="st8" points="119.6,83.8 119.6,89.5 117.6,88.6 117.6,82.8 	"/>
	<path class="st5" d="M105.5,84.3c0,0-7.8-2.3-12.5-1.5c1.4-0.6,2.9-1.1,4.5-1.4c0,0,2.9-1.1,8.8,0.5L105.5,84.3z"/>
	<polygon class="st0" points="197.7,151.9 203.5,145.4 206.3,145.7 	"/>
	<path class="st5" d="M197.6,152l0.2-0.2l5.8-6.4l0,0l2.9,0.2h-0.1L197.6,152z M203.6,145.5l-5.6,6.2l8.3-6L203.6,145.5z"/>
	<path class="st6" d="M216.2,108.9l-5-3.7c-0.9-0.7-1.1-1.9-0.4-2.8l0.1-0.1c0.7-0.9,1.9-1.1,2.8-0.4l5,3.7c0.9,0.7,1.1,1.9,0.4,2.8
		l-0.1,0.1C218.4,109.3,217.1,109.5,216.2,108.9z"/>
	<path class="st6" d="M258.2,86.4l-5-3.7c-0.9-0.7-1.1-1.9-0.4-2.8l0.1-0.1c0.7-0.9,1.9-1.1,2.8-0.4l5,3.7c0.9,0.7,1.1,1.9,0.4,2.8
		l-0.1,0.1C260.4,86.8,259.1,87,258.2,86.4z"/>
	<path class="st7" d="M193.1,92.1c0,0,20,6.3,15.3,16.5s-22.9-4.5-22.9-4.5s-2.7-2.2-0.6-7.8S193.1,92.1,193.1,92.1z"/>
	<path class="st5" d="M186.6,96.3c0.6-1.3,1.6-2.4,2.8-3.2c1.3-0.7,2.9-0.5,3.9,0.5l0.5,0.5c1.2,1.9,1.3,4.3,0.1,6.2l0.3-0.6
		c-0.8,2.1-2.3,3.9-4.4,4.9c-0.5,0.3-1.1,0.5-1.7,0.4c-0.8-0.1-1.4-0.6-1.9-1.2c-0.8-1.1-1.1-2.4-0.9-3.8
		C185.6,98.7,186,97.5,186.6,96.3z"/>
	<g class="st9">
		<path d="M99.6,96.5c2.8-0.8,5.3,0.7,7.7,2.1c36.6,22.1,77.6,39.7,120.4,39.6c1,0,1.9,0.6,2.2,1.5l0,0c0.5,1.2-0.1,2.6-1.3,3.1
			c-0.3,0.1-0.5,0.2-0.8,0.2c-46,1.9-91.2-11.9-128.2-39.3c-1.4-1-2.9-2.3-2.6-4.2C97.1,98.1,98.2,96.9,99.6,96.5z"/>
	</g>
</g>
<g id="freepik--Locators--inject-6">
	<path class="st7" d="M165.1,204.9c0-5.5-4.4-9.9-9.9-9.9c-5.5,0-9.9,4.4-9.9,9.9c0,1.8,0.5,3.5,1.4,5l0,0l0,0
		c0.4,0.6,0.9,1.1,1.3,1.8l5.7,7.6c0.6,0.8,1.7,0.9,2.5,0.3c0.1-0.1,0.2-0.2,0.3-0.3l5.6-7.5c0.5-0.6,1-1.2,1.4-1.9l0,0l0,0
		C164.6,208.3,165.1,206.6,165.1,204.9z M155.3,209.1c-2.4,0-4.3-1.9-4.3-4.3c0-2.4,1.9-4.3,4.3-4.3c2.4,0,4.3,1.9,4.3,4.3
		c0,0,0,0,0,0C159.6,207.2,157.7,209.1,155.3,209.1z"/>
	<path class="st7" d="M387.5,118.1c0-12.1-9.8-21.9-21.9-21.9c-12.1,0-21.9,9.8-21.9,21.9c0,3.9,1,7.8,3,11.1l0,0l0.1,0.1
		c0.8,1.4,1.9,2.4,3,3.9l12.7,16.8c1.4,1.7,3.9,2.1,5.6,0.7c0.3-0.2,0.5-0.4,0.7-0.7l12.5-16.6c1.1-1.3,2.2-2.7,3.2-4.2l0-0.1l0,0
		C386.5,125.8,387.5,122,387.5,118.1z M365.6,127.7c-5.3,0-9.7-4.3-9.7-9.6c0-5.3,4.3-9.7,9.6-9.7c5.3,0,9.7,4.3,9.7,9.6
		c0,0,0,0,0,0C375.2,123.3,370.9,127.7,365.6,127.7z"/>
</g>
<g id="freepik--Pencil--inject-6">
	<polygon class="st7" points="89.1,291.2 101.7,316.2 157.1,362.8 170.7,345 116.3,299.6 	"/>
	<g class="st10">
		<path class="st8" d="M116.3,299.6c0,0.9-0.7,1.7-1.7,1.7c-0.1,0-0.3,0-0.4-0.1c1.6,2.2,1.1,5.4-1.2,7c-1.2,0.9-2.8,1.2-4.3,0.7
			c0.8,3.1-1,6.3-4.1,7.1c-1,0.3-2.1,0.3-3.1,0l-12.4-24.8L116.3,299.6z"/>
	</g>
	<path class="st7" d="M94.2,301.2c0,0,5.3,0.9,6.1-6.6l-11.1-3.5L94.2,301.2z"/>
	<g class="st11">
		<path d="M108.8,308.9l54.6,45.2l-6.3,8.7l-55.4-46.6l-0.1-0.2c0.8,0.2,1.7,0.3,2.6,0.1c1.1-0.2,2.2-0.7,3-1.5
			c1-0.9,1.7-2.2,1.8-3.6C109,310.4,109,309.6,108.8,308.9z"/>
	</g>
	<g class="st11">
		<path d="M114.2,301.2l54.8,46.1l1.8-2.3l-54.4-45.4c0,0.9-0.8,1.6-1.7,1.7C114.5,301.3,114.4,301.2,114.2,301.2z"/>
	</g>
	<path class="st8" d="M102.8,307.7c0,0,0,0.1,0.2,0.2c0.3,0.1,0.6-0.1,0.7-0.4c0.1-0.5,0.1-1-0.1-1.4c-0.1-0.3-0.3-0.5-0.5-0.7
		c-0.3-0.2-0.6-0.3-0.9-0.1c-0.3,0.2-0.6,0.4-0.7,0.8c-0.1,0.4-0.2,0.8-0.2,1.2c-0.1,0.9,0.1,1.8,0.4,2.6c0.1,0.5,0.5,0.8,0.9,1
		c0.5,0.1,1,0,1.3-0.3c0.7-0.8,1.1-1.8,1.1-2.8c0-2.1-1.1-4-2.9-5c-0.4-0.2-0.9-0.2-1.3,0c-0.4,0.2-0.7,0.5-0.9,0.9
		c-0.4,0.6-0.8,1.4-1,2.1c-0.3,1.1-0.4,2.2-0.3,3.3c0,0.3,0.1,0.6,0.2,0.9c0,0.1,0,0.2,0.1,0.3c-0.1-0.4-0.2-0.8-0.3-1.2
		c-0.2-1.1-0.1-2.3,0.2-3.4c0.2-0.8,0.6-1.5,1-2.1c0.2-0.4,0.6-0.7,0.9-0.9c0.4-0.2,1-0.2,1.4,0c1.9,1,3,3,3,5.1
		c0,0.5-0.1,1.1-0.3,1.6c-0.1,0.5-0.4,1-0.8,1.4c-0.4,0.4-1,0.5-1.5,0.3c-0.5-0.2-0.8-0.6-1-1.1c-0.3-0.9-0.4-1.8-0.4-2.7
		c0-0.4,0.1-0.8,0.2-1.2c0.1-0.4,0.4-0.7,0.7-0.9c0.3-0.1,0.7,0,1,0.2c0.3,0.2,0.4,0.5,0.5,0.8c0.1,0.5,0.1,1,0,1.5
		c-0.1,0.3-0.4,0.5-0.8,0.4C102.9,307.8,102.8,307.8,102.8,307.7z"/>
	<path class="st8" d="M105,296.3c0,0-0.1,0.3-0.2,0.9c-0.1,0.8-0.1,1.6,0.1,2.4c0.3,1.2,0.7,2.3,1.2,3.3c0.7,1.3,1.2,2.7,1.4,4.2
		c0.2,1.5-0.1,3-0.8,4.3c-0.6,1.1-1.4,2-2.4,2.7c-0.7,0.4-1.4,0.8-2.2,1c-0.3,0.1-0.6,0.1-0.9,0.2l0.2,0l0.6-0.2
		c0.8-0.2,1.5-0.6,2.2-1c1-0.7,1.8-1.6,2.3-2.6c0.7-1.3,1-2.8,0.8-4.2c-0.2-1.4-0.7-2.8-1.3-4.1c-0.5-1.1-1-2.2-1.2-3.4
		c-0.2-0.8-0.2-1.6,0-2.4C104.8,296.9,104.9,296.6,105,296.3z"/>
	<path class="st8" d="M111.3,297.9c-0.5,0.3-0.8,0.7-1,1.3c-0.3,1.3-0.4,2.7-0.3,4c0,1.4,0.2,2.7,0.5,4c0.1,0.5,0.2,0.9,0.3,1.2
		c0,0.1,0.1,0.3,0.1,0.4c-0.1-0.1-0.1-0.3-0.2-0.4c-0.1-0.3-0.2-0.7-0.3-1.2c-0.3-1.3-0.5-2.7-0.6-4.1c0-0.8,0-1.5,0.1-2.3
		c0-0.6,0.1-1.2,0.3-1.8c0.1-0.4,0.4-0.7,0.7-1C111,298.1,111.1,298,111.3,297.9z"/>
	<path class="st8" d="M113.7,307.7c-0.2-0.3-0.3-0.5-0.4-0.8c-0.3-0.7-0.4-1.4-0.4-2.2c0-0.8,0.4-1.5,1-2c0.2-0.1,0.4-0.2,0.6-0.3
		c0.1,0,0.2,0,0.2,0c-0.3,0.1-0.6,0.2-0.8,0.4c-0.6,0.5-0.9,1.2-0.9,1.9c0,0.7,0.1,1.5,0.4,2.1C113.5,307.1,113.6,307.4,113.7,307.7
		z"/>
	<path class="st8" d="M101.4,294.9c0,0,0,0,0.1,0.1c0.1,0.1,0.1,0.2,0.1,0.4c0.1,0.2,0.1,0.4,0.1,0.6c0,0.3-0.1,0.5-0.2,0.8
		c-0.3,0.6-0.7,1.2-1.1,1.8c-0.4,0.7-0.8,1.5-1.2,2.2c-0.6,1.4-1,2.9-1.3,4.4c-0.1,0.5-0.2,1-0.3,1.4s-0.1,0.5-0.1,0.5
		c0-0.2,0-0.3,0.1-0.5c0.1-0.3,0.2-0.8,0.3-1.4c0.3-1.5,0.7-3,1.3-4.4c0.3-0.8,0.7-1.6,1.2-2.3c0.4-0.7,0.9-1.2,1.1-1.7
		c0.3-0.4,0.3-0.9,0.2-1.3C101.4,295.1,101.4,294.9,101.4,294.9z"/>
</g>
<g id="freepik--Passport--inject-6">
	<path class="st6" d="M128.9,251.9l48-24.4c4.2-2.1,9.3-0.5,11.4,3.7l0,0l31.6,62c2.1,4.2,0.5,9.3-3.7,11.4l0,0l-48,24.4l0,0
		L128.9,251.9L128.9,251.9z"/>
	<path class="st8" d="M189.3,288.4c-0.8,0.7-1.8,1.4-2.7,1.9c-3.2,1.6-6.8,1.8-10.2,0.7c-3.4-1.2-6.2-3.7-7.9-6.9
		c-3.5-6.6-1-14.7,5.5-18.2c3.2-1.6,6.8-1.8,10.2-0.6c7.1,2.5,10.9,10.1,8.8,17.3C192.4,284.8,191.1,286.8,189.3,288.4z M172,268.4
		c-4.2,3.9-5.3,10.2-2.6,15.2c1.5,3,4.1,5.3,7.3,6.4c6.2,2.2,13-1,15.2-7.2c0.1-0.2,0.1-0.4,0.2-0.7c1-3.2,0.6-6.7-0.9-9.7l0,0
		c-1.5-3-4.1-5.3-7.3-6.4c-3.1-1.1-6.5-0.9-9.4,0.6C173.6,267.1,172.8,267.7,172,268.4z"/>
	<rect x="167.2" y="277.3" transform="matrix(0.891 -0.454 0.454 0.891 -106.4969 112.0312)" class="st8" width="25.7" height="1"/>
	
		<rect x="179.5" y="265" transform="matrix(0.8911 -0.4538 0.4538 0.8911 -106.6666 111.9992)" class="st8" width="0.9" height="26.5"/>
	<path class="st8" d="M186.4,290.2l-0.9-0.3c1.2-3.1,1.8-6.4,1.7-9.7c-0.3-3.5-1.8-6.9-4.3-9.4c-2.4-2.3-5.8-3.2-8.9-4.1l0.3-0.9
		c3.1,0.9,6.7,1.9,9.2,4.3c2.7,2.7,4.3,6.2,4.6,10C188.3,283.5,187.7,287,186.4,290.2z"/>
	<path class="st8" d="M185.9,290.5c-3.4-0.6-6.6-2-9.4-4.1c-2.9-2.5-4.8-5.9-5.4-9.6c-0.4-3.5,1-7.3,2.1-10.4l0.9,0.3
		c-1.1,3-2.5,6.6-2.1,9.9c0.6,3.5,2.4,6.7,5.1,9c2.7,2,5.7,3.3,9,3.9L185.9,290.5z"/>
	<path class="st8" d="M183.4,269.3c-4.4,4-10,6.4-15.9,7l-0.1-0.9c7-0.7,13.5-4.1,18-9.5l0.7,0.6
		C185.3,267.5,184.4,268.4,183.4,269.3z"/>
	<path class="st8" d="M193.1,280.8c-7.8,0.8-14.6,4-18.6,8.9l-0.7-0.6c4.3-5.1,11.3-8.4,19.3-9.2L193.1,280.8z"/>
	<path class="st5" d="M172.4,327c-0.1,0-8.9-17.1-19.7-38.4s-19.5-38.4-19.5-38.5s8.9,17.1,19.7,38.4S172.4,327,172.4,327z"/>
	<path class="st8" d="M208.9,297.1c0,0.1-6.6,3.5-14.9,7.7s-14.9,7.5-15,7.5s6.6-3.5,14.9-7.7S208.8,297,208.9,297.1z"/>
	<path class="st8" d="M206.6,301.8c0,0.1-4.9,2.6-11,5.8s-11.1,5.6-11.1,5.5s4.9-2.6,11-5.7S206.6,301.7,206.6,301.8z"/>
	<path class="st8" d="M155.1,257.8c0.4,0.8,0.2,1.8-0.6,2.2c-0.1,0-0.2,0.1-0.2,0.1l-0.6,0.3l0.5,1.1l-1,0.5l-2.1-4.1l1.7-0.9
		c0.8-0.5,1.8-0.3,2.3,0.5C155,257.6,155,257.7,155.1,257.8z M154.1,258.3c-0.1-0.3-0.5-0.5-0.8-0.4c-0.1,0-0.1,0.1-0.2,0.1
		l-0.6,0.3l0.6,1.2l0.6-0.3c0.3-0.1,0.5-0.5,0.4-0.8C154,258.4,154,258.3,154.1,258.3L154.1,258.3z"/>
	<path class="st8" d="M158.8,258.1l-1.6,0.8l0.1,0.9l-1.1,0.5l-0.5-4.9l1-0.5l3.7,3.3l-1.1,0.5L158.8,258.1z M158,257.4l-1.1-1.1
		l0.2,1.6L158,257.4z"/>
	<path class="st8" d="M160.4,257.9l-0.1-1c0.5,0.1,1,0,1.4-0.2c0.4-0.2,0.5-0.4,0.4-0.6c-0.3-0.6-2.2,0.9-2.9-0.6
		c-0.4-0.7-0.1-1.6,0.9-2.2c0.5-0.2,1-0.4,1.5-0.3l0.1,1c-0.4,0-0.8,0-1.2,0.2c-0.4,0.2-0.5,0.5-0.4,0.7c0.3,0.6,2.2-0.9,2.9,0.6
		c0.4,0.7,0.1,1.6-1,2.1C161.6,257.8,161,257.9,160.4,257.9z"/>
	<path class="st8" d="M163.8,256.1l-0.1-1c0.5,0.1,1,0,1.4-0.2c0.4-0.2,0.5-0.4,0.4-0.6c-0.3-0.6-2.2,0.9-3-0.6
		c-0.4-0.7-0.1-1.6,1-2.1c0.5-0.2,1-0.4,1.5-0.3l0.1,1c-0.4,0-0.8,0-1.2,0.2c-0.4,0.2-0.5,0.5-0.4,0.7c0.3,0.6,2.2-0.9,2.9,0.6
		c0.4,0.7,0.1,1.6-0.9,2.1C165,256.1,164.4,256.2,163.8,256.1z"/>
	<path class="st8" d="M169.6,250.4c0.4,0.8,0.2,1.8-0.6,2.2c-0.1,0-0.2,0.1-0.2,0.1l-0.6,0.3l0.6,1.1l-1,0.5l-2.1-4.1l1.7-0.9
		c0.8-0.5,1.8-0.3,2.3,0.5C169.5,250.2,169.6,250.3,169.6,250.4z M168.6,250.9c-0.1-0.3-0.5-0.5-0.8-0.4c-0.1,0-0.2,0.1-0.2,0.1
		l-0.6,0.3l0.6,1.2l0.6-0.3c0.3-0.1,0.5-0.5,0.4-0.8C168.6,251,168.6,250.9,168.6,250.9L168.6,250.9z"/>
	<path class="st8" d="M170.2,250.7c-0.5-1.2,0-2.5,1.1-3c1.2-0.5,2.5,0,3,1.1c0.5,1.1,0,2.4-1,3c-1.1,0.6-2.5,0.1-3.1-1
		C170.3,250.8,170.3,250.8,170.2,250.7z M173.2,249.2c-0.4-0.5-1.1-0.6-1.6-0.2c-0.5,0.4-0.6,1.1-0.2,1.6c0.3,0.4,0.9,0.6,1.4,0.3
		C173.4,250.5,173.6,249.8,173.2,249.2C173.3,249.2,173.3,249.2,173.2,249.2L173.2,249.2z"/>
	<path class="st8" d="M177,248.5l-0.6,0.3l0.6,1.1l-1,0.5l-2.1-4.1l1.7-0.9c0.8-0.5,1.8-0.3,2.3,0.5c0,0.1,0.1,0.1,0.1,0.2
		c0.3,0.5,0.3,1.2-0.1,1.7l1.4,0.9l-1.1,0.6L177,248.5z M175.9,246.4l-0.6,0.3l0.6,1.2l0.6-0.3c0.3-0.2,0.5-0.6,0.3-0.9
		S176.3,246.2,175.9,246.4z"/>
	<path class="st8" d="M178.9,244.9l-1.1,0.6l-0.5-0.9l3.3-1.7l0.5,0.9l-1.1,0.6l1.6,3.2l-1,0.5L178.9,244.9z"/>
	<path class="st8" d="M202,269.1c0.5,2.1-0.8,4.2-2.9,4.7c0,0,0,0-0.1,0C199,273.8,198.3,270,202,269.1z"/>
	<path class="st8" d="M202.8,274.9c-0.2,1.9-2,3.2-3.8,2.9c0,0-0.1,0-0.1,0C199.2,276,200.9,274.7,202.8,274.9z"/>
	<path class="st8" d="M202.1,279.9c-0.8,1.8-2.9,2.7-4.8,1.9c0,0-0.1,0-0.1,0C198.1,279.9,200.2,279.1,202.1,279.9z"/>
	<path class="st8" d="M195.6,273.4c1.9,0,3.4,1.5,3.4,3.4c0,0,0,0.1,0,0.1C197.2,276.8,195.7,275.2,195.6,273.4z"/>
	<path class="st8" d="M196.8,277.1c1.3,0.7,1.7,2.2,1.1,3.5c0,0,0,0.1-0.1,0.1C196.6,280,196.1,278.4,196.8,277.1z"/>
	<path class="st8" d="M198.8,266c0.9,1.4,0.5,3.4-0.9,4.3c0,0,0,0-0.1,0C196.9,268.8,197.4,266.9,198.8,266z"/>
	<path class="st8" d="M193.4,265.5c1.7-0.1,3.1,1.2,3.1,2.9c0,0,0,0.1,0,0.1C194.9,268.5,193.5,267.1,193.4,265.5z"/>
	<path class="st8" d="M194,270c1.8-0.7,3.9,0.3,4.6,2.1c0,0,0,0.1,0,0.1C196.7,272.8,194.7,271.8,194,270z"/>
	<path class="st8" d="M195.5,283.6L195.5,283.6l0.1-0.1c0.1-0.1,0.2-0.2,0.4-0.3c0.4-0.4,0.8-0.9,1.2-1.4c0.5-0.8,0.9-1.6,1.2-2.5
		c0.2-0.5,0.3-1,0.4-1.6l0.1-0.4v-0.2v-0.2v-0.4V276v-0.9v-0.4c0-0.1,0-0.1,0-0.2v-0.2l-0.1-0.4l-0.1-0.4v-0.2c0-0.1,0-0.1-0.1-0.2
		l-0.1-0.4c-0.2-0.9-0.6-1.7-1-2.5c-0.3-0.5-0.6-1.1-1-1.5c-0.1-0.2-0.2-0.3-0.3-0.4l-0.1-0.1l0,0l0,0l0.1,0.1l0.3,0.4
		c0.4,0.5,0.7,1,1,1.5c0.4,0.8,0.8,1.7,1,2.5c0,0.1,0.1,0.3,0.1,0.4s0,0.1,0,0.2v0.2c0,0.1,0.1,0.3,0.1,0.4v0.4v0.2
		c0,0.1,0,0.1,0,0.2v0.4c0,0.1,0,0.3,0,0.4v0.4v0.4v0.4v0.2v0.2l-0.1,0.4c-0.1,0.5-0.2,1.1-0.4,1.6c-0.3,0.9-0.7,1.7-1.2,2.5
		c-0.4,0.5-0.8,1-1.2,1.4c-0.2,0.2-0.3,0.3-0.4,0.3l-0.1,0.1L195.5,283.6z"/>
	<path class="st8" d="M160.4,290.3c1.4,1.6,3.9,1.8,5.5,0.4c0,0,0.1,0,0.1-0.1C166,290.6,163.3,287.9,160.4,290.3z"/>
	<path class="st8" d="M164.6,294.3c1.7,0.9,3.7,0.3,4.6-1.4c0,0,0,0,0-0.1C167.6,292.1,165.6,292.7,164.6,294.3z"/>
	<path class="st8" d="M169.1,296.7c2,0.4,3.9-0.8,4.4-2.7c0,0,0-0.1,0-0.1C173.5,293.9,169.9,293.3,169.1,296.7z"/>
	<path class="st8" d="M167.6,287.6c-1.1,1.5-0.8,3.6,0.7,4.8c0,0,0,0,0.1,0C169.4,290.9,169.1,288.8,167.6,287.6z"/>
	<path class="st8" d="M170,290.8c-0.2,1.4,0.8,2.7,2.2,2.9c0,0,0.1,0,0.1,0C172.5,292.3,171.4,291,170,290.8z"/>
	<path class="st8" d="M159.8,285.9c0.6,1.6,2.4,2.4,4,1.8c0,0,0,0,0.1,0C163.2,286.1,161.4,285.3,159.8,285.9z"/>
	<path class="st8" d="M162.5,281.2c-1,1.3-0.8,3.2,0.5,4.2c0,0,0.1,0,0.1,0.1C164.1,284.1,163.8,282.3,162.5,281.2z"/>
	<path class="st8" d="M165.8,284.3c-1.6,1.1-2,3.4-0.9,5c0,0,0,0,0,0C166.5,288.1,166.9,286,165.8,284.3z"/>
	<path class="st8" d="M176,293.6L176,293.6h-0.2c-0.1,0-0.3,0.1-0.5,0.1c-2.1,0.3-4.2,0-6.1-0.9l-0.4-0.2l-0.2-0.1
		c-0.1,0-0.1-0.1-0.2-0.1l-0.4-0.2l-0.4-0.2l-0.2-0.1l-0.2-0.1l-0.4-0.3l-0.3-0.3l-0.2-0.1l-0.1-0.1l-0.3-0.3l-0.3-0.3l-0.1-0.1
		l-0.1-0.1l-0.2-0.3c-0.6-0.7-1.1-1.5-1.5-2.3c-0.3-0.6-0.5-1.1-0.6-1.7c-0.1-0.2-0.1-0.4-0.1-0.5V285l0,0v0.1
		c0,0.1,0.1,0.3,0.1,0.5c0.2,0.6,0.4,1.2,0.6,1.7c0.4,0.8,0.9,1.6,1.5,2.3c0.1,0.1,0.2,0.2,0.2,0.3l0.1,0.1l0.1,0.1l0.3,0.3l0.3,0.3
		l0.2,0.1l0.2,0.1l0.3,0.3l0.4,0.3l0.2,0.1l0.2,0.1l0.4,0.2l0.4,0.2c0.1,0,0.1,0.1,0.2,0.1l0.2,0.1l0.4,0.2c0.5,0.2,1,0.4,1.5,0.6
		c0.9,0.3,1.8,0.4,2.7,0.4c0.6,0,1.2,0,1.9-0.1c0.2,0,0.4-0.1,0.5-0.1L176,293.6L176,293.6z"/>
</g>
<g id="freepik--Book--inject-6">
	<path class="st6" d="M409.4,353.5l-2.3,5.7c0,0-33.1-25.2-58.6-23.1l0,0c-1.3,1-3,1.3-4.5,0.8l-9.5-2.4c-2-0.4-3.5-1.9-4-3.9l0,0
		c0,0-19.3-15.9-45.4-13.5l-9.7,0.4l41.2-68.2l112.3,18.1L409.4,353.5z"/>
	<path class="st2" d="M418.1,347.3l-3.8,10.4c0,0-31-30.4-74.2-23.7l26-47.2C366,286.8,418.8,335.7,418.1,347.3z"/>
	<path class="st8" d="M449.9,273.9c0,0-35.1-42.8-81.6-14.4L340,333.9c0,0,51.8-20.8,81.4,17L449.9,273.9z"/>
	<path class="st5" d="M449.9,273.9c0,0-0.1,0.5-0.5,1.4s-0.8,2.3-1.5,4.1l-5.7,15.6c-5,13.5-12,32.8-20.6,56l-0.1,0.4l-0.2-0.3
		c-8.6-11-20.9-18.6-34.7-21.2c-7.5-1.4-15.2-1.8-22.8-1c-3.9,0.4-7.8,1-11.7,1.8c-3.9,0.8-7.8,1.9-11.6,3.3l-0.4,0.2l-0.5,0.2
		l0.2-0.5c10.3-27.1,20-52.5,28.3-74.5v-0.1h0.1c5.5-3.5,11.5-6.1,17.8-7.8c10.7-2.9,22.1-2.5,32.6,1.1c4.2,1.4,8.2,3.2,12,5.4
		c5.3,3.1,10.3,6.8,14.8,11c1.5,1.5,2.7,2.7,3.4,3.5c0.4,0.4,0.6,0.7,0.8,1C449.8,273.6,449.8,273.7,449.9,273.9l-0.3-0.4l-0.9-0.9
		c-0.8-0.8-1.9-2-3.5-3.4c-4.5-4.2-9.5-7.9-14.8-10.9c-3.8-2.2-7.8-4-12-5.4c-10.5-3.6-21.8-3.9-32.4-1c-6.2,1.7-12.2,4.3-17.7,7.7
		l0.1-0.1c-8.3,21.9-18,47.4-28.2,74.5l-0.3-0.3l0.4-0.2c3.8-1.4,7.7-2.5,11.6-3.3c3.9-0.9,7.8-1.5,11.8-1.8
		c7.6-0.8,15.4-0.4,22.9,1c13.9,2.6,26.3,10.2,34.9,21.4l-0.4,0.1L442,295l5.8-15.6c0.7-1.8,1.2-3.2,1.6-4.1
		S449.9,273.9,449.9,273.9z"/>
	<path class="st1" d="M339.6,333.8c0,0-31.2-32.6-65.9-20.3l30.6-66.4l63,14.9L339.6,333.8z"/>
	<path class="st5" d="M339.8,334.7l-0.5-0.6c-0.3-0.3-31.4-32.2-65.3-20.2l-1.1,0.4l31.3-67.9l0.4,0.1l63.5,15.1l-0.2,0.5
		L339.8,334.7z M289.8,310.3c25.2,0,46.1,19.1,49.7,22.6l27.3-70.5l-62-14.7l-30,65C279.6,311.1,284.6,310.3,289.8,310.3
		L289.8,310.3z"/>
	<path class="st8" d="M368.3,259.5c0,0-6.3-29.1-35.1-35.9l-18.6-3.9l-32.4,66.2c0,0,46.5,10.1,57.9,47.6L368.3,259.5z"/>
	<path class="st5" d="M368.3,259.5c0,0.1-0.1,0.2-0.1,0.4l-0.4,1c-0.3,0.9-0.8,2.2-1.5,4l-5.7,15.1c-4.9,13-12,31.5-20.4,53.7
		l-0.2,0.6l-0.2-0.6c-1.6-5.3-4-10.2-7.1-14.8c-0.8-1.2-1.7-2.3-2.5-3.5s-1.8-2.3-2.8-3.3c-2-2.2-4.1-4.3-6.4-6.2
		c-9.2-7.9-20.7-13.9-33.2-17.9c-1.9-0.6-3.8-1.2-5.7-1.6l-0.3-0.1l0.1-0.3c11.9-24.3,23-47,32.4-66.2l0.1-0.2h0.2l15.2,3.2
		c4.6,0.8,9.1,2.2,13.3,4.3c6.8,3.4,12.6,8.5,17,14.8c2.8,4,5.1,8.3,6.8,12.9c0.6,1.6,0.9,2.8,1.2,3.6S368.3,259.4,368.3,259.5
		c0,0,0-0.1-0.1-0.3s-0.1-0.5-0.3-1c-0.2-0.8-0.6-2-1.2-3.6c-1.7-4.5-4-8.8-6.9-12.8c-4.4-6.2-10.2-11.2-17-14.6
		c-4.2-2-8.6-3.4-13.2-4.2l-15.2-3.1l0.2-0.1L282.4,286l-0.2-0.4c1.9,0.5,3.9,1,5.8,1.6c6.2,2,12.2,4.5,17.9,7.6
		c5.5,2.9,10.7,6.4,15.5,10.5c2.3,2,4.4,4.1,6.4,6.3c1,1.1,1.9,2.2,2.8,3.4s1.8,2.3,2.5,3.5c3.1,4.6,5.5,9.6,7.1,14.9h-0.4
		c8.5-22.1,15.5-40.6,20.5-53.5c2.5-6.5,4.5-11.6,5.8-15.1c0.7-1.7,1.2-3.1,1.5-4l0.4-1C368.3,259.6,368.3,259.5,368.3,259.5z"/>
	<path class="st0" d="M321.5,234.6c0,0.2,2.9,0.7,7.5,2.3c5.8,2,11.3,5,16.2,8.7c4.7,3.6,8.8,7.9,12,12.9c2.4,3.7,3.3,6.2,3.6,6.1
		c0.1,0-0.1-0.6-0.4-1.8c-0.6-1.6-1.3-3.2-2.2-4.7c-3.1-5.3-7.1-9.8-12-13.5c-5.1-3.9-10.8-6.8-16.9-8.6c-1.8-0.6-3.7-1-5.6-1.3
		C322.9,234.6,322.2,234.6,321.5,234.6z"/>
	<path class="st0" d="M316.6,241.7c0,0.2,2.9,0.7,7.5,2.3c5.8,2,11.3,5,16.2,8.7c4.7,3.6,8.8,7.9,12,12.9c2.4,3.7,3.3,6.2,3.6,6.1
		c0.1,0-0.1-0.6-0.4-1.8c-0.6-1.6-1.3-3.2-2.2-4.7c-3.1-5.3-7.1-9.9-12-13.5c-5.1-3.9-10.8-6.8-16.9-8.6c-1.8-0.6-3.7-1-5.6-1.3
		C318,241.7,317.3,241.7,316.6,241.7z"/>
	<path class="st0" d="M313.2,250.1c0,0.2,2.9,0.7,7.5,2.3c5.8,2,11.3,5,16.2,8.7c4.7,3.6,8.8,7.9,12,12.9c2.4,3.7,3.3,6.2,3.5,6.1
		s0-0.6-0.4-1.8c-0.6-1.6-1.3-3.2-2.2-4.7c-3.1-5.3-7.1-9.8-12-13.5c-5.1-3.9-10.8-6.8-16.9-8.6c-1.8-0.6-3.7-1-5.6-1.3
		C314.6,250.1,313.9,250.1,313.2,250.1z"/>
	<path class="st0" d="M308.6,257.5c0,0.2,2.9,0.7,7.5,2.3c5.8,2,11.3,5,16.2,8.7c4.7,3.6,8.8,7.9,12,12.9c2.4,3.7,3.3,6.2,3.5,6.1
		c0.1,0,0-0.6-0.4-1.8c-0.6-1.6-1.3-3.2-2.2-4.7c-3.1-5.3-7.1-9.8-12-13.5c-5.1-3.9-10.8-6.8-16.9-8.6c-1.8-0.6-3.7-1-5.6-1.3
		C310,257.4,309.3,257.4,308.6,257.5z"/>
	<path class="st0" d="M303.6,265.1c0,0.2,2.9,0.7,7.5,2.3c5.8,2,11.3,5,16.2,8.7c4.7,3.6,8.8,7.9,12,12.9c2.4,3.7,3.3,6.2,3.5,6.1
		s0-0.6-0.4-1.8c-0.6-1.6-1.3-3.2-2.2-4.7c-3.1-5.3-7.1-9.9-12-13.5c-5.1-3.9-10.8-6.8-16.9-8.6c-1.8-0.6-3.7-1-5.6-1.3
		C305,265.1,304.3,265,303.6,265.1z"/>
	<path class="st0" d="M297.6,273.5c0,0.2,3.2,0.8,8.1,2.5c2.9,1,5.6,2.2,8.4,3.6c3.3,1.7,6.4,3.7,9.4,5.8c2.9,2.1,5.7,4.5,8.3,7
		c2,2,3.9,4.2,5.5,6.6c2.8,3.9,3.8,6.7,4,6.6c0.1,0-0.1-0.7-0.5-1.9c-0.3-0.8-0.6-1.5-1-2.2c-0.5-1-1-1.9-1.6-2.9
		c-1.6-2.5-3.4-4.8-5.4-6.9c-2.6-2.6-5.4-5.1-8.4-7.2c-3.1-2.2-6.3-4.1-9.7-5.8c-2.8-1.4-5.7-2.5-8.6-3.5c-1.1-0.4-2.3-0.7-3.5-1
		c-0.9-0.2-1.8-0.4-2.6-0.5C299.1,273.5,298.3,273.5,297.6,273.5z"/>
	<path class="st0" d="M294.7,280.9c0,0.2,3.2,0.8,8.1,2.6c2.8,1.1,5.6,2.4,8.3,3.8c3.2,1.8,6.3,3.8,9.3,6c2.9,2.2,5.5,4.6,8.1,7.2
		c2,2.1,3.8,4.3,5.4,6.7c2.7,4,3.7,6.7,4,6.7c0.1,0-0.1-0.7-0.5-2c-0.3-0.8-0.6-1.5-1-2.2c-0.5-1-1-2-1.6-2.9
		c-1.5-2.5-3.3-4.8-5.3-7c-2.5-2.7-5.3-5.2-8.2-7.5c-3-2.3-6.2-4.3-9.6-6.1c-2.8-1.4-5.7-2.7-8.6-3.7c-1.1-0.4-2.3-0.7-3.5-1
		c-0.9-0.2-1.8-0.4-2.7-0.5C296.2,280.9,295.4,280.9,294.7,280.9z"/>
	<path class="st0" d="M359.3,318.7c0.2,0.2,2.8-1.3,7.6-2.8c6.5-1.9,13.3-2.4,20-1.5c6.9,0.9,13.6,3.2,19.6,6.7
		c4.6,2.7,7.1,4.8,7.3,4.7s-0.5-0.7-1.6-1.6c-1.6-1.4-3.3-2.7-5.1-3.8c-6.1-3.8-13-6.3-20.1-7.2c-6.9-0.9-14-0.2-20.6,2
		c-1.9,0.6-3.7,1.4-5.4,2.4C359.8,318.2,359.3,318.7,359.3,318.7z"/>
	<path class="st0" d="M363.2,309.3c0.2,0.2,2.8-1.3,7.6-2.8c6.5-1.9,13.3-2.4,20-1.5c6.9,0.9,13.6,3.2,19.6,6.7
		c4.6,2.6,7.1,4.8,7.3,4.7s-0.5-0.7-1.6-1.6c-1.6-1.4-3.3-2.7-5.1-3.8c-6.1-3.8-13-6.3-20.1-7.2c-6.9-0.9-14-0.3-20.6,1.9
		c-1.9,0.6-3.7,1.4-5.4,2.4C363.8,308.7,363.2,309.2,363.2,309.3z"/>
	<path class="st0" d="M367.1,299.8c0.2,0.2,2.8-1.3,7.6-2.8c6.5-1.9,13.3-2.4,20-1.5c6.9,0.9,13.6,3.2,19.7,6.7
		c4.6,2.6,7.1,4.8,7.3,4.7s-0.5-0.6-1.6-1.6c-1.6-1.4-3.3-2.7-5.1-3.8c-6.1-3.8-13-6.3-20.1-7.2c-6.9-0.9-13.9-0.3-20.6,1.9
		c-1.9,0.6-3.7,1.4-5.4,2.4C367.7,299.3,367.1,299.7,367.1,299.8z"/>
	<path class="st0" d="M371,290.3c0.2,0.2,2.8-1.3,7.6-2.8c6.5-1.9,13.3-2.4,20-1.5c6.9,0.9,13.6,3.2,19.7,6.7
		c4.6,2.7,7.1,4.8,7.3,4.7s-0.5-0.6-1.6-1.6c-1.6-1.4-3.3-2.7-5.1-3.8c-6.1-3.8-13-6.3-20.1-7.2c-6.9-0.9-13.9-0.3-20.6,2
		c-1.9,0.6-3.7,1.4-5.4,2.4C371.6,289.8,371,290.2,371,290.3z"/>
	<path class="st0" d="M375,280.8c0.2,0.2,2.8-1.3,7.6-2.8c6.5-1.9,13.3-2.4,20-1.5c6.9,0.9,13.6,3.2,19.7,6.7
		c4.6,2.7,7.1,4.8,7.3,4.7s-0.5-0.7-1.6-1.6c-1.6-1.4-3.3-2.7-5.1-3.8c-6.1-3.8-13-6.3-20.1-7.2c-6.9-0.9-14-0.3-20.6,2
		c-1.9,0.6-3.7,1.4-5.4,2.4C375.5,280.3,374.9,280.8,375,280.8z"/>
	<path class="st0" d="M378.9,271.4c0.2,0.2,2.8-1.3,7.6-2.8c6.5-1.9,13.3-2.4,20-1.5c6.9,0.9,13.6,3.2,19.6,6.7
		c4.6,2.6,7.1,4.8,7.3,4.7s-0.5-0.7-1.6-1.6c-1.6-1.4-3.3-2.7-5.1-3.8c-6.1-3.8-13-6.3-20.1-7.2c-6.9-0.9-13.9-0.3-20.6,2
		c-1.9,0.6-3.7,1.4-5.4,2.4C379.4,270.8,378.8,271.3,378.9,271.4z"/>
</g>
<g id="freepik--Character--inject-6">
	<path class="st5" d="M133.9,418h0.8c4,0,7.2,3.2,7.2,7.2v40.3c0,4-3.2,7.2-7.2,7.2h-0.8c-4,0-7.2-3.2-7.2-7.2v-40.3
		C126.7,421.2,129.9,418,133.9,418z"/>
	<path class="st5" d="M187.8,484.1c0,0-19.9,0-28.6,0s-18.2,1-22-4.2c-3-4-2.5-9.4-2.2-14.2c0.7-13.6,1.3-27.2,1.9-40.9
		c0.2-3.7,0.4-7.5,1.9-10.9s8.5-51.2,12.7-52h35.4L187.8,484.1z"/>
	<path class="st6" d="M180.4,462.3c0,0.1-9.5,0.3-21.2,0.3s-21.2-0.1-21.2-0.3s9.5-0.3,21.2-0.3S180.4,462.1,180.4,462.3z"/>
	<path class="st6" d="M163.5,407c0.1,0,0.3,12.4,0.3,27.6s-0.1,27.6-0.3,27.6s-0.3-12.4-0.3-27.6S163.3,407,163.5,407z"/>
	<path class="st6" d="M137,469.5c0-0.2-0.1-0.3-0.1-0.5c0-0.4,0-0.9-0.1-1.5c-0.1-1.3-0.1-3.1-0.2-5.4c-0.1-4.5-0.2-10.8-0.1-17.7
		s0.2-13.2,0.4-17.7c0.1-2.3,0.2-4.1,0.2-5.4l0.1-1.5c0-0.2,0-0.3,0.1-0.5c0,0.2,0,0.3,0,0.5v1.5c0,1.4,0,3.2-0.1,5.4
		c-0.1,4.6-0.1,10.8-0.2,17.7s0,13.1-0.1,17.7c0,2.2,0,4,0,5.4c0,0.6,0,1.1,0,1.5C137,469.2,137,469.4,137,469.5z"/>
	<path class="st7" d="M332.9,292.9c0,0,15.5,3,23.5,28.1c9,28.7,24.3,87.6,24.2,94.4S363.1,433,363.1,433l-24.8-8.3l-13-49
		L332.9,292.9z"/>
	<path class="st7" d="M332.9,292.9l-38.3-14.2l-2.6-3.4l-49.3,1.5l-3.7,2.4c0,0-37.1,8.1-40.9,8.6c-9,1.1-18.4,13.5-18.4,13.5
		c-1,1.1-47.6,68.9-47.6,68.9l10.8,42.7c0,0,5.1,1.8,19.9-7.9c11.7-7.7,20.8-19.8,24-24.5l-0.1,103.6h144.6l-7.9-65.7L332.9,292.9z"
		/>
	<path class="st5" d="M325.5,361.1c0-0.2,0-0.3,0.1-0.5c0.1-0.4,0.2-0.9,0.3-1.5l1.1-5.3c0.9-4.5,2-10.7,3.1-17.6s1.8-13.2,2.2-17.8
		c0.2-2.2,0.4-4,0.5-5.4c0.1-0.6,0.1-1.1,0.2-1.5c0-0.2,0-0.3,0.1-0.5c0,0.2,0,0.3,0,0.5c0,0.4,0,0.9-0.1,1.5
		c-0.1,1.3-0.2,3.1-0.4,5.4c-0.4,4.6-1.1,10.9-2.1,17.8s-2.2,13.1-3.2,17.6c-0.5,2.2-0.9,4-1.2,5.3c-0.1,0.6-0.3,1-0.4,1.4
		C325.7,360.8,325.6,360.9,325.5,361.1z"/>
	<path class="st5" d="M182.2,333.4c0.1,0.2,0.1,0.4,0.1,0.6c0.1,0.5,0.2,1.1,0.3,1.8c0.2,1.6,0.5,3.8,0.9,6.6
		c0.7,5.6,1.5,13.4,2.1,22s1,16.4,1.1,22c0.1,2.8,0.1,5.1,0.1,6.7c0,0.7,0,1.3,0,1.8c0,0.2,0,0.4,0,0.6c0-0.2-0.1-0.4-0.1-0.6
		c0-0.5-0.1-1.1-0.1-1.8c-0.1-1.6-0.1-3.9-0.3-6.7c-0.2-5.6-0.6-13.4-1.2-22s-1.4-16.4-2-22c-0.3-2.8-0.5-5-0.7-6.6
		c-0.1-0.7-0.1-1.3-0.2-1.8C182.3,333.8,182.2,333.6,182.2,333.4z"/>
	<path class="st5" d="M294.6,283.8c-0.1,0.2-0.3,0.4-0.5,0.5c-0.4,0.3-0.9,0.8-1.5,1.3c-1.4,1.2-3.3,2.8-5.9,4.7
		c-3,2.3-6.1,4.3-9.4,6c-4.2,1.9-8.7,2.9-13.3,3.1c-4.6,0.3-9.2-0.3-13.5-1.9c-3.5-1.4-6.6-3.6-9-6.5c-1.6-1.9-2.9-4.2-3.6-6.6
		c-0.2-0.7-0.3-1.3-0.4-2c-0.1-0.2-0.1-0.5-0.1-0.7c0.1,0.2,0.1,0.5,0.2,0.7c0.1,0.7,0.3,1.3,0.5,2c0.8,2.4,2,4.6,3.7,6.4
		c2.4,2.8,5.5,5,8.9,6.3c4.3,1.5,8.8,2.1,13.3,1.7c4.5-0.2,9-1.2,13.1-3c3.3-1.7,6.5-3.6,9.4-5.9c2.6-1.9,4.6-3.5,6-4.6l1.6-1.3
		C294.2,284.1,294.4,284,294.6,283.8z"/>
	<g class="st11">
		<path d="M220.8,331.8c-5.8,4-6.5,12.1-6.8,19.1c-1.4,28.7-19.7,83.6-27.2,111.4C210.5,425.5,225.1,375.2,220.8,331.8z"/>
	</g>
	<path class="st5" d="M222.4,282.8c0,0-1.9,61.9-7.2,99s-31,86.5-31,86.5l-4.1-8.1c0,0,14.2-41.2,20.6-75.8c4.6-24.4,0-98,0-98
		C207.1,282.4,214.9,281.1,222.4,282.8z"/>
	<path class="st6" d="M208.7,344.1c-0.1,0,0.2-12.9,0.8-28.8s1.1-28.8,1.3-28.7s-0.2,12.9-0.8,28.8S208.9,344.1,208.7,344.1z"/>
	<path class="st7" d="M128.6,347.6l-4.9,12.7c0,0-6.5,13.3-6,22.4s11.9,42.2,35,31.4s11.5-28.2,11.5-28.2l-10.8-29.7l-17-11.2
		c-2.4-1.6-5.6-0.9-7.2,1.5C128.9,346.9,128.7,347.3,128.6,347.6z"/>
	<path class="st12" d="M155.8,312.2c1.5,2,10.2-0.3,12.2,3.8c1.2,2.2,1.2,4.9,0,7.1c2,2.6,2.4,6.1,0.9,9c0.8,1.9,1.2,4,0.9,6
		c-0.3,2.1-1.4,3.9-2.9,5.3c0.4,2.1-0.5,4.3-2.3,5.5c-3,2-10.9,3.5-10.9,3.5l-3.3,6c0,0-4.5,5-10.1,2.8s-9.4-13.4-9.4-13.4
		c0.2-1.4,6.5-11.8,6.5-11.8s1.2-15.5,4-19.3s4-4.5,4-4.5s2.4-5.2,2.4-7.4s-2.1-9.3-0.8-10.8s6.3-0.4,8.5,5.4
		S155.8,312.2,155.8,312.2z"/>
	<path class="st13" d="M167.8,322.6c0,0.2-3-0.4-6.7-0.4s-6.7,0.5-6.7,0.3c0.6-0.3,1.3-0.4,1.9-0.5c3.2-0.5,6.4-0.5,9.5,0.1
		C166.5,322.2,167.1,322.4,167.8,322.6z"/>
	<path class="st13" d="M168.4,332.9c0,0.2-2.8-0.4-6.3-0.4s-6.3,0.5-6.3,0.4C160,331.6,164.3,331.7,168.4,332.9L168.4,332.9z"/>
	<path class="st13" d="M167.7,343.2c-1.7,0.7-3.6,1.1-5.5,1.2c-1.9,0.2-3.8,0.1-5.6-0.4c0-0.1,2.5,0.1,5.6-0.2
		S167.7,343.1,167.7,343.2z"/>
	<path class="st13" d="M160.1,350.6c-0.7,0.5-1.5,0.8-2.3,1c-3.9,1.2-8.2,1.1-12-0.5c-0.8-0.3-1.5-0.7-2.2-1.2
		c2.6,1.1,5.4,1.7,8.2,1.9C154.6,351.9,157.4,351.5,160.1,350.6z"/>
	<path class="st13" d="M160.2,313.5c0,0.2-3.2-0.5-7.2-0.4s-7.1,1-7.2,0.8c0.6-0.3,1.3-0.5,2-0.7c1.7-0.4,3.4-0.6,5.1-0.7
		c1.7-0.1,3.5,0.1,5.2,0.4C158.8,313,159.5,313.2,160.2,313.5z"/>
	<path class="st5" d="M161.9,400.9c-0.1,0,0.3-0.6,0.7-1.8c0.6-1.6,1.1-3.3,1.3-5c0.4-2.5,0.3-5.1-0.1-7.6c-0.5-3.1-1.7-6-3.4-8.6
		c-1.8-2.8-3.9-5.3-5-8.1c-1-2.4-1.7-4.9-2.1-7.5c-0.4-2.2-0.5-3.9-0.6-5.2c0-0.6-0.1-1-0.1-1.4c0-0.2,0-0.3,0-0.5
		c0.1,0.2,0.1,0.3,0.1,0.5c0,0.4,0.1,0.8,0.2,1.4c0.2,1.2,0.4,3,0.8,5.1c0.4,2.5,1.2,5,2.2,7.3c1.1,2.7,3.1,5.1,5,8
		c1.8,2.7,2.9,5.7,3.4,8.8c0.4,2.6,0.4,5.2,0,7.8c-0.3,1.7-0.8,3.4-1.5,5c-0.2,0.4-0.4,0.9-0.6,1.3
		C162.1,400.6,162,400.8,161.9,400.9z"/>
	<g class="st11">
		<path d="M152.9,355c0.1,0.5,0.3,1.1,0.5,1.6V355H152.9z"/>
	</g>
	<g class="st11">
		<path d="M162.9,372.9c-3.4-5.3-7.5-10.3-9.5-16.3c0,5,0.2,10.2,2.4,14.8c1.4,3,3.5,5.6,5.3,8.4s3.2,6,3,9.2
			c-0.2,1.2-0.2,2.3-0.1,3.5c0.3,1.1,1.5,2.2,2.6,1.8c0.8-0.4,1.3-1.2,1.4-2.1C169.7,385.5,166.6,378.6,162.9,372.9z"/>
	</g>
	<path class="st5" d="M318.8,224.9c-2.3,1.3-5.4-0.4-6.4-2.8s-0.5-5.2,0.2-7.7s1.9-5,2-7.6c0.2-4.9-2.8-9.4-7.5-11
		c4.5-3.5,4.8-11.1,0.7-15c-1.9-1.9-4.5-2.9-6.7-4.3c-1.3-0.8-2.4-1.8-3.5-2.9c2,0.5,4.1,0.6,6.1,0.2c3.3-0.7,6-3.1,7.1-6.2
		c1.1-3.2,0.2-6.7-2.1-9.1c-2.5-2.3-6.1-2.9-9.2-1.4c-2.9,1.5-4.5,4.6-5.9,7.6l-1.3,2.7c-4-5.4-7.9-10.9-14.1-12.8
		c-5.7-1.7-11.8,0.2-17.7-0.2c-4.3-0.3-8.4-1.9-12.7-2.3s-9.2,0.4-11.7,3.9c-1.5,2.1-2,4.7-3.5,6.7c-3.1,4.2-9.8,4.8-12.3,9.3
		c-2.1,3.7-0.5,8.4-1.4,12.5c-1,4.5-4.7,7.8-7.7,11.3s-5.7,8.2-4,12.5c1.5,3.8,5.9,5.8,7.3,9.6c1,2.8,0.3,5.9,0.2,8.8s1.1,6.5,4,7.1
		l32.9,8.7c11.3,4.6,23,9.3,35.2,9.3s25.2-5.9,30.1-17.1c-1.8-0.1-3.5-0.8-4.7-2.1C315.6,231.3,318,228.4,318.8,224.9z"/>
	<path class="st5" d="M291.9,235.2c2.7-8.3,5.4-16.7,6.6-25.4s1-17.7-2.1-25.9c-0.5-1.2-4.4-9.6-5.7-9.5c-0.9,0.1,1.5,7.9,1,8.7
		c-4.6,7.8-5.8,17.2-5.1,26.3C287.4,218.2,289.2,226.9,291.9,235.2"/>
	<path class="st12" d="M259.3,161l-2,0.1c-20.4,1.1-36.6,17.7-37.2,38.2c-0.5,19-1.2,37.3-0.6,47.5c1.4,21,23,23.2,23,23.2v10.9
		c0.9,11.1,15.3,13.1,20.7,12.6c18.8,0,28.6-15.4,28.6-15.4l0.9-76.3C293.5,179.9,281.3,161.1,259.3,161z"/>
	<path class="st13" d="M242.6,270c0,0,13.3,0.1,27-9.6c0,0-5.9,15.7-27,14.9L242.6,270z"/>
	<path class="st5" d="M229.8,216.6c0.1,1.6,1.4,2.9,3.1,2.9c1.6,0.1,2.9-1.2,3-2.8c0,0,0-0.1,0-0.1c-0.1-1.6-1.4-2.9-3.1-2.9
		c-1.6-0.1-2.9,1.2-3,2.8C229.8,216.5,229.8,216.5,229.8,216.6z"/>
	<path class="st5" d="M225.1,207.8c0.4,0.4,2.6-1.4,5.8-1.6s5.7,1.3,6,0.9c0.2-0.2-0.3-0.9-1.3-1.6c-1.5-0.9-3.1-1.3-4.9-1.2
		c-1.7,0.1-3.3,0.7-4.6,1.8C225.2,206.9,224.9,207.6,225.1,207.8z"/>
	<path class="st5" d="M259.1,216.6c0.1,1.6,1.4,2.9,3.1,2.9c1.6,0.1,2.9-1.2,3-2.8c0,0,0-0.1,0-0.1c-0.1-1.6-1.4-2.9-3.1-2.9
		c-1.6-0.1-2.9,1.2-3,2.8C259.1,216.6,259.1,216.6,259.1,216.6z"/>
	<path class="st5" d="M256.9,207.4c0.4,0.4,2.6-1.4,5.8-1.6s5.7,1.3,6,0.9c0.2-0.2-0.2-0.9-1.3-1.6c-1.4-0.9-3.1-1.3-4.8-1.2
		c-1.7,0.1-3.3,0.7-4.6,1.8C257,206.5,256.7,207.2,256.9,207.4z"/>
	<path class="st5" d="M246.6,232.9c0-0.2-2-0.4-5.3-0.7c-0.8,0-1.6-0.2-1.8-0.7c-0.1-0.9,0-1.7,0.4-2.5c0.7-2,1.4-4.2,2.1-6.4
		c2.9-9.1,5-16.6,4.6-16.8s-3,7.2-5.9,16.3c-0.7,2.3-1.3,4.4-2,6.5c-0.5,1-0.6,2.2-0.3,3.3c0.3,0.6,0.8,1,1.4,1.1
		c0.5,0.1,0.9,0.1,1.4,0.1C244.5,233.2,246.6,233.1,246.6,232.9z"/>
	<path class="st5" d="M256.2,234.6c-0.5,0-0.4,3.5-3.2,6.2s-6.6,2.5-6.6,3c0,0.2,0.9,0.6,2.4,0.6c2.1-0.1,4-0.9,5.6-2.3
		c1.5-1.3,2.3-3.2,2.5-5.1C256.9,235.4,256.5,234.6,256.2,234.6z"/>
	<path class="st5" d="M256.3,194.3c0.4,0.9,3.6,0.3,7.4,0.5s7,1.1,7.4,0.3c0.2-0.4-0.4-1.2-1.7-2c-3.5-1.9-7.6-2.2-11.3-0.6
		C256.8,193.1,256.2,193.9,256.3,194.3z"/>
	<path class="st5" d="M225.9,197c0.6,0.7,2.8-0.2,5.5-0.4s5,0.2,5.5-0.6c0.2-0.4-0.2-1.1-1.2-1.7c-1.4-0.8-2.9-1.1-4.5-1
		c-1.6,0.1-3.1,0.7-4.3,1.7C225.9,195.9,225.6,196.6,225.9,197z"/>
	<path class="st12" d="M291.9,217.5c0.4-0.2,14.2-5.1,14.5,9.4s-14.2,11.8-14.3,11.4S291.9,217.5,291.9,217.5z"/>
	<path class="st13" d="M296.5,232.7c0.1,0,0.3,0.2,0.7,0.4c0.6,0.2,1.3,0.2,1.9,0c1.5-0.6,2.8-3,2.8-5.6c0-1.2-0.3-2.5-0.8-3.6
		c-0.3-0.9-1-1.6-1.9-1.9c-0.6-0.1-1.2,0.2-1.5,0.7c-0.2,0.4-0.1,0.7-0.2,0.7s-0.3-0.2-0.2-0.8c0.1-0.4,0.3-0.7,0.5-0.9
		c0.4-0.3,0.9-0.5,1.4-0.4c1.2,0.2,2.2,1,2.7,2.2c0.6,1.2,1,2.6,1,4c0,2.9-1.5,5.7-3.5,6.3c-0.8,0.2-1.6,0.1-2.3-0.3
		C296.5,233,296.4,232.7,296.5,232.7z"/>
	<path class="st5" d="M229.1,175.3c-2.4-1.3,4.6-8.9,10.3-11.6c8.6-4,21.8-6.6,29.9-4.5c9.7,2.6,17.7,7.3,22.7,16s6.9,18.9,6.7,28.9
		c0,3-0.3,6.2-1.9,8.8c-2,3.2-5.8,5.3-5.6,9.7c0.1,1.6-0.4,3.2-1.4,4.4c-2.6,2.8-5.9,0.2-7.4-2.4c-3.2-5.6-3.7-12.4-4-18.8
		c-0.3-4.6-0.5-9.3,0.7-13.7c0.7-2.4,1.8-4.7,2.3-7.1s0.4-5.2-1.1-7.2c-0.4-0.4-0.8-0.8-1.2-1.2c-4.2-3.5-9.9-4.5-15-2.6
		c-8.1,3-21.9,7.4-25.6,4.7c-5.3-3.9-6.5-6.5-6.5-6.5L229.1,175.3z"/>
	<path class="st5" d="M268.5,157.3c-8-2.5-17-2.3-24.4,1.6c-3.9,2.1-7.4,5.4-8.6,9.7s0.8,9.5,4.9,11.1l0.3,0.2
		c6.2,2,10.2,1.1,16.3-1.1c5.1-1.9,9.7-5.1,14.8-6.9c5.5-1.9,11.5-2.2,17.1-0.7C283.4,165,276.4,159.8,268.5,157.3z"/>
	<path class="st6" d="M295.9,171.6c-0.1,0.1-1.3-1.3-3.6-2.9c-1.4-1-2.8-1.7-4.4-2.3c-1.9-0.8-3.9-1.1-5.9-1
		c-3.7,0.4-7.1,1.9-10,4.2c-2.2,1.8-3.3,3.2-3.4,3.1s0.2-0.4,0.6-1.1c0.7-0.9,1.5-1.8,2.3-2.6c2.9-2.6,6.6-4.2,10.4-4.6
		c2.1-0.1,4.3,0.3,6.3,1.1c1.6,0.7,3.1,1.5,4.5,2.6C295,169.9,296,171.5,295.9,171.6z"/>
	<path class="st6" d="M297.3,176.7c0.1,0-0.1,1.6-1.1,4.1c-2.6,6.5-7.4,11.8-13.5,15.2c-1.2,0.8-2.5,1.3-4,1.6
		c-0.2-0.3,6-2.6,11.3-8.6S297,176.5,297.3,176.7z"/>
	<path class="st6" d="M303.2,179c0.1,0.5,0.1,1.1,0.1,1.6c-0.1,1.5-0.3,3-0.6,4.4c-2.2,9.9-9.3,17.9-18.7,21.5
		c-1.4,0.5-2.8,0.9-4.3,1.2c-0.5,0.2-1.1,0.2-1.6,0.2c0-0.2,2.3-0.6,5.7-2c9-3.8,15.8-11.5,18.3-21C303,181.3,303,179,303.2,179z"/>
	<path class="st6" d="M252,156c0,0.2-1.5,0.5-3.8,1.4c-6.1,2.4-11.3,6.7-14.8,12.2c-1.4,2.1-2,3.5-2.1,3.5c0.3-1.4,0.8-2.6,1.6-3.8
		c1.7-2.9,3.8-5.5,6.4-7.6c2.6-2.1,5.5-3.8,8.7-4.8C249.2,156.3,250.6,156,252,156z"/>
	<path class="st6" d="M307.7,157.8c0.2,0-0.4,4.2-3.6,8s-7.2,5.2-7.3,5s3.5-1.9,6.5-5.6S307.4,157.7,307.7,157.8z"/>
	<path class="st13" d="M262.1,225.4c0,0.3-0.2,0.5-0.5,0.5c-0.3,0-0.5-0.2-0.5-0.5c0-0.3,0.2-0.5,0.5-0.5S262.1,225.1,262.1,225.4
		L262.1,225.4z"/>
	<circle class="st13" cx="265.5" cy="225.4" r="0.5"/>
	<path class="st6" d="M266.6,308l62.1,18.5c1.1,0.3,1.7,1.4,1.3,2.5l-25.6,85.7c-0.3,1.1-1.4,1.7-2.5,1.3l-62.1-18.5
		c-1.1-0.3-1.7-1.4-1.3-2.5l25.6-85.7C264.4,308.2,265.5,307.6,266.6,308z"/>
	<path class="st5" d="M241.7,384.8c-2.6-0.5-4.5-2.8-4.4-5.5c0.2-3,2.8-5.3,5.7-5.1c2.9,0.2,5.1,2.6,5.1,5.5h-1
		c0.1-2.4-1.8-4.5-4.3-4.6c-2.4-0.1-4.5,1.8-4.6,4.3c-0.1,2.2,1.4,4.1,3.6,4.5L241.7,384.8z"/>
	<path class="st5" d="M244,377.4c-2.9-0.6-4.9-3.4-4.3-6.4c0.6-2.9,3.4-4.9,6.4-4.3c2.6,0.5,4.5,2.9,4.4,5.5h-1
		c0.2-2.4-1.7-4.6-4.1-4.7c-2.4-0.2-4.6,1.7-4.7,4.1c0,0.1,0,0.2,0,0.3c-0.1,2.2,1.4,4.1,3.6,4.5L244,377.4z"/>
	<path class="st5" d="M246.2,370.1c-2.9-0.6-4.9-3.4-4.3-6.4s3.4-4.9,6.4-4.3c2.6,0.5,4.5,2.9,4.4,5.5h-1c0.1-2.4-1.8-4.5-4.2-4.6
		c-1.2,0-2.3,0.4-3.2,1.2c-1.8,1.7-1.9,4.5-0.2,6.2c0.6,0.7,1.5,1.2,2.4,1.3L246.2,370.1z"/>
	<path class="st5" d="M248.5,362.7c-2.9-0.6-4.9-3.4-4.3-6.4s3.4-4.9,6.4-4.3c2.6,0.5,4.5,2.9,4.4,5.5h-1c0.1-2.4-1.8-4.5-4.3-4.6
		c-2.4-0.1-4.5,1.8-4.6,4.3c-0.1,2.2,1.4,4.1,3.6,4.5L248.5,362.7z"/>
	<path class="st5" d="M250.7,355.4c-2.9-0.6-4.9-3.4-4.3-6.4c0.2-1.1,0.8-2.1,1.6-2.9c2.2-2,5.6-1.9,7.7,0.3c1,1.1,1.5,2.5,1.5,3.9
		h-1c0.1-2.4-1.8-4.5-4.3-4.6c-2.4-0.1-4.5,1.8-4.6,4.3c0,0,0,0,0,0c-0.1,2.2,1.4,4.1,3.6,4.5L250.7,355.4z"/>
	<path class="st5" d="M252.9,348c-2.9-0.6-4.9-3.4-4.3-6.4c0.2-1.1,0.8-2.1,1.6-2.9c1.1-1,2.5-1.5,3.9-1.5c3,0.1,5.3,2.6,5.2,5.6
		c0,0,0,0,0,0h-1c0.1-2.4-1.8-4.5-4.3-4.6c-2.4-0.1-4.5,1.9-4.5,4.3c-0.1,2.2,1.4,4,3.5,4.5L252.9,348z"/>
	<path class="st5" d="M255.2,340.6c-2.9-0.6-4.9-3.4-4.3-6.4c0.5-2.5,2.7-4.4,5.3-4.4h0.2c3,0.1,5.3,2.6,5.2,5.6h-1
		c0.2-2.4-1.7-4.6-4.1-4.7c-2.4-0.2-4.6,1.7-4.7,4.1c0,0.1,0,0.2,0,0.3c-0.1,2.2,1.4,4.1,3.6,4.5L255.2,340.6z"/>
	<path class="st5" d="M257.4,333.3c-2.9-0.6-4.9-3.4-4.3-6.4c0.6-2.9,3.4-4.9,6.4-4.3c2.6,0.5,4.5,2.9,4.4,5.5h-1
		c0.1-2.4-1.8-4.5-4.3-4.6c-2.4-0.1-4.5,1.8-4.6,4.3c-0.1,2.2,1.4,4.1,3.6,4.5L257.4,333.3z"/>
	<path class="st5" d="M259.7,325.9c-2.9-0.6-4.9-3.4-4.3-6.4c0.2-1.1,0.8-2.1,1.6-2.9c2.2-2,5.6-1.9,7.7,0.3c1,1.1,1.5,2.5,1.5,3.9
		h-1c0.1-2.4-1.8-4.5-4.3-4.6c-2.4-0.1-4.5,1.8-4.6,4.3c-0.1,2.2,1.4,4.1,3.6,4.5L259.7,325.9z"/>
	<path class="st5" d="M261.9,318.5c-2.9-0.6-4.9-3.4-4.3-6.4c0.2-1.1,0.8-2.1,1.6-2.9c2.2-2,5.6-1.9,7.7,0.3c1,1.1,1.5,2.5,1.5,3.9
		h-1c0.1-2.4-1.8-4.5-4.3-4.6c-2.4-0.1-4.5,1.8-4.6,4.3c-0.1,2.2,1.4,4.1,3.6,4.5L261.9,318.5z"/>
	<path class="st5" d="M239.5,392.2c-2.9-0.6-4.8-3.5-4.3-6.4c0.6-2.9,3.5-4.8,6.4-4.3c2.6,0.5,4.4,2.8,4.4,5.5h-1
		c0.1-2.4-1.8-4.5-4.3-4.6c-1.2,0-2.3,0.4-3.2,1.2c-1.8,1.7-1.9,4.5-0.2,6.3c0.6,0.7,1.5,1.1,2.4,1.3L239.5,392.2z"/>
	<path class="st8" d="M247.1,386.4c1.1-2.8,13.1-44.9,18.6-62.2c1.4-3.9,5.6-6.1,9.5-4.9l61.5,18.3c3.7,1.2,5.8,5.2,4.7,8.9
		l-27.2,94.1c-1.1,3.8-5,6-8.9,5l-62.7-16.9c-3.9-1-6.2-5-5.1-8.9c0,0,0-0.1,0-0.1l9.3-32.9L247.1,386.4z"/>
	<path class="st0" d="M269,317.3c-2.5-0.7-5,0.8-5.8,3.2c-4.6,15-19.3,63.3-20.4,66.3l-10.9,35.7c-0.8,2.5,0.6,5.2,3.1,5.9
		c0.1,0,0.1,0,0.2,0.1l67.5,17.5c2.5,0.6,5.1-0.8,5.8-3.3l29.4-102c0.7-2.5-0.7-5.2-3.3-5.9c0,0-0.1,0-0.1,0L269,317.3z"/>
	<path class="st5" d="M269,317.3l1,0.2l2.8,0.7l10.7,2.8l39.4,10.5l6.4,1.7l3.3,0.9l1.7,0.5c0.6,0.1,1.2,0.3,1.7,0.6
		c1.1,0.6,1.9,1.7,2.2,2.9c0.2,0.6,0.2,1.2,0.2,1.9c-0.1,0.6-0.2,1.2-0.4,1.8l-2.1,7.2c-2.8,9.7-5.8,20.1-8.9,31s-6.5,22.4-9.9,34.3
		c-1.7,5.9-3.4,12-5.2,18.1c-0.9,3.1-1.8,6.2-2.7,9.3l-0.3,1.2c-0.1,0.4-0.3,0.8-0.5,1.2c-0.4,0.7-1.1,1.4-1.8,1.8
		c-1.1,0.6-2.5,0.8-3.8,0.5l-1.2-0.3l-37.1-9.6l-17.6-4.6l-8.6-2.2l-2.1-0.5c-0.7-0.1-1.4-0.4-2.1-0.7c-1.3-0.8-2.2-2.1-2.5-3.6
		c-0.1-0.7-0.1-1.5,0.1-2.2c0.2-0.7,0.4-1.4,0.6-2l1.2-4c0.8-2.6,1.6-5.3,2.4-7.8l4.6-15l8.3-26.9c5.1-16.4,9.2-29.7,12.1-38.9
		c0.7-2.3,1.4-4.3,1.9-6.1c0.2-0.8,0.5-1.6,0.9-2.4c0.4-0.6,0.9-1.1,1.5-1.5c0.8-0.5,1.8-0.7,2.8-0.7
		C268.4,317,268.7,317.1,269,317.3c0,0-0.3-0.1-1-0.2c-1,0-1.9,0.2-2.7,0.7c-0.6,0.4-1.1,0.9-1.5,1.5c-0.4,0.7-0.7,1.5-0.9,2.4
		l-1.9,6.1c-2.8,9.2-6.9,22.5-11.9,39c-2.5,8.2-5.3,17.2-8.2,26.9c-1.5,4.8-3,9.8-4.6,15c-0.8,2.6-1.6,5.2-2.4,7.9
		c-0.4,1.3-0.8,2.7-1.2,4c-0.2,0.7-0.4,1.4-0.6,2c-0.2,0.6-0.2,1.3-0.1,2c0.2,1.4,1,2.6,2.2,3.2c0.6,0.3,1.3,0.5,2,0.7l2.1,0.5
		l8.6,2.2l17.6,4.6l37.1,9.6c0.8,0.3,1.5,0.4,2.3,0.5c1.6,0,3-0.8,3.9-2.2c0.4-0.7,0.6-1.4,0.8-2.2c0.9-3.1,1.8-6.2,2.7-9.3
		c1.8-6.1,3.5-12.2,5.2-18.1c3.4-11.9,6.8-23.4,9.9-34.3s6.2-21.3,9-31l2.1-7.2c0.2-0.6,0.3-1.1,0.4-1.7c0.1-0.6,0-1.2-0.2-1.7
		c-0.3-1.1-1-2-2-2.6c-0.5-0.3-1-0.5-1.6-0.6l-1.7-0.5l-3.3-0.9l-6.4-1.7l-39.4-10.6l-10.7-2.9l-2.8-0.8
		C269.3,317.4,269,317.3,269,317.3z"/>
	<g class="st11">
		<path d="M273.8,416.3l-40-3.1c0.5,3,2.8,5.4,5.5,6.7c2.7,1.2,5.7,2,8.6,2.4l13.6,2.3c1.7,0.3,3.6,0.6,4.9,1.8s1.9,3.3,3,4.8
			c1.8,2.5,5,3.6,8,4.5c11.8,3.6,23.7,6.5,35.8,8.9c3.4,0.6,6.8,1.1,10.1,0.3s6.5-3.3,7-6.6L273.8,416.3z"/>
	</g>
	<path class="st5" d="M271.8,319c0.1,0-7.4,24.6-16.9,54.9s-17.3,54.8-17.4,54.7s7.4-24.6,16.9-54.9
		C263.9,343.4,271.7,318.9,271.8,319z"/>
	<polygon class="st8" points="279.6,339.3 318.6,352.8 312.7,375.5 273.8,361.9 	"/>
	<path class="st12" d="M279.5,387.5c0,0-9.9-13.2-13.5-16.1s-18.4-0.6-18.4-0.6l-6.4,6.8c0,0,1.3,5.1,7.3,2.6l1.7-1.3h6.9l4.3,5
		l-13.3-0.3c0,0-6.6-4.3-8.1-4.3s-5.1,2.9-2.5,8c0,0-5,1.6-3.3,8.4c0,0-4.2,1.1-0.4,9.2l0.5,0.9c0,0-4.4,2.1-1.5,6.7
		s10.1,6,12.3,5.9s41.6,5.7,41.6,5.7l10.6-27.7L279.5,387.5z"/>
	<path class="st13" d="M249.6,394.3c-0.7,0.1-1.4,0.1-2.1-0.1c-3.4-0.6-6.5-2.3-8.8-4.9c-0.5-0.5-0.9-1.1-1.2-1.7
		C240.6,391.2,244.9,393.6,249.6,394.3L249.6,394.3z"/>
	<path class="st13" d="M243.3,403.1c-0.6-0.1-1.2-0.2-1.8-0.5c-2.8-1.2-5.2-3-7-5.5c-0.4-0.5-0.7-1-0.9-1.6c1.3,1.6,2.8,3.1,4.4,4.4
		C239.7,401.2,241.5,402.2,243.3,403.1z"/>
	<path class="st13" d="M243.4,411.2c-1.9-0.2-3.6-0.8-5.2-1.8c-1.7-0.8-3.1-2-4.3-3.5c0.1-0.1,1.9,1.6,4.6,3S243.4,411,243.4,411.2z
		"/>
	<path class="st7" d="M378.9,405.1l-42.9-6.7l-50.4-9.5l-11.8,39.6c0,0,60.2,17.6,76.7,19.8c17.6,2.3,24.5,0,30-11.6
		C384.1,429.4,381.9,414.6,378.9,405.1z"/>
	<path class="st5" d="M338.9,446.1c-0.1,0-0.2,0-0.3-0.1l-0.9-0.2l-3.6-0.9l-13.6-3.6l-46.7-12.5l-0.2-0.1l0.1-0.2
		c2.4-7.9,4.9-16.5,7.5-25.3l4.3-14.3l0.1-0.2l0.2,0l55.2,10.9l16.3,3.3l4.4,0.9l1.1,0.2l0.4,0.1c-0.1,0-0.3,0-0.4,0l-1.1-0.2
		l-4.4-0.8l-16.3-3.1l-55.2-10.8l0.3-0.2c-1.4,4.6-2.8,9.4-4.2,14.3c-2.6,8.9-5.2,17.4-7.5,25.3l-0.2-0.3l46.7,12.7l13.5,3.7l3.6,1
		l0.9,0.3L338.9,446.1z"/>
</g>
<path class="st14" d="M285.5,107.2v4.9l-2.3-0.4l-2.1,2.9l-3.7-0.2l-4.3-4.6l-0.8-4.4l-0.9-2.7l0.3-1.6c0.1,0,0.2,0,0.4,0.1
	c-0.3-1.3-0.2-2.6,0.2-3.8c0.6-1.2,2.2-2,3.2-1.2c-1.1,1.8,0.2,4.2,2.1,5.1c1.9,0.9,4.1,0.7,6.1,0.4c0.1,0,0.1,0,0.2,0
	c0.2,0,0.3,0,0.4-0.1L285.5,107.2z"/>
<g>
	<path class="st15" d="M282.1,355.2c0.7,0.3,1.5,0.5,2.2,0.8c0.1,0,0.2,0,0.2-0.1c0.4-0.5,0.8-1.1,1.2-1.6c0.6-0.8,1.2-1.7,1.8-2.5
		c0.4-0.6,0.9-1.2,1.3-1.7c0.4-0.5,0.8-1.1,1.2-1.6c0.2-0.3,0.4-0.6,0.6-0.9c0-0.1,0.1-0.1,0.2-0.1c0.7,0.2,1.4,0.5,2,0.7
		c0.1,0,0.1,0.1,0,0.2c-0.3,0.4-0.5,0.7-0.8,1.1c-0.4,0.5-0.8,1-1.1,1.6c-0.1,0.1-0.2,0.2-0.2,0.3c0,0.1,0,0.1,0.1,0.2
		c0.6,0.2,1.2,0.4,1.7,0.6c0.1,0,0.2,0.1,0.1,0.2c-0.3,0.3-0.5,0.7-0.8,1c-0.1,0.1-0.2,0.3-0.3,0.4c-0.1,0.1-0.1,0.1-0.3,0.1
		c-0.6-0.2-1.2-0.4-1.7-0.6c-0.1-0.1-0.2,0-0.3,0.1c-0.6,0.8-1.2,1.7-1.8,2.5c-0.6,0.9-1.3,1.7-1.9,2.6c-0.1,0.2-0.2,0.2-0.4,0.1
		c-2.2-0.8-4.4-1.6-6.6-2.4c-0.2-0.1-0.2-0.1-0.1-0.3c0.3-0.5,0.7-0.9,1-1.4c0.1-0.1,0.2-0.1,0.3-0.1
		C280.6,354.6,281.4,354.9,282.1,355.2z"/>
	<path class="st15" d="M293.1,347.9c-0.7-0.3-1.4-0.5-2.2-0.8c-0.2-0.1-0.3,0-0.4,0.1c-0.6,0.8-1.2,1.6-1.8,2.5
		c-0.6,0.8-1.2,1.6-1.7,2.4c-0.7,0.9-1.4,1.9-2.1,2.8c-0.1,0.2-0.3,0.4-0.4,0.6c-0.1,0.1-0.1,0.1-0.2,0.1c-0.7-0.2-1.3-0.5-2-0.7
		c-0.1,0-0.1-0.1,0-0.2c0.6-0.8,1.2-1.6,1.8-2.4c0.1-0.2,0.3-0.4,0.4-0.6c0.1-0.1,0.1-0.1,0-0.1c-0.1,0-0.1-0.1-0.2-0.1
		c-0.6-0.2-1.1-0.4-1.7-0.6c-0.1,0-0.1-0.1-0.1-0.2c0.4-0.5,0.8-0.9,1.1-1.4c0.1-0.1,0.1-0.1,0.2,0c0.6,0.2,1.2,0.4,1.7,0.6
		c0.1,0,0.2,0,0.3-0.1c0.5-0.7,1.1-1.4,1.6-2.2c0.7-0.9,1.3-1.7,1.9-2.6c0.1-0.1,0.2-0.2,0.3-0.3c0.1-0.1,0.2-0.1,0.3-0.1
		c2.1,0.7,4.1,1.5,6.2,2.2c0.2,0.1,0.3,0.1,0.5,0.2c0.1,0,0.1,0.1,0.1,0.1c-0.4,0.5-0.7,1-1.1,1.5c-0.1,0.1-0.1,0-0.2,0
		C294.6,348.4,293.8,348.1,293.1,347.9C293.1,347.9,293.1,347.9,293.1,347.9z"/>
	<path class="st15" d="M293.5,363.1c-5.2-1.9-10.3-3.7-15.5-5.6c-0.1,0-0.2-0.1-0.1-0.2c0.1-0.1,0.1-0.1,0.2-0.1
		c3.7,1.3,7.4,2.7,11.1,4c6.5,2.3,12.9,4.6,19.4,7c0.2,0.1,0.3,0.1,0.5,0.2c0.1,0,0.1,0.1,0.1,0.2c0,0.1-0.1,0.1-0.2,0.1
		C303.8,366.8,298.7,365,293.5,363.1z"/>
	<path class="st16" d="M306.1,364.4c-0.3-0.1-0.5-0.2-0.8-0.3c0.3,0,0.3-0.2,0.3-0.3c0.3-0.8,0.5-1.5,0.8-2.3
		c0.1-0.1,0.1-0.3-0.1-0.4c0-0.1,0.1,0,0.1,0c0.3,0.1,0.7,0.2,1,0.4c0.1,0,0.3,0.1,0.4,0.2c0.4,0.3,0.3,1-0.2,1.3
		c-0.1,0-0.1,0.1-0.2,0.1c-0.1,0-0.2,0.1-0.1,0.2c0.1,0.4,0.2,0.9,0.4,1.3c0.2,0.4,0.3,0.4,0.7,0.4c0,0,0.1,0,0.1,0
		c0,0,0,0.1-0.1,0.1c-0.4,0.2-1-0.1-1.1-0.5c-0.2-0.4-0.3-0.9-0.4-1.3c0-0.2-0.1-0.2-0.2-0.3c-0.3-0.1-0.3-0.1-0.4,0.2
		c-0.1,0.2-0.2,0.5-0.3,0.7C305.9,364.2,305.9,364.2,306.1,364.4z M306.7,362.8C306.7,362.8,306.7,362.8,306.7,362.8
		c0.1,0,0.1,0,0.1,0c0.5,0.1,0.9-0.2,0.9-0.7c0-0.4-0.2-0.6-0.6-0.8c-0.1,0-0.2,0-0.2,0.1c-0.1,0.4-0.2,0.7-0.4,1.1
		C306.5,362.7,306.5,362.8,306.7,362.8C306.6,362.8,306.7,362.8,306.7,362.8z"/>
	<path class="st16" d="M306.6,355.5c0.1,0,0.2,0.1,0.3,0.1c0.3,0.1,0.7,0.2,1,0.4c0.3,0.1,0.5,0.3,0.5,0.6c0,0.3-0.1,0.6-0.4,0.8
		c0,0-0.1,0-0.1,0.1c-0.3,0.1-0.3,0.1-0.2,0.5c0.1,0.4,0.2,0.8,0.3,1.2c0.1,0.3,0.4,0.5,0.7,0.4c0,0,0.1,0,0.1,0
		c0,0.1,0,0.1-0.1,0.1c-0.4,0.1-1-0.1-1.1-0.5c-0.1-0.4-0.3-0.8-0.3-1.2c0-0.2-0.1-0.3-0.4-0.4c-0.2,0-0.2,0-0.3,0.1
		c-0.1,0.3-0.2,0.6-0.3,0.8c-0.1,0.2-0.1,0.2,0.1,0.4c-0.3-0.1-0.5-0.2-0.8-0.3c0.2,0,0.3-0.2,0.3-0.3c0.3-0.8,0.6-1.5,0.8-2.3
		C306.7,355.8,306.8,355.7,306.6,355.5C306.5,355.6,306.6,355.6,306.6,355.5z M306.9,356.5c0,0.1-0.1,0.2-0.1,0.3
		c-0.2,0.4-0.2,0.4,0.3,0.5c0.6,0.1,0.8-0.3,0.8-0.7c0-0.5-0.4-0.6-0.7-0.7c-0.1,0-0.1,0-0.1,0.1C307,356.2,306.9,356.4,306.9,356.5
		z"/>
	<path class="st16" d="M303.4,354.4c0.3,0.1,0.5,0.2,0.8,0.3c-0.3-0.1-0.3,0.2-0.4,0.3c-0.2,0.5-0.4,1.1-0.6,1.6
		c-0.1,0.2-0.1,0.5,0,0.7c0.2,0.4,0.6,0.6,1.1,0.4c0.2-0.1,0.4-0.2,0.5-0.4c0.2-0.6,0.4-1.2,0.6-1.8c0.1-0.1,0.2-0.3-0.1-0.4
		c0.3,0.1,0.5,0.2,0.8,0.3c-0.3,0-0.3,0.2-0.4,0.4c-0.3,0.7-0.5,1.5-0.8,2.2c-0.1,0.2-0.1,0.3,0.1,0.4c0,0,0,0,0,0
		c-0.2-0.1-0.4-0.1-0.5-0.2c-0.1,0,0-0.1,0-0.1c0-0.1,0.1-0.2,0.1-0.3c-0.3,0.2-0.6,0.2-1,0.2c-0.2,0-0.4-0.1-0.6-0.3
		c-0.3-0.2-0.4-0.6-0.3-1.1c0.2-0.6,0.4-1.2,0.6-1.8C303.6,354.7,303.6,354.5,303.4,354.4z"/>
	<path class="st16" d="M299.5,356.4c-0.2-0.1-0.4-0.1-0.5-0.2c-0.1,0-0.1-0.1-0.1-0.1c0-0.1,0.1-0.2,0.1-0.3c-0.1,0-0.1,0-0.1,0
		c-0.5,0.2-0.9,0.1-1.4-0.1c-0.3-0.2-0.5-0.7-0.3-1.1c0.2-0.6,0.4-1.2,0.6-1.8c0-0.1,0.2-0.3-0.1-0.4c0.3,0.1,0.5,0.2,0.8,0.3
		c-0.3-0.1-0.3,0.2-0.4,0.3c-0.2,0.6-0.4,1.1-0.6,1.7c-0.2,0.7,0.4,1.2,1.1,1.1c0.1,0,0.2-0.1,0.3-0.1c0.1,0,0.1-0.1,0.2-0.2
		c0.2-0.6,0.4-1.2,0.7-1.9c0,0,0-0.1,0-0.1c0-0.1,0.1-0.3-0.1-0.4c0.3,0.1,0.5,0.2,0.8,0.3c-0.3-0.1-0.3,0.2-0.3,0.3
		c-0.3,0.7-0.5,1.5-0.8,2.2C299.3,356.2,299.3,356.2,299.5,356.4z"/>
	<path class="st16" d="M304.7,360.4c1,0.4,1.4,1.3,0.8,2.2c-0.7,1.2-2,1.1-2.8,0.4c-0.4-0.4-0.6-1.1-0.3-1.6
		c0.3-0.6,0.8-1.1,1.5-1.1C304.2,360.2,304.4,360.3,304.7,360.4z M302.8,361.2c-0.2,0.5-0.1,1.1,0.2,1.6c0.3,0.5,0.8,0.7,1.4,0.5
		c0.5-0.1,0.9-0.6,1-1.1c0.1-0.6-0.2-1.1-0.6-1.5C304.1,360.1,303,360.4,302.8,361.2z"/>
	<path class="st16" d="M296.3,360.8c-0.2-0.1-0.5-0.2-0.7-0.3c0.2,0,0.1-0.2,0.1-0.3c0-0.4,0-0.8,0-1.1c0-0.1,0-0.1-0.1-0.2
		c-0.2-0.1-0.4-0.1-0.6-0.2c-0.1,0-0.1,0-0.2,0c-0.3,0.3-0.5,0.6-0.8,0.9c-0.1,0.1-0.1,0.1,0,0.2c-0.2-0.1-0.3-0.1-0.5-0.2
		c0.2,0,0.3-0.2,0.4-0.3c0.6-0.7,1.3-1.5,1.9-2.2c0,0,0.1-0.1,0.1-0.1c0.1,0,0.1,0.1,0.1,0.2c0,1,0.1,1.9,0.1,2.9
		C296.1,360.5,296.1,360.7,296.3,360.8z M295.6,357.9c-0.2,0.3-0.4,0.5-0.6,0.7c0,0.1,0,0.1,0,0.1c0.2,0.1,0.4,0.1,0.5,0.2
		c0.1,0,0.1,0,0.1-0.1C295.7,358.5,295.6,358.2,295.6,357.9z"/>
	<path class="st16" d="M308.8,359.7c0.3,0.1,0.3-0.1,0.3-0.2c0.3-0.7,0.5-1.5,0.8-2.2c0,0,0-0.1,0-0.1c0-0.1,0.1-0.3-0.1-0.3
		c0-0.1,0.1,0,0.1,0c0.6,0.2,1.1,0.4,1.7,0.6c0.1,0,0.1,0.1,0.1,0.2c0,0.1-0.1,0.1-0.1,0.2c0,0,0,0.1-0.1,0.1c0,0,0-0.1,0-0.1
		c0-0.2,0-0.3-0.2-0.3c-0.3-0.1-0.6-0.2-0.8-0.3c-0.1,0-0.1,0-0.2,0.1c-0.1,0.4-0.3,0.7-0.4,1.1c0,0.1,0,0.1,0.1,0.2
		c0.3,0.1,0.6,0.2,0.8,0.3c0.1,0,0.2,0,0.2,0c0,0.1,0,0.1,0,0.2c0,0.1-0.1,0.2-0.1,0c0,0-0.1,0-0.1-0.1c-0.3-0.1-0.6-0.2-0.9-0.3
		c-0.1,0-0.1,0-0.1,0.1c-0.1,0.3-0.3,0.7-0.3,1c0,0.2,0,0.3,0.2,0.3c0.3,0.1,0.6,0.2,0.9,0.3c0.2,0.1,0.3,0,0.4-0.2
		c0,0.1-0.1,0.3-0.1,0.4c0,0-0.1,0-0.1,0C310.1,360.2,309.4,360,308.8,359.7C308.8,359.7,308.8,359.7,308.8,359.7z"/>
	<path class="st16" d="M299.9,359.3c-0.2-0.2-0.3-0.5-0.5-0.6c-0.6-0.4-1.4-0.4-1.8,0.1c-0.3,0.2-0.4,0.6-0.4,0.9
		c0,0.7,0.1,1.2,0.7,1.6c0.5,0.3,1,0.4,1.6,0.2c0,0,0,0,0,0c0,0,0,0,0,0c-0.1,0.2-0.3,0.3-0.5,0.3c-0.6-0.1-1.1-0.2-1.6-0.5
		c-0.8-0.5-1-1.4-0.5-2.2c0.5-0.7,1.3-1,2.1-0.7c0.3,0.1,0.5,0.2,0.7,0.4C300,358.9,300,359.1,299.9,359.3z"/>
	<path class="st16" d="M309.4,365.5c-0.3-0.1-0.5-0.2-0.8-0.3c0.3,0,0.3-0.1,0.3-0.3c0.1-0.4,0.3-0.7,0.4-1.1c0-0.1,0-0.2,0-0.2
		c-0.1-0.4-0.2-0.9-0.3-1.3c0-0.1,0-0.3-0.2-0.4c0.2,0.1,0.5,0.2,0.7,0.3c-0.1,0-0.2,0.1-0.2,0.2c0.1,0.4,0.2,0.8,0.2,1.2
		c0.4-0.3,0.7-0.5,1-0.8c0.1-0.1,0.1-0.1,0-0.2c0.2,0.1,0.3,0.1,0.5,0.2c-0.4,0-0.6,0.3-0.9,0.5c-0.5,0.3-0.8,0.7-0.9,1.2
		c0,0.2-0.1,0.4-0.2,0.6C309.2,365.2,309.1,365.4,309.4,365.5z"/>
	<path class="st16" d="M301.4,357.1c-0.3-0.1-0.5-0.2-0.8-0.3c0.3,0,0.3-0.2,0.4-0.4c0.3-0.8,0.5-1.5,0.8-2.3c0-0.1,0-0.2-0.1-0.2
		c-0.2-0.1-0.4-0.1-0.6-0.2c-0.1,0-0.1,0-0.2,0.1c-0.1-0.1,0-0.3-0.1-0.4c0.1,0.1,0.2,0.1,0.3,0.2c0.6,0.2,1.2,0.4,1.8,0.7
		c0.1,0,0.2,0.1,0.4,0c-0.1,0.2-0.2,0.2-0.3,0.4c0.1-0.2-0.1-0.2-0.2-0.3c-0.2-0.1-0.4-0.1-0.5-0.2c-0.1,0-0.1,0-0.2,0.1
		c-0.3,0.8-0.6,1.7-0.9,2.5C301.2,356.8,301.2,357,301.4,357.1z"/>
	<path class="st16" d="M292.9,356.2c0.2,0.1,0.5,0.2,0.7,0.2c0.3,0.1,0.7,0.3,1,0.4c0.2,0,0.2,0.1,0.1,0.3c0,0.1,0,0.1-0.1,0.2
		c0-0.4-0.3-0.4-0.5-0.5c-0.2-0.1-0.4-0.1-0.6-0.2c-0.1,0-0.1,0-0.2,0.1c-0.1,0.4-0.3,0.7-0.4,1.1c0,0.1,0,0.1,0.1,0.1
		c0.3,0.1,0.5,0.2,0.8,0.3c0,0,0.1,0,0.1,0c0,0,0.1-0.1,0.1,0c0,0.1,0,0.2-0.1,0.2c0,0,0,0-0.1,0c-0.3-0.3-0.7-0.3-1-0.4
		c-0.1,0-0.1,0-0.1,0.1c-0.1,0.4-0.3,0.8-0.4,1.1c0,0.1,0,0.2,0.2,0.3c0,0,0,0,0,0c-0.3-0.1-0.5-0.2-0.8-0.3c0.3,0,0.3-0.2,0.3-0.4
		c0.3-0.7,0.5-1.5,0.8-2.2C293,356.5,293,356.3,292.9,356.2C292.8,356.2,292.8,356.2,292.9,356.2z"/>
	<path class="st16" d="M295.7,351.6c0.3,0.1,0.5,0.2,0.8,0.3c0.3,0.1,0.6,0.2,0.9,0.3c0.1,0,0.2,0.1,0.1,0.2c0,0.1,0,0.1-0.1,0.2
		c0-0.3-0.2-0.4-0.4-0.4c-0.2-0.1-0.5-0.2-0.7-0.2c-0.1,0-0.1,0-0.2,0.1c-0.1,0.4-0.2,0.7-0.4,1.1c0,0.1,0,0.1,0.1,0.2
		c0.3,0.1,0.5,0.2,0.8,0.3c0.1,0,0.2,0.1,0.2,0c0,0.1,0,0.2-0.1,0.3c0,0-0.1,0.1-0.1,0c-0.1-0.1-0.2-0.1-0.3-0.2
		c-0.2-0.1-0.4-0.1-0.6-0.2c-0.1,0-0.1,0-0.2,0.1c-0.1,0.3-0.2,0.6-0.3,1c-0.1,0.2-0.1,0.3,0.1,0.5c-0.3-0.1-0.5-0.2-0.8-0.3
		c0.3,0,0.3-0.2,0.4-0.4c0.2-0.7,0.5-1.4,0.7-2c0-0.1,0-0.1,0.1-0.2C295.8,351.9,295.9,351.7,295.7,351.6
		C295.7,351.7,295.7,351.6,295.7,351.6z"/>
	<path class="st16" d="M301.1,362.5c-0.3-0.1-0.5-0.2-0.8-0.3c0.3,0,0.3-0.2,0.4-0.4c0.3-0.8,0.5-1.5,0.8-2.3c0-0.1,0-0.2-0.1-0.2
		c-0.2-0.1-0.4-0.1-0.5-0.2c-0.1,0-0.2-0.1-0.3,0.1c0-0.2,0-0.3,0-0.4c0.1,0.2,0.3,0.2,0.4,0.2c0.5,0.2,1.1,0.4,1.6,0.6
		c0.2,0.1,0.3,0.2,0.5,0.1c-0.1,0.1-0.2,0.2-0.3,0.4c0.1-0.2,0-0.2-0.1-0.3c-0.2-0.1-0.4-0.1-0.6-0.2c-0.1,0-0.1,0-0.2,0.1
		c-0.3,0.8-0.6,1.7-0.9,2.5C300.9,362.3,300.9,362.4,301.1,362.5z"/>
	<path class="st16" d="M302.3,367.6c0.2,0.1,0.4,0.3,0.2,0.4c-0.1,0.2-0.1,0.3-0.1,0.5c0,0.3-0.3,0.4-0.6,0.3
		c-0.1-0.1-0.3-0.1-0.4-0.2c0,0,0,0,0,0c0,0,0-0.1,0.1,0c0.1,0,0.2-0.1,0.2-0.2c0.1-0.2,0.1-0.3,0.2-0.5c0-0.1,0.1-0.2,0-0.3
		c0,0,0,0,0-0.1c0,0,0,0,0.1,0C302,367.5,302.1,367.6,302.3,367.6z M302.2,368.6c0-0.1,0-0.3-0.2-0.3c-0.2,0-0.1,0.1-0.1,0.2
		c0,0,0,0.1-0.1,0.2c0,0,0,0.1,0,0.1C302,368.8,302.1,368.7,302.2,368.6z M302.3,367.8c-0.1-0.1-0.2-0.1-0.2,0c0,0.1-0.2,0.2,0,0.3
		c0.1,0.1,0.2,0,0.3-0.1C302.4,367.9,302.3,367.8,302.3,367.8z"/>
	<path class="st16" d="M289.2,362.9c0.4,0.1,0.5,0.4,0.4,0.8c-0.1,0.4-0.5,0.5-0.8,0.4c-0.4-0.1-0.5-0.4-0.4-0.8
		C288.5,362.9,288.8,362.8,289.2,362.9z M289.3,363.7c0.1-0.3,0-0.6-0.2-0.6c-0.1-0.1-0.3,0-0.4,0.1c-0.2,0.2-0.2,0.4-0.2,0.6
		c0,0.1,0.1,0.2,0.3,0.3C289,364,289.2,363.9,289.3,363.7z"/>
	<path class="st16" d="M299,366.5c0.1,0,0.2,0.1,0.3,0.1c0.1,0.1,0.2,0.1,0.2,0.3c0,0.1-0.1,0.3-0.2,0.3c-0.1,0-0.1,0.1-0.1,0.2
		c0,0.2,0,0.3,0.2,0.5c0,0,0,0,0,0.1c0,0,0,0-0.1,0c-0.2,0-0.3-0.1-0.3-0.3c0-0.1,0-0.2,0-0.3c0-0.1,0-0.1-0.1-0.1
		c-0.1,0-0.1,0.1-0.1,0.1c0,0.1-0.1,0.2,0,0.3c0,0,0,0,0,0.1c0,0,0,0-0.1,0c-0.1,0-0.2-0.1-0.2-0.1c-0.1,0-0.1,0-0.2-0.1
		c0-0.1,0.1,0,0.1-0.1c0,0,0.1-0.1,0.1-0.1c0.1-0.2,0.1-0.4,0.2-0.6c0-0.1,0.1-0.2,0-0.3c0,0,0,0,0-0.1c0,0,0,0,0.1,0
		C298.9,366.4,298.9,366.4,299,366.5z M298.9,366.8c-0.1,0.2-0.1,0.2,0,0.2c0.1,0,0.2,0,0.3-0.1c0-0.1,0-0.2-0.1-0.3
		C299,366.6,299,366.8,298.9,366.8z"/>
	<path class="st16" d="M291.8,363.9c0.1,0.1,0.2,0.1,0.3,0.1c0.2,0.2,0.2,0.4-0.1,0.5c-0.1,0-0.1,0.1-0.1,0.2c0,0.2,0,0.3,0.2,0.4
		c0,0,0,0,0,0.1c0,0,0,0-0.1,0c-0.2,0-0.3-0.1-0.3-0.3c0-0.1,0-0.2-0.1-0.3c0,0,0-0.1-0.1-0.1c0,0-0.1,0-0.1,0.1
		c0,0.1-0.2,0.3,0,0.4c0,0,0,0,0,0c0,0,0,0-0.1,0c-0.1,0-0.3-0.1-0.4-0.1c0,0,0,0,0,0c0,0,0,0,0,0c0.1,0,0.2-0.1,0.2-0.2
		c0.1-0.2,0.1-0.3,0.2-0.5c0-0.1,0.1-0.2,0-0.3c0,0,0,0,0-0.1c0,0,0,0,0.1,0C291.7,363.8,291.8,363.9,291.8,363.9z M292,364.3
		c0.1-0.1,0-0.2-0.1-0.3c-0.1,0-0.1,0.1-0.1,0.1c0,0,0,0.1,0,0.1c0,0.1,0,0.2,0.1,0.2C292,364.5,292,364.4,292,364.3z"/>
	<path class="st16" d="M280.7,359.9c0.1,0,0.2,0.1,0.3,0.1c0.1,0.1,0.2,0.1,0.2,0.3c0,0.1-0.1,0.3-0.2,0.3c-0.1,0-0.1,0.1-0.1,0.2
		c0,0.2,0,0.3,0.2,0.5c0,0,0,0,0,0.1c0,0,0,0-0.1,0c-0.1,0-0.3-0.1-0.3-0.3c0-0.1,0-0.2-0.1-0.3c0,0,0-0.1-0.1-0.1
		c-0.1,0-0.1,0-0.1,0.1c0,0.1-0.2,0.3,0,0.4c0,0,0,0,0,0c0,0,0,0-0.1,0c-0.1,0-0.3-0.1-0.4-0.1c0,0,0,0,0,0c0,0,0,0,0,0
		c0.1,0,0.2-0.1,0.2-0.2c0.1-0.2,0.1-0.4,0.2-0.5c0-0.1,0.1-0.2,0-0.3c0,0,0,0,0-0.1c0,0,0,0,0.1,0
		C280.5,359.8,280.6,359.9,280.7,359.9z M280.6,360.3c0,0.1-0.1,0.2,0,0.2c0.1,0,0.2,0,0.3-0.1c0-0.1,0-0.2-0.1-0.3
		C280.6,360,280.7,360.2,280.6,360.3z"/>
	<path class="st16" d="M294.5,365.4c0-0.1,0.1-0.2,0.1-0.2c0-0.1,0.1-0.2,0-0.2c0,0,0,0,0-0.1c0,0,0.1,0,0.1,0
		c0.1,0,0.3,0.1,0.4,0.1c0,0,0.1,0,0.1,0.1c0,0,0,0.1-0.1,0.1c-0.1,0-0.1,0-0.2,0.1c-0.1,0.2-0.1,0.3-0.2,0.5
		c-0.1,0.2,0,0.3,0.2,0.4c0.2,0.1,0.3,0,0.4-0.2c0.1-0.2,0.1-0.4,0.2-0.5c0-0.1,0-0.1-0.1-0.2c0,0,0,0,0-0.1c0,0,0,0,0.1,0
		c0.1,0,0.2,0.1,0.3,0.1c0,0,0.1,0,0.1,0.1c0,0,0,0.1-0.1,0c-0.1,0-0.1,0.1-0.2,0.1c-0.1,0.2-0.1,0.3-0.2,0.5
		c-0.1,0.3-0.3,0.4-0.6,0.3c-0.3-0.1-0.4-0.3-0.3-0.6C294.4,365.6,294.4,365.5,294.5,365.4z"/>
	<path class="st16" d="M290,363.8c0-0.1,0.1-0.2,0.1-0.3c0-0.1,0.1-0.2,0-0.2c0,0-0.1,0,0-0.1c0,0,0.1,0,0.1,0
		c0.1,0,0.2,0.1,0.4,0.1c0,0,0.1,0,0.1,0.1c0,0,0,0-0.1,0c-0.1,0-0.2,0.1-0.2,0.1c-0.1,0.2-0.1,0.3-0.2,0.5c-0.1,0.2,0,0.4,0.2,0.4
		c0.2,0,0.3,0,0.4-0.2c0.1-0.1,0.1-0.3,0.2-0.4c0-0.1,0.1-0.2,0-0.3c0,0,0,0,0-0.1c0,0,0,0,0.1,0c0.1,0,0.2,0.1,0.3,0.1
		c0,0,0.1,0,0,0.1c0,0,0,0-0.1,0c-0.1,0-0.1,0.1-0.2,0.1c-0.1,0.2-0.1,0.3-0.2,0.5c-0.1,0.2-0.3,0.3-0.6,0.2
		c-0.3-0.1-0.4-0.3-0.3-0.6C290,364,290,363.9,290,363.8C290,363.8,290,363.8,290,363.8z"/>
	<path class="st16" d="M297.2,366.4c0-0.1,0.1-0.2,0.1-0.3c0-0.1,0.1-0.2,0-0.2c0,0,0,0,0-0.1c0,0,0,0,0.1,0c0.1,0,0.2,0.1,0.4,0.1
		c0,0,0.1,0,0.1,0.1c0,0,0,0.1-0.1,0c-0.1,0-0.1,0-0.2,0.1c-0.1,0.2-0.1,0.4-0.2,0.5c-0.1,0.2,0,0.3,0.2,0.4c0.2,0.1,0.3,0,0.4-0.2
		c0.1-0.2,0.1-0.3,0.2-0.5c0-0.1,0.1-0.2-0.1-0.3c0,0,0,0,0-0.1c0,0,0,0,0.1,0c0.1,0,0.2,0.1,0.3,0.1c0,0,0.1,0,0.1,0.1
		c0,0,0,0.1-0.1,0c-0.1,0-0.2,0.1-0.2,0.2c-0.1,0.2-0.1,0.3-0.2,0.5c-0.1,0.2-0.3,0.3-0.6,0.2c-0.3-0.1-0.4-0.3-0.3-0.6
		C297.1,366.6,297.2,366.5,297.2,366.4z"/>
	<path class="st16" d="M300,366.9c0.1-0.1,0.2,0,0.2,0c0.2,0.1,0.4,0.1,0.6,0.2c0,0,0.1,0,0.1,0.1c0,0.1,0,0.2-0.1,0.2
		c-0.1,0,0,0-0.1-0.1c0-0.1-0.2-0.2-0.3-0.2c-0.1,0-0.1,0.1-0.1,0.2c-0.1,0.2-0.1,0.2,0.1,0.3c0.1,0,0.2,0,0.1,0.1
		c0,0.1-0.1,0-0.2,0c-0.1,0-0.2-0.1-0.2,0c-0.1,0.1-0.2,0.2-0.1,0.4c0.1,0.1,0.2,0.1,0.4,0.1c0,0,0.1-0.1,0.1-0.1c0,0,0,0.1,0,0.1
		c-0.1,0.1-0.1,0.2-0.2,0.2c-0.3-0.1-0.5-0.2-0.8-0.3c0,0,0,0,0,0c0,0,0,0,0.1,0c0.1,0,0.2-0.1,0.2-0.2c0.1-0.1,0.1-0.3,0.2-0.4
		C300.1,367.2,300.2,367,300,366.9z"/>
	<path class="st16" d="M304.8,369.1c0-0.1,0.1-0.2,0.1-0.3c0-0.1,0-0.1,0-0.2c0,0-0.1,0,0-0.1c0,0,0.1,0,0.1,0
		c0.1,0,0.2,0.1,0.3,0.1c0,0,0.1,0,0.1,0.1c0,0,0,0-0.1,0c-0.1,0-0.1,0.1-0.2,0.2c-0.1,0.2-0.1,0.3-0.2,0.5c-0.1,0.2,0,0.3,0.2,0.4
		c0.2,0.1,0.3,0,0.4-0.2c0.1-0.2,0.1-0.3,0.2-0.5c0-0.1,0-0.2-0.1-0.2c0,0-0.1,0,0-0.1c0,0,0.1,0,0.1,0c0.1,0,0.2,0.1,0.3,0.1
		c0,0,0.1,0,0.1,0.1c0,0,0,0.1-0.1,0.1c-0.1,0-0.2,0.1-0.2,0.1c-0.1,0.2-0.1,0.3-0.2,0.5c-0.1,0.2-0.3,0.3-0.6,0.2
		c-0.3-0.1-0.4-0.3-0.3-0.6C304.7,369.3,304.8,369.2,304.8,369.1z"/>
	<path class="st16" d="M306.8,369.2c0,0,0.1,0,0.1,0.1c0,0,0.1,0,0.1,0.1c0,0.1,0,0.2-0.1,0.2c-0.1,0-0.1,0-0.1-0.1
		c0-0.1,0-0.2-0.1-0.2c-0.1,0-0.1,0-0.2,0c-0.1,0.1,0,0.1,0,0.2c0.1,0.1,0.1,0.1,0.2,0.2c0.2,0.2,0.2,0.3,0.1,0.5
		c-0.1,0.1-0.3,0.2-0.5,0.1c-0.1,0-0.1,0-0.2-0.1c-0.1-0.1-0.1-0.3-0.1-0.4c0,0,0,0,0.1,0c0,0,0,0.1,0,0.1c0,0.1,0,0.2,0.1,0.3
		c0.1,0.1,0.2,0.1,0.3,0c0.1-0.1,0.1-0.2,0-0.2c0-0.1-0.1-0.1-0.2-0.2c-0.2-0.2-0.2-0.3-0.1-0.5
		C306.4,369.2,306.5,369.1,306.8,369.2z"/>
	<path class="st16" d="M281.7,361.5c-0.1,0-0.2-0.1-0.3-0.1c0,0-0.1,0-0.1-0.1c0,0,0,0,0.1,0c0.1,0,0.1-0.1,0.2-0.2
		c0.1-0.2,0.1-0.4,0.2-0.6c0-0.1,0.1-0.2,0-0.2c0,0,0,0,0-0.1c0,0,0,0,0.1,0c0.2,0.1,0.5,0.2,0.7,0.2c0,0,0.1,0,0.1,0.1
		c0,0.1,0,0.2-0.1,0.2c0,0-0.1,0-0.1-0.1c0-0.1-0.2-0.2-0.3-0.2c-0.1,0-0.1,0.1-0.1,0.1c-0.1,0.2-0.1,0.2,0.2,0.3c0,0,0.1,0,0.1,0.1
		c0,0.1-0.1,0-0.2,0c-0.1,0-0.2-0.1-0.2-0.1c-0.1,0.1-0.1,0.2-0.1,0.3c0,0.1,0.2,0.2,0.4,0.1c0,0,0,0,0.1-0.1c0,0,0.1,0,0.1,0
		c0,0,0,0.1,0,0.1c-0.1,0.2-0.1,0.2-0.3,0.1C281.9,361.6,281.8,361.6,281.7,361.5z"/>
	<path class="st16" d="M285.5,362.9c-0.1,0-0.2-0.1-0.4-0.1c0,0-0.1,0,0-0.1c0,0,0,0,0.1,0c0.1,0,0.1-0.1,0.2-0.1
		c0.1-0.2,0.1-0.4,0.2-0.6c0-0.1,0.1-0.2,0-0.2c0,0,0,0,0-0.1c0,0,0.1,0,0.1,0c0.2,0.1,0.5,0.2,0.7,0.2c0,0,0.1,0,0.1,0.1
		c0,0.1,0,0.2-0.1,0.2c0,0-0.1,0-0.1-0.1c0-0.2-0.2-0.2-0.3-0.2c0,0-0.1,0-0.1,0.1c0,0,0,0.1-0.1,0.1c-0.1,0.1,0,0.2,0.1,0.3
		c0.1,0,0.2,0,0.2,0.1c0,0.1-0.1,0-0.2,0c-0.1,0-0.2-0.1-0.2,0c-0.1,0.1-0.2,0.2-0.1,0.3c0.1,0.1,0.2,0.1,0.3,0.1c0,0,0.1,0,0.1-0.1
		c0,0,0.1,0,0.1,0c0,0.1-0.1,0.1-0.1,0.2c0,0.1-0.1,0-0.1,0C285.8,363,285.6,363,285.5,362.9C285.5,362.9,285.5,362.9,285.5,362.9z"
		/>
	<path class="st16" d="M283.4,362.1C283.3,362.1,283.3,362.1,283.4,362.1c-0.1-0.1-0.2-0.1-0.2-0.1c0-0.1,0.1,0,0.1-0.1
		c0.1-0.1,0.1-0.2,0-0.3c0-0.1-0.2-0.1-0.3-0.1c-0.1,0-0.2,0.1-0.2,0.2c0,0.1,0,0.1-0.2,0.1c0,0,0,0-0.1,0c0,0-0.1,0-0.1-0.1
		c0-0.1,0.1,0,0.1,0c0.1,0,0.1-0.1,0.2-0.1c0.2-0.2,0.4-0.5,0.6-0.7c0,0,0.1-0.1,0.1-0.1c0.1,0,0,0.1,0,0.1c0,0.3,0,0.6,0,0.8
		c0,0.1,0,0.2,0.1,0.3c0,0,0,0,0,0.1c0,0,0,0-0.1,0C283.5,362.2,283.4,362.2,283.4,362.1C283.4,362.1,283.4,362.1,283.4,362.1z
		 M283.3,361.2c-0.1,0.1-0.1,0.1-0.1,0.1c0,0-0.1,0.1-0.1,0.1c0,0,0.1,0.1,0.2,0.1c0.1,0,0-0.1,0-0.1
		C283.3,361.3,283.3,361.3,283.3,361.2z"/>
	<path class="st16" d="M278.8,359.9c0.1-0.4,0.4-0.5,0.8-0.4c0.1,0,0.2,0,0.2,0.1c0.2,0.1,0.2,0.2,0.1,0.4c0,0,0,0.1-0.1,0
		c0,0,0,0,0-0.1c-0.1-0.3-0.4-0.4-0.6-0.2c-0.2,0.1-0.3,0.5-0.2,0.7c0.1,0.2,0.4,0.3,0.6,0.1c0,0,0.1-0.1,0.1,0c0,0,0,0.1,0,0.1
		c-0.1,0.1-0.1,0.2-0.3,0.2c0,0-0.1,0-0.2,0C278.8,360.6,278.7,360.3,278.8,359.9z"/>
	<path class="st16" d="M287.6,362.9c0.1-0.1,0.2-0.2,0.3-0.2c0,0,0-0.1,0-0.1c0,0-0.1-0.1,0-0.1c0-0.1,0.1,0,0.1,0
		c0.1,0,0.1,0,0.2,0.1c0,0,0.1,0,0.1,0.1c0,0,0,0-0.1,0.1c-0.3,0.1-0.6,0.4-0.7,0.7c0,0.1,0,0.1,0.1,0.1c0,0,0,0,0,0.1
		c0,0,0,0-0.1,0c-0.1,0-0.3-0.1-0.4-0.1c0,0-0.1,0-0.1-0.1c0,0,0,0,0,0c0.2-0.1,0.3-0.2,0.2-0.4c0-0.2,0-0.5-0.2-0.7c0,0,0,0,0-0.1
		c0,0,0,0,0.1,0c0.1,0,0.2,0.1,0.3,0.1c0,0,0.1,0,0.1,0.1c0,0.1-0.1,0-0.1,0.1c-0.1,0,0,0.1,0,0.1
		C287.6,362.7,287.6,362.8,287.6,362.9z"/>
	<path class="st16" d="M303.1,369.2c0,0-0.1,0-0.1,0c0,0-0.1,0-0.1-0.1c0-0.1,0.1,0,0.1,0c0.2-0.1,0.2-0.3,0.2-0.4
		c0-0.2-0.1-0.4-0.1-0.5c0,0,0-0.1-0.1-0.1c0,0-0.1-0.1-0.1-0.1c0,0,0.1,0,0.1,0c0.1,0,0.2,0.1,0.3,0.1c0.1,0,0.1,0.1,0,0.1
		c-0.2,0-0.1,0.1-0.1,0.2c0,0.1,0,0.2,0.1,0.3c0.1,0,0.1-0.1,0.2-0.1c0.1,0,0.2-0.1,0-0.2c0,0,0-0.1,0.1-0.1c0.1,0,0.2,0.1,0.3,0.1
		c0,0,0.1,0,0,0.1c0,0,0,0-0.1,0c-0.3,0.1-0.7,0.4-0.7,0.7c0,0.1,0,0.1,0.1,0.1c0,0,0.1,0,0,0.1c0,0-0.1,0-0.1,0
		C303.2,369.3,303.1,369.3,303.1,369.2z"/>
	<path class="st16" d="M296.5,365.6c0.1,0,0.3,0.1,0.4,0.1c0.1,0,0.1,0.1,0.1,0.2c0,0,0,0.1-0.1,0.1c0,0,0,0.1-0.1,0.1
		c0,0,0-0.1,0-0.1c0,0,0-0.1,0-0.1c-0.1-0.1-0.1-0.1-0.2-0.1c-0.1,0-0.1,0.1-0.1,0.1c-0.1,0.2-0.1,0.4-0.2,0.6c0,0.1-0.1,0.2,0,0.2
		c0,0,0.1,0,0,0.1c0,0-0.1,0-0.1,0c-0.1,0-0.3-0.1-0.4-0.1c0,0-0.1,0-0.1-0.1c0,0,0,0,0.1,0c0.1,0,0.1-0.1,0.2-0.1
		c0.1-0.2,0.2-0.4,0.2-0.6c0-0.1,0.1-0.1,0-0.2c-0.1,0-0.2-0.1-0.3,0c0,0,0,0.1-0.1,0.1c-0.1,0,0-0.1,0-0.2c0-0.2,0.1-0.2,0.2-0.1
		C296.2,365.5,296.4,365.5,296.5,365.6C296.5,365.6,296.5,365.6,296.5,365.6z"/>
	<path class="st16" d="M293.8,364.6c0.1,0,0.2,0.1,0.3,0.1c0,0,0.1,0,0.1,0.1c0,0.1,0,0.2-0.1,0.2c0,0-0.1,0-0.1-0.1
		c0,0,0-0.1,0-0.1c-0.1-0.1-0.3-0.1-0.3,0.1c-0.1,0.2-0.1,0.2,0.1,0.3c0.1,0,0.1,0,0.1,0.1c0,0.1-0.1,0-0.1,0c-0.1,0-0.2-0.1-0.2,0
		c-0.1,0.1-0.1,0.1-0.1,0.2c0,0.1,0,0.2,0.1,0.2c0,0,0,0,0,0.1c0,0,0,0-0.1,0c-0.1,0-0.3-0.1-0.4-0.1c0,0,0,0,0,0c0,0,0,0,0,0
		c0.1,0,0.2-0.1,0.2-0.2c0.1-0.2,0.1-0.3,0.2-0.5c0-0.1,0.1-0.2,0-0.3c0,0,0,0,0-0.1c0,0,0.1,0,0.1,0
		C293.6,364.5,293.7,364.6,293.8,364.6z"/>
	<path class="st16" d="M284.7,361.3c0.1,0,0.2,0.1,0.3,0.1c0.2,0.1,0.2,0.2,0.1,0.4c0,0-0.1,0-0.1,0c0,0,0-0.1,0-0.1
		c0-0.1-0.1-0.1-0.2-0.1c-0.1,0-0.1,0.1-0.1,0.1c-0.1,0.2-0.2,0.4-0.2,0.6c0,0.1-0.1,0.2,0.1,0.2c0,0,0.1,0,0,0.1c0,0-0.1,0-0.1,0
		c-0.1,0-0.2-0.1-0.4-0.1c0,0-0.1,0-0.1-0.1c0,0,0,0,0.1,0c0.1,0,0.1,0,0.1-0.1c0.1-0.2,0.2-0.4,0.2-0.6c0-0.1,0.1-0.1,0-0.2
		c-0.1,0-0.2-0.1-0.3,0c0,0,0,0.1-0.1,0.1c-0.1,0,0-0.1,0-0.1c0-0.2,0.1-0.2,0.3-0.1C284.5,361.3,284.6,361.3,284.7,361.3z"/>
</g>
</svg>
